<?xml version="1.0" encoding="utf-8"?>
<!-- Generator: Adobe Illustrator 16.0.0, SVG Export Plug-In . SVG Version: 6.00 Build 0)  -->
<!DOCTYPE svg PUBLIC "-//W3C//DTD SVG 1.1//EN" "http://www.w3.org/Graphics/SVG/1.1/DTD/svg11.dtd">
<svg version="1.1" id="Layer_1" xmlns="http://www.w3.org/2000/svg" xmlns:xlink="http://www.w3.org/1999/xlink" x="0px" y="0px"
	 width="200px" height="200px" viewBox="0 0 200 200" enable-background="new 0 0 200 200" xml:space="preserve">
<circle opacity="0.3" fill="#231F20" cx="100" cy="100" r="95"/>
<path fill="#F4E536" d="M129.445,83.757c-5.025-3.961-9.641-8.085-10.99-14.899c-0.74-3.197-3.558-6.651-6.829-6.651h-0.042
	c-0.805,0-1.005-0.188-1.059-0.272c-0.146-0.25,0.165-0.849,0.371-1.244c0.18-0.346,0.332-0.64,0.315-0.887
	c1.725-0.219,3.759-1.968,3.975-3.5c0.162-1.112-0.292-1.868-0.697-2.533c-0.325-0.541-0.629-1.053-0.614-1.733
	c0.024-1.141,0.86-2.309,1.752-3.542c1.428-1.971,3.044-4.208,0.911-6.542c-0.124-0.145-0.35-0.153-0.495-0.025
	c-0.146,0.134-0.158,0.357-0.024,0.504c1.741,1.907,0.424,3.725-0.964,5.647c-0.911,1.271-1.86,2.583-1.89,3.947
	c-0.02,0.883,0.358,1.506,0.723,2.109c0.384,0.646,0.721,1.203,0.599,2.07c-0.182,1.295-2.169,2.901-3.611,2.913
	c-0.135,0.001-0.253,0.076-0.308,0.188c-0.404,0.007-1.02,0.238-1.729,0.509c-0.786,0.298-1.676,0.637-2.249,0.637
	c-0.072,0-0.145-0.006-0.196-0.017c-0.244-0.052-0.215-0.44-0.068-1.287c0.03-0.155,0.061-0.313,0.087-0.472
	c0.012-0.115-0.028-0.229-0.109-0.308c0.835-0.667,2.366-2.209,1.928-3.461c-0.335-0.947-1.502-1.668-2.629-2.361
	c-0.685-0.421-1.338-0.818-1.658-1.194c-0.859-1.004-1.233-2.969-0.882-4.678c0.251-1.218,0.824-2.098,1.615-2.484
	c0.172-0.089,0.251-0.3,0.157-0.476c-0.083-0.176-0.294-0.25-0.466-0.161c-0.999,0.484-1.701,1.545-2.001,2.977
	c-0.393,1.937,0.032,4.109,1.042,5.282c0.396,0.459,1.082,0.887,1.819,1.338c0.971,0.599,2.083,1.279,2.33,1.993
	c0.296,0.837-1.133,2.285-1.925,2.839c-0.045,0.033-0.085,0.08-0.113,0.132l0,0c-0.826,0-1.713,0.713-2.639,1.467
	c-0.852,0.685-1.726,1.391-2.542,1.553c-0.736,0.054-1.277-0.38-1.857-0.845c-0.429-0.347-0.871-0.7-1.416-0.891
	c-0.005-0.022-0.011-0.041-0.02-0.062c-0.306-0.752-1.533-2.271-2.783-2.5c-0.278-0.051-0.532-0.041-0.755-0.034
	c-0.463,0.017-0.605,0.021-0.75-0.37c-0.167-0.42,0.072-0.795,0.427-1.278c0.084-0.118,0.168-0.23,0.239-0.343
	c0.882-1.435,1.364-3.718,0.505-5.121c-1.258-2.083-4.278-2.622-6.481-2.452c-0.193,0.017-0.339,0.187-0.326,0.378
	c0.017,0.197,0.191,0.342,0.383,0.327c1.996-0.154,4.723,0.308,5.825,2.112c0.682,1.124,0.272,3.11-0.512,4.381
	c-0.053,0.096-0.132,0.195-0.206,0.299c-0.352,0.48-0.836,1.142-0.513,1.954c0.333,0.86,0.94,0.839,1.437,0.82
	c0.192-0.008,0.392-0.016,0.605,0.024c0.688,0.125,1.514,0.913,1.973,1.585c-0.147,0-0.287,0.001-0.435,0.001
	c-1.43,0.006-2.915,0.011-4.308-0.213c-1.196-0.189-1.181-0.642-1.14-1.736c0.012-0.313,0.025-0.672,0-1.054
	c-0.06-0.973-0.386-1.712-0.963-2.199c-1.132-0.951-2.964-0.746-4.59-0.565c-0.515,0.058-0.99,0.111-1.413,0.124
	c-0.192,0.006-0.35,0.169-0.343,0.366c0.005,0.192,0.179,0.35,0.366,0.344c0.446-0.014,0.945-0.069,1.466-0.128
	c1.483-0.165,3.16-0.354,4.059,0.404c0.436,0.357,0.667,0.916,0.71,1.697c0.023,0.349,0.011,0.673-0.001,0.986
	c-0.034,1.117-0.072,2.17,1.737,2.459c1.221,0.198,2.492,0.222,3.737,0.222c0.229,0,0.458,0,0.686-0.001
	c0.063-0.001,0.136-0.001,0.199-0.001c-0.183,0.473-0.18,1.072-0.174,1.698c0,0.039,0,0.073,0,0.11
	c-0.396-0.002-0.783-0.006-1.181-0.011c-0.98-0.018-1.995-0.035-2.992,0.014c-0.284,0.015-0.635,0.058-1.037,0.108
	c-1.112,0.133-2.62,0.319-3.262-0.077c-0.389-0.247-0.598-0.659-0.842-1.136c-0.3-0.579-0.634-1.233-1.37-1.664
	c-0.966-0.558-2.081-0.523-3.152-0.486c-0.254,0.008-0.507,0.015-0.755,0.015c-0.193,0-0.355,0.16-0.355,0.354
	c0,0.198,0.162,0.354,0.355,0.354c0.256,0,0.517-0.008,0.77-0.018c1.024-0.03,1.996-0.063,2.781,0.393
	c0.56,0.328,0.822,0.837,1.091,1.373c0.271,0.524,0.549,1.065,1.11,1.414c0.417,0.264,1.021,0.347,1.674,0.347
	c0.668,0,1.397-0.087,2.039-0.167c0.39-0.047,0.729-0.087,0.987-0.102c0.978-0.047,1.979-0.031,2.946-0.017
	c0.397,0.007,0.784,0.011,1.18,0.014c-0.045,0.756-0.198,1.277-0.736,1.53c-0.014,0.008-0.024,0.018-0.04,0.027
	c-0.654,0.438-1.387,0.497-2.164,0.562c-0.549,0.044-1.114,0.091-1.672,0.276c-0.094-0.09-0.227-0.125-0.352-0.082
	c-0.439,0.146-0.999,0.148-1.538,0.15c-0.373,0.001-0.75,0.002-1.096,0.05c-0.47,0.064-0.93,0.155-1.375,0.244
	c-0.423,0.086-0.866,0.173-1.308,0.234c-1.666,0.233-3.388,0.369-4.485-0.745c-0.292-0.29-0.476-0.675-0.671-1.08
	c-0.335-0.689-0.719-1.473-1.677-1.742c-0.38-0.104-0.832-0.097-1.267-0.089c-0.579,0.009-1.181,0.017-1.402-0.242
	c-0.129-0.148-0.159-0.427-0.082-0.821c0.032-0.191-0.092-0.377-0.291-0.41c-0.187-0.035-0.37,0.092-0.408,0.285
	c-0.112,0.622-0.036,1.081,0.243,1.405c0.437,0.515,1.204,0.502,1.951,0.489c0.38-0.007,0.785-0.013,1.058,0.064
	c0.659,0.186,0.925,0.733,1.232,1.371c0.217,0.438,0.442,0.893,0.805,1.269c0.861,0.865,1.992,1.111,3.161,1.111
	c0.646,0,1.304-0.075,1.934-0.163c0.458-0.065,0.91-0.153,1.348-0.243c0.433-0.085,0.882-0.177,1.328-0.238
	c0.296-0.041,0.639-0.042,1.003-0.043c0.425-0.002,0.866-0.005,1.279-0.07c0.592,1.497,0.774,2.504,0.61,3.297
	c-0.094,0.033-0.168,0.1-0.212,0.195c-0.355,0.843-3.481,1.124-4.87,0.762c-0.702-0.183-1.256-0.615-1.844-1.07
	c-0.55-0.427-1.12-0.868-1.837-1.127c-2.722-0.966-6.916-0.927-9.213,0.812c-0.159,0.118-0.192,0.339-0.075,0.494
	c0.118,0.157,0.34,0.188,0.499,0.07c2.084-1.572,6.061-1.593,8.551-0.708c0.61,0.219,1.115,0.608,1.642,1.02
	c0.622,0.479,1.256,0.974,2.101,1.194c0.425,0.112,1.049,0.17,1.708,0.17c0.452,0,0.925-0.027,1.367-0.083
	c0.432-0.055,0.917-0.146,1.353-0.296c-0.485,0.485-1.155,0.956-1.99,1.543l-0.369,0.267c-0.078,0.047-0.123,0.124-0.143,0.211
	L87.749,72.2c-0.726-0.008-1.404-0.2-2.12-0.401c-0.809-0.229-1.659-0.466-2.605-0.442c-0.562,0.016-1.097,0.107-1.613,0.197
	c-0.901,0.154-1.756,0.304-2.708,0.065c-0.639-0.161-1.228-0.415-1.844-0.682c-1.008-0.438-2.051-0.889-3.321-0.899
	c-0.217-0.002-0.447-0.011-0.683-0.021c-0.851-0.035-1.809-0.074-2.579,0.225c-0.281,0.106-0.503,0.268-0.698,0.41
	c-0.223,0.161-0.419,0.3-0.657,0.354c-0.196,0.045-0.315,0.232-0.269,0.424c0.043,0.192,0.233,0.312,0.421,0.266
	c0.385-0.084,0.664-0.288,0.915-0.47c0.183-0.127,0.347-0.249,0.539-0.324c0.638-0.245,1.479-0.21,2.297-0.177
	c0.243,0.009,0.48,0.019,0.706,0.021c1.124,0.011,2.059,0.415,3.042,0.84c0.625,0.271,1.263,0.545,1.959,0.722
	c1.092,0.269,2.062,0.106,2.997-0.057c0.515-0.088,1.007-0.17,1.512-0.184c0.842-0.024,1.596,0.188,2.393,0.412
	c0.731,0.207,1.477,0.42,2.29,0.428c0.106,0.365,0.46,0.697,1.268,1.197l0.248,0.152c0.165,0.103,0.364,0.223,0.575,0.353
	c-0.31-0.025-0.627-0.066-0.951-0.105c-0.85-0.101-1.729-0.204-2.493-0.142c-1.129,0.082-2.042,0.511-2.923,0.929
	c-0.68,0.323-1.33,0.623-2.031,0.755c-0.579,0.104-1.631-0.522-2.646-1.127c-1.352-0.81-2.753-1.648-3.809-1.287
	c-0.457,0.159-0.798,0.52-1.016,1.073c-0.068,0.179,0.019,0.383,0.205,0.46c0.179,0.068,0.384-0.019,0.458-0.205
	c0.137-0.353,0.334-0.57,0.582-0.659c0.75-0.252,2.056,0.533,3.216,1.225c1.067,0.636,2.077,1.239,2.881,1.239
	c0.086,0,0.17-0.006,0.254-0.021c0.798-0.149,1.513-0.486,2.206-0.812c0.827-0.392,1.675-0.789,2.677-0.866
	c0.694-0.052,1.542,0.046,2.359,0.141c0.757,0.092,1.486,0.179,2.102,0.146c0.555,0.433,1.01,0.903,1.063,1.319
	c0.015,0.12,0.006,0.313-0.231,0.544c-0.009,0.007-0.018,0.015-0.025,0.022c-0.628,0.77-1.207,1.528-1.744,2.283
	c-0.005,0.002-0.018,0.003-0.031,0.006c-1.477,0.365-3.608,0.8-5.078,0.399c-0.583-0.166-1.148-0.393-1.703-0.61
	c-0.796-0.318-1.619-0.647-2.558-0.808c-1.5-0.25-3.257-0.229-5.234,0.066c-0.736,0.109-1.343,0.302-1.932,0.488
	c-0.595,0.196-1.154,0.374-1.817,0.456c-0.191,0.026-0.331,0.203-0.304,0.399c0.022,0.191,0.2,0.331,0.39,0.304
	c0.735-0.09,1.348-0.287,1.947-0.485c0.56-0.178,1.139-0.361,1.818-0.464c1.879-0.276,3.606-0.301,5.016-0.065
	c0.858,0.146,1.618,0.445,2.417,0.764c0.566,0.227,1.151,0.46,1.772,0.638c0.491,0.133,1.025,0.187,1.582,0.187
	c1.03,0,2.129-0.186,3.14-0.409c-0.285,0.427-0.552,0.852-0.792,1.277c-1.904-0.664-3.751-0.557-5.227,0.312
	c-0.506,0.291-1.013,0.652-1.494,1.001c-0.959,0.683-1.944,1.39-3.023,1.681l-0.098,0.029c-0.708,0.192-1.375,0.377-2.082,0.16
	c-0.426-0.129-0.721-0.453-1.035-0.795c-0.231-0.245-0.47-0.503-0.771-0.684c-0.804-0.48-3.086-0.851-4.382-0.388
	c-0.504,0.176-0.827,0.467-0.965,0.851c-0.064,0.188,0.03,0.39,0.216,0.452c0.185,0.07,0.385-0.027,0.454-0.214
	c0.061-0.175,0.239-0.32,0.534-0.424c1.108-0.396,3.191-0.028,3.784,0.33c0.208,0.127,0.401,0.336,0.606,0.559
	c0.349,0.379,0.748,0.804,1.35,0.989c0.31,0.095,0.598,0.128,0.885,0.128c0.561,0,1.082-0.142,1.595-0.282l0.102-0.028
	c1.191-0.327,2.232-1.071,3.237-1.787c0.5-0.356,0.969-0.69,1.438-0.972c1.591-0.93,3.295-0.696,4.519-0.292
	c-0.538,0.969-0.979,1.936-1.341,2.89c-0.053,0.018-0.107,0.05-0.143,0.099c-0.846,0.934-2.773,2.047-3.936,2.408
	c-0.965,0.309-3.568,0.386-3.87-0.486c-0.062-0.189-0.261-0.288-0.452-0.22c-0.181,0.06-0.279,0.26-0.22,0.449
	c0.32,0.914,1.602,1.176,2.8,1.176c0.808,0,1.569-0.122,1.957-0.242c0.954-0.301,2.375-1.05,3.41-1.857
	c-0.358,1.203-0.582,2.396-0.678,3.562c-1.994,0.579-3.987-0.089-5.918-0.738c-0.971-0.325-1.968-0.661-2.947-0.834
	c-1.206-0.207-2.862-0.234-4.326-0.066c-1.667,0.185-2.372,0.858-3.262,1.717c-0.164,0.157-0.346,0.33-0.537,0.503
	c-0.147,0.132-0.159,0.355-0.026,0.502c0.075,0.075,0.17,0.117,0.266,0.117c0.082,0,0.166-0.033,0.238-0.09
	c0.197-0.186,0.378-0.355,0.552-0.524c0.852-0.82,1.419-1.363,2.847-1.521c1.383-0.158,3-0.131,4.129,0.061
	c0.919,0.163,1.85,0.474,2.839,0.805c1.961,0.662,3.988,1.342,6.114,0.814c-0.03,1.083,0.06,2.152,0.273,3.198
	c-0.028,0.054-0.063,0.115-0.098,0.168c-0.237,0.416-0.438,0.772-0.862,1.011c-0.948,0.537-2.485,0.455-3.407,0.412
	c-0.877-0.049-1.613-0.252-2.393-0.469c-0.82-0.228-1.666-0.464-2.666-0.495c-0.004-0.001-0.008-0.001-0.012-0.001
	c-0.188,0-0.348,0.154-0.351,0.344c-0.005,0.197,0.147,0.36,0.342,0.366c0.912,0.029,1.686,0.242,2.496,0.469
	c0.787,0.217,1.593,0.442,2.545,0.491c0.352,0.016,0.718,0.03,1.084,0.03c0.973,0,1.951-0.104,2.711-0.529
	c0.394-0.225,0.649-0.514,0.85-0.819c0.684,2.42,2.033,4.706,4.058,6.806c1.077,1.023,2.29,2.282,2.165,2.945
	c-0.086,0.469-0.942,0.859-1.973,1.279c-1.995,0.817-3.102,0.058-3.802-2.761c-0.705-2.832-0.919-3.104-1.304-3.129
	c-0.099-0.006-0.201,0.03-0.274,0.1c-1.855,1.825-3.739,2.674-5.931,2.674c-1.724,0-3.663-0.545-5.93-1.662
	c-0.113-0.055-0.245-0.047-0.35,0.022c-0.104,0.065-0.169,0.184-0.164,0.31c0.035,0.76,0.767,1.506,1.624,2.367
	c0.984,1.001,2.102,2.135,1.805,3.131c-0.493,1.624-2.508,1.997-4.286,2.327c-0.914,0.173-1.783,0.33-2.371,0.654
	c-0.104,0.054-0.168,0.153-0.183,0.268c-0.015,0.113,0.031,0.227,0.114,0.304c0.882,0.803,2.245,1.053,3.452,1.275
	c1.808,0.334,2.587,0.574,2.464,1.472c-0.169,1.253-1.554,1.719-3.023,2.212c-1.008,0.336-2.044,0.685-2.764,1.314
	c-0.093,0.086-0.139,0.214-0.112,0.336c0.027,0.124,0.114,0.226,0.235,0.268c1.016,0.338,2.091,0.511,3.042,0.663
	c1.206,0.193,2.344,0.378,2.647,0.823c0.515,0.775,0.317,1.604-0.981,4.021c-0.056,0.109-0.051,0.244,0.01,0.352
	c0.071,0.107,0.197,0.17,0.315,0.169c0.855-0.018,2.123-0.405,3.462-0.815c1.472-0.45,2.999-0.917,4.039-0.917
	c0.507,0,0.837,0.114,0.982,0.339c0.167,0.272,0.232,0.898-0.463,2.38c-2.671,6.469-2.604,13.337,0.177,19.331
	c2.968,6.386,8.865,11.392,16.187,13.729c0.011,0.003,0.023,0.007,0.035,0.009c1.755,0.386,3.533,0.581,5.276,0.581
	c8.686,0,15.351-4.608,17.838-12.328c1.236-3.84,0.834-7.793-1.083-10.575c-1.61-2.334-4.136-3.652-7.3-3.82
	c-0.187-0.009-0.383-0.013-0.569-0.013c-4.604,0-8.766,2.754-9.478,6.269c-0.25,1.278-0.218,2.098,0.116,2.505
	c0.154,0.185,0.355,0.281,0.592,0.281c0.595,0,1.361-0.664,2.286-1.973c1.288-1.824,2.899-2.827,4.549-2.827
	c2.508,0,4.465,2.271,4.653,5.4c-0.067,4.316-2.931,8.682-8.271,8.682c-2.455,0-4.901-1.028-6.898-2.896
	c-3.77-4.336-5.185-8.887-4.085-13.16c1.317-5.102,6.171-9.528,13.322-12.143c5.354-1.956,9.103-4.312,11.461-7.195
	c1.952-2.386,2.904-5.091,2.907-8.279c-0.297-8.554-6.714-13.031-12.941-16.27c-7.014-4.05-7.049-5.438-6.374-6.833
	c0.553-1.146,1.087-2.114,1.434-2.645c0.264,1.114,1.047,3.106,2.123,3.895c1.24,0.905,2.683,1.405,7.546,1.825
	c4.839,0.409,5.664,0.562,7.623,1.949c1.097,0.781,2.323,1.19,3.54,1.19c1.049,0,2.028-0.323,2.763-0.913
	c0.831-0.664,1.225-1.331,1.191-2.045C131.318,85.407,130.696,84.597,129.445,83.757z M115.845,75.954
	c-0.857,0-1.555-0.691-1.555-1.545c0-0.859,0.697-1.558,1.555-1.558c0.851,0,1.547,0.698,1.547,1.558
	C117.392,75.263,116.695,75.954,115.845,75.954z"/>
</svg>
