<?xml version="1.0" encoding="utf-8"?>
<!-- Generator: Adobe Illustrator 16.0.0, SVG Export Plug-In . SVG Version: 6.00 Build 0)  -->
<!DOCTYPE svg PUBLIC "-//W3C//DTD SVG 1.1//EN" "http://www.w3.org/Graphics/SVG/1.1/DTD/svg11.dtd">
<svg version="1.1" id="Layer_1" xmlns="http://www.w3.org/2000/svg" xmlns:xlink="http://www.w3.org/1999/xlink" x="0px" y="0px"
	 width="200px" height="200px" viewBox="150 150 200 200" enable-background="new 150 150 200 200" xml:space="preserve">
<path fill="#F5E636" d="M298.089,223.47c-8.205-6.471-15.749-13.203-17.954-24.334c-1.202-5.225-5.808-10.863-11.153-10.863h-0.064
	c-1.312,0-1.642-0.312-1.723-0.446c-0.249-0.412,0.263-1.387,0.602-2.032c0.297-0.565,0.544-1.044,0.519-1.451
	c2.814-0.358,6.139-3.21,6.493-5.712c0.258-1.821-0.484-3.054-1.14-4.142c-0.53-0.882-1.032-1.716-1.01-2.828
	c0.036-1.867,1.412-3.772,2.868-5.789c2.325-3.221,4.961-6.872,1.488-10.684c-0.215-0.237-0.581-0.253-0.816-0.038
	s-0.253,0.581-0.038,0.816c2.84,3.118,0.697,6.086-1.572,9.229c-1.495,2.072-3.042,4.214-3.087,6.443
	c-0.028,1.445,0.584,2.463,1.177,3.447c0.636,1.056,1.185,1.968,0.984,3.383c-0.299,2.116-3.553,4.739-5.899,4.756
	c-0.222,0.001-0.409,0.128-0.506,0.312c-0.667,0.01-1.665,0.389-2.821,0.828c-1.284,0.489-2.74,1.043-3.676,1.043
	c-0.123,0-0.232-0.01-0.325-0.03c-0.396-0.085-0.352-0.716-0.104-2.1c0.046-0.255,0.092-0.515,0.132-0.773
	c0.028-0.189-0.042-0.374-0.178-0.502c1.371-1.09,3.866-3.608,3.147-5.653c-0.545-1.548-2.45-2.721-4.292-3.855
	c-1.117-0.688-2.174-1.339-2.701-1.951c-1.408-1.638-2.015-4.852-1.443-7.642c0.408-1.985,1.345-3.427,2.637-4.06
	c0.286-0.141,0.405-0.487,0.265-0.773c-0.14-0.287-0.485-0.405-0.773-0.265c-1.621,0.794-2.778,2.522-3.26,4.866
	c-0.649,3.163,0.05,6.71,1.699,8.628c0.645,0.748,1.774,1.444,2.971,2.181c1.593,0.981,3.398,2.093,3.808,3.255
	c0.481,1.369-1.845,3.733-3.139,4.636c-0.082,0.058-0.144,0.134-0.185,0.219h-0.001c-1.358,0-2.797,1.162-4.319,2.391
	c-1.385,1.119-2.817,2.276-4.147,2.541c-1.197,0.087-2.083-0.623-3.027-1.381c-0.705-0.565-1.428-1.144-2.321-1.457
	c-0.007-0.033-0.016-0.067-0.029-0.1c-0.503-1.227-2.506-3.71-4.542-4.083c-0.459-0.084-0.871-0.069-1.234-0.056
	c-0.756,0.028-0.983,0.036-1.231-0.604c-0.266-0.685,0.123-1.299,0.702-2.091c0.141-0.193,0.275-0.376,0.388-0.561
	c1.445-2.342,2.228-6.069,0.834-8.363c-2.063-3.397-6.993-4.282-10.588-4.004c-0.318,0.024-0.556,0.302-0.532,0.62
	c0.024,0.319,0.302,0.558,0.621,0.532c3.266-0.251,7.72,0.503,9.511,3.452c1.113,1.832,0.453,5.077-0.829,7.155
	c-0.095,0.153-0.214,0.315-0.339,0.486c-0.574,0.787-1.36,1.864-0.845,3.191c0.545,1.407,1.546,1.37,2.352,1.341
	c0.318-0.011,0.648-0.024,0.983,0.038c1.123,0.206,2.481,1.49,3.232,2.588c-0.238,0-0.475,0.001-0.714,0.002
	c-2.341,0.009-4.766,0.018-7.038-0.345c-1.948-0.312-1.922-1.05-1.86-2.836c0.018-0.515,0.038-1.099,0-1.724
	c-0.098-1.589-0.625-2.796-1.567-3.588c-1.85-1.555-4.854-1.219-7.505-0.923c-0.833,0.093-1.621,0.181-2.302,0.201
	c-0.319,0.009-0.571,0.275-0.562,0.595c0.009,0.319,0.285,0.574,0.594,0.561c0.729-0.021,1.54-0.112,2.397-0.208
	c2.42-0.271,5.163-0.577,6.633,0.659c0.7,0.588,1.079,1.496,1.157,2.774c0.035,0.569,0.017,1.099-0.001,1.612
	c-0.063,1.823-0.123,3.545,2.833,4.018c1.997,0.32,4.07,0.362,6.105,0.362c0.375,0,0.748-0.001,1.119-0.003c0.11,0,0.219,0,0.329,0
	c-0.305,0.769-0.3,1.75-0.292,2.773c0,0.061,0,0.12,0.001,0.179c-0.64-0.003-1.281-0.01-1.923-0.021
	c-1.604-0.026-3.263-0.053-4.889,0.027c-0.464,0.022-1.036,0.092-1.699,0.173c-1.806,0.22-4.279,0.521-5.317-0.126
	c-0.644-0.401-0.987-1.075-1.385-1.854c-0.481-0.944-1.027-2.014-2.237-2.717c-1.571-0.912-3.394-0.854-5.153-0.796
	c-0.411,0.013-0.821,0.027-1.223,0.027c-0.319,0-0.578,0.258-0.578,0.578c0,0.319,0.259,0.578,0.578,0.578
	c0.415,0,0.836-0.014,1.261-0.028c1.673-0.053,3.251-0.104,4.536,0.641c0.915,0.531,1.339,1.362,1.788,2.242
	c0.436,0.855,0.887,1.739,1.803,2.31c0.686,0.428,1.667,0.566,2.738,0.566c1.093,0,2.277-0.145,3.332-0.273
	c0.641-0.078,1.194-0.145,1.617-0.167c1.588-0.078,3.228-0.052,4.812-0.026c0.642,0.011,1.282,0.017,1.921,0.021
	c-0.068,1.233-0.327,2.086-1.196,2.5c-0.026,0.013-0.051,0.027-0.074,0.043c-1.062,0.715-2.263,0.813-3.534,0.917
	c-0.899,0.073-1.823,0.152-2.728,0.452c-0.15-0.143-0.371-0.202-0.581-0.131c-0.706,0.237-1.62,0.24-2.504,0.242
	c-0.605,0.002-1.23,0.003-1.795,0.082c-0.766,0.105-1.517,0.256-2.244,0.401c-0.694,0.14-1.414,0.284-2.129,0.384
	c-2.725,0.381-5.536,0.601-7.333-1.218c-0.47-0.476-0.775-1.101-1.098-1.764c-0.548-1.126-1.169-2.404-2.741-2.845
	c-0.617-0.172-1.354-0.161-2.068-0.148c-0.944,0.015-1.923,0.032-2.286-0.394c-0.208-0.245-0.255-0.696-0.138-1.341
	c0.056-0.314-0.152-0.615-0.466-0.672c-0.31-0.055-0.615,0.152-0.672,0.466c-0.183,1.015-0.054,1.766,0.395,2.295
	c0.715,0.842,1.972,0.821,3.186,0.802c0.629-0.011,1.283-0.021,1.737,0.106c1.072,0.3,1.508,1.198,2.015,2.237
	c0.349,0.717,0.71,1.459,1.313,2.071c1.398,1.415,3.246,1.818,5.153,1.818c1.058,0,2.135-0.124,3.164-0.268
	c0.749-0.104,1.485-0.252,2.196-0.395c0.709-0.142,1.443-0.29,2.174-0.39c0.489-0.067,1.048-0.069,1.642-0.071
	c0.698-0.001,1.412-0.006,2.085-0.115c0.963,2.446,1.267,4.092,0.999,5.386c-0.149,0.052-0.276,0.162-0.343,0.318
	c-0.585,1.378-5.69,1.836-7.956,1.244c-1.144-0.299-2.049-1.002-3.008-1.746c-0.9-0.699-1.831-1.421-3.011-1.84
	c-4.447-1.579-11.291-1.515-15.046,1.324c-0.255,0.192-0.306,0.555-0.113,0.81c0.192,0.255,0.555,0.304,0.81,0.112
	c3.399-2.569,9.894-2.601,13.963-1.156c1.005,0.357,1.823,0.992,2.689,1.664c1.009,0.783,2.051,1.592,3.425,1.952
	c0.698,0.183,1.71,0.278,2.79,0.278c0.739,0,1.51-0.045,2.233-0.136c0.708-0.089,1.497-0.238,2.21-0.482
	c-0.79,0.792-1.884,1.562-3.243,2.52l-0.614,0.433c-0.117,0.083-0.199,0.205-0.23,0.345l-0.003,0.014
	c-1.18-0.013-2.289-0.321-3.46-0.651c-1.327-0.374-2.708-0.762-4.25-0.721c-0.917,0.023-1.795,0.174-2.645,0.32
	c-1.472,0.253-2.861,0.491-4.416,0.104c-1.043-0.26-2.002-0.675-3.018-1.113c-1.646-0.712-3.348-1.448-5.42-1.468
	c-0.357-0.003-0.731-0.019-1.115-0.034c-1.385-0.056-2.956-0.12-4.215,0.368c-0.453,0.175-0.818,0.438-1.14,0.669
	c-0.364,0.263-0.68,0.49-1.074,0.579c-0.311,0.071-0.506,0.38-0.436,0.691c0.071,0.312,0.379,0.508,0.692,0.436
	c0.624-0.142,1.085-0.475,1.494-0.769c0.291-0.209,0.566-0.408,0.881-0.529c1.036-0.401,2.417-0.345,3.751-0.291
	c0.395,0.016,0.782,0.031,1.15,0.035c1.838,0.017,3.36,0.675,4.972,1.372c1.014,0.438,2.062,0.892,3.197,1.174
	c1.789,0.446,3.365,0.175,4.89-0.086c0.846-0.146,1.646-0.283,2.479-0.304c1.369-0.037,2.605,0.312,3.907,0.678
	c1.188,0.335,2.413,0.677,3.737,0.696c0.174,0.6,0.75,1.143,2.069,1.954l0.402,0.245c0.277,0.168,0.598,0.364,0.938,0.579
	c-0.496-0.045-1.016-0.105-1.548-0.168c-1.387-0.163-2.82-0.332-4.072-0.238c-1.845,0.138-3.336,0.841-4.777,1.52
	c-1.112,0.524-2.162,1.019-3.318,1.232c-0.945,0.172-2.661-0.852-4.319-1.843c-2.209-1.319-4.493-2.684-6.215-2.096
	c-0.745,0.254-1.303,0.842-1.659,1.748c-0.117,0.297,0.029,0.633,0.326,0.75c0.294,0.116,0.633-0.029,0.75-0.327
	c0.229-0.583,0.542-0.935,0.957-1.077c1.217-0.414,3.358,0.866,5.249,1.995c1.737,1.038,3.388,2.023,4.702,2.023
	c0.144,0,0.284-0.012,0.42-0.037c1.305-0.24,2.472-0.79,3.602-1.323c1.346-0.635,2.739-1.291,4.372-1.413
	c1.139-0.085,2.518,0.077,3.851,0.234c1.242,0.146,2.426,0.283,3.439,0.235c0.908,0.709,1.651,1.476,1.73,2.158
	c0.023,0.197,0.009,0.503-0.376,0.884c-0.014,0.013-0.027,0.028-0.039,0.042c-1.033,1.247-1.976,2.49-2.846,3.729
	c-0.02,0.002-0.04,0.004-0.06,0.008c-2.412,0.594-5.895,1.307-8.289,0.646c-0.959-0.265-1.884-0.635-2.778-0.993
	c-1.305-0.522-2.654-1.062-4.184-1.317c-2.449-0.409-5.325-0.375-8.549,0.102c-1.205,0.178-2.196,0.498-3.155,0.807
	c-0.968,0.312-1.883,0.607-2.968,0.744c-0.317,0.04-0.541,0.329-0.501,0.646c0.04,0.317,0.33,0.542,0.646,0.501
	c1.193-0.151,2.202-0.476,3.178-0.791c0.915-0.295,1.859-0.599,2.969-0.763c3.062-0.452,5.894-0.488,8.19-0.104
	c1.407,0.235,2.64,0.728,3.944,1.25c0.924,0.37,1.879,0.752,2.9,1.034c0.796,0.22,1.673,0.31,2.585,0.31
	c1.682,0,3.481-0.308,5.118-0.674c-0.457,0.699-0.888,1.397-1.293,2.092c-3.1-1.083-6.126-0.908-8.536,0.504
	c-0.822,0.481-1.645,1.069-2.44,1.638c-1.56,1.115-3.172,2.267-4.928,2.748l-0.161,0.044c-1.154,0.318-2.245,0.618-3.402,0.264
	c-0.693-0.211-1.18-0.737-1.696-1.294c-0.377-0.407-0.767-0.828-1.249-1.118c-1.316-0.792-5.048-1.393-7.164-0.638
	c-0.818,0.292-1.347,0.761-1.573,1.395c-0.107,0.301,0.05,0.631,0.351,0.739c0.301,0.108,0.631-0.049,0.739-0.35
	c0.104-0.291,0.397-0.524,0.874-0.694c1.813-0.648,5.21-0.043,6.177,0.54c0.341,0.206,0.66,0.549,0.997,0.913
	c0.57,0.614,1.214,1.311,2.207,1.614c0.497,0.152,0.974,0.212,1.437,0.212c0.915,0,1.772-0.236,2.611-0.467l0.16-0.044
	c1.954-0.536,3.652-1.749,5.294-2.922c0.811-0.579,1.576-1.125,2.353-1.581c2.6-1.523,5.383-1.14,7.37-0.482
	c-0.868,1.587-1.591,3.162-2.184,4.721c-0.088,0.031-0.172,0.082-0.239,0.157c-1.375,1.533-4.522,3.344-6.417,3.94
	c-1.584,0.498-5.837,0.627-6.326-0.801c-0.104-0.302-0.432-0.463-0.734-0.359c-0.302,0.104-0.463,0.432-0.359,0.734
	c0.512,1.495,2.616,1.927,4.565,1.927c1.318,0,2.565-0.198,3.201-0.397c1.558-0.49,3.874-1.719,5.57-3.037
	c-0.593,1.97-0.958,3.913-1.103,5.82c-3.264,0.949-6.522-0.145-9.678-1.208c-1.579-0.532-3.211-1.083-4.807-1.357
	c-1.971-0.34-4.681-0.383-7.072-0.114c-2.716,0.306-3.865,1.408-5.32,2.803c-0.275,0.264-0.564,0.541-0.88,0.827
	c-0.236,0.215-0.254,0.58-0.04,0.817c0.114,0.126,0.271,0.19,0.428,0.19c0.138,0,0.278-0.049,0.389-0.15
	c0.324-0.294,0.621-0.579,0.903-0.85c1.398-1.341,2.322-2.227,4.649-2.489c2.256-0.254,4.903-0.213,6.746,0.104
	c1.507,0.26,3.026,0.771,4.633,1.314c3.211,1.083,6.523,2.193,9.986,1.327c-0.045,1.774,0.104,3.517,0.455,5.222
	c-0.055,0.094-0.109,0.188-0.163,0.28c-0.385,0.675-0.718,1.259-1.413,1.651c-1.543,0.872-4.061,0.744-5.566,0.667
	c-1.425-0.073-2.63-0.408-3.906-0.763c-1.336-0.372-2.717-0.756-4.348-0.805c-0.005,0-0.011,0-0.018,0
	c-0.312,0-0.568,0.247-0.577,0.561c-0.01,0.319,0.241,0.586,0.56,0.595c1.491,0.045,2.745,0.394,4.073,0.764
	c1.28,0.356,2.603,0.725,4.157,0.804c0.573,0.03,1.168,0.053,1.764,0.053c1.594,0,3.197-0.171,4.43-0.868
	c0.65-0.368,1.063-0.839,1.395-1.336c1.117,3.949,3.323,7.681,6.631,11.118c1.753,1.67,3.74,3.728,3.536,4.81
	c-0.144,0.765-1.548,1.398-3.23,2.088c-3.251,1.333-5.062,0.094-6.205-4.506c-1.15-4.626-1.5-5.077-2.138-5.116
	c-0.163-0.009-0.324,0.05-0.441,0.165c-3.031,2.98-6.109,4.368-9.685,4.368c-2.821,0-5.992-0.889-9.694-2.715
	c-0.183-0.091-0.4-0.078-0.571,0.033c-0.171,0.112-0.271,0.306-0.262,0.51c0.052,1.238,1.255,2.457,2.649,3.867
	c1.612,1.633,3.44,3.483,2.95,5.109c-0.801,2.653-4.096,3.266-7.003,3.805c-1.493,0.277-2.903,0.539-3.868,1.065
	c-0.165,0.09-0.275,0.254-0.297,0.439c-0.022,0.187,0.047,0.371,0.186,0.497c1.444,1.309,3.669,1.721,5.633,2.083
	c2.955,0.546,4.229,0.938,4.03,2.405c-0.277,2.046-2.543,2.805-4.942,3.607c-1.642,0.549-3.339,1.116-4.51,2.152
	c-0.155,0.137-0.225,0.346-0.184,0.549c0.041,0.202,0.188,0.367,0.383,0.433c1.66,0.553,3.42,0.835,4.973,1.085
	c1.97,0.315,3.832,0.614,4.319,1.342c0.848,1.269,0.521,2.619-1.594,6.568c-0.097,0.181-0.091,0.399,0.017,0.574
	c0.107,0.176,0.312,0.277,0.505,0.276c1.401-0.028,3.47-0.661,5.66-1.332c2.405-0.735,4.893-1.497,6.593-1.497
	c0.831,0,1.371,0.187,1.604,0.555c0.28,0.439,0.378,1.468-0.756,3.887c-4.36,10.566-4.256,21.78,0.294,31.572
	c4.846,10.43,14.48,18.604,26.433,22.425c0.017,0.006,0.035,0.011,0.052,0.015c2.874,0.629,5.776,0.948,8.626,0.948
	c14.18,0,25.071-7.528,29.136-20.137c2.021-6.271,1.356-12.728-1.776-17.272c-2.626-3.812-6.748-5.969-11.919-6.238
	c-0.311-0.016-0.619-0.023-0.93-0.023c-7.519,0-14.315,4.499-15.474,10.242c-0.42,2.084-0.357,3.422,0.19,4.091
	c0.245,0.3,0.578,0.457,0.962,0.457c0.969,0,2.225-1.084,3.732-3.223c2.099-2.979,4.738-4.618,7.43-4.618
	c4.095,0,7.288,3.708,7.602,8.821c-0.116,7.051-4.791,14.181-13.512,14.181c-4.003,0-8.005-1.68-11.271-4.73
	c-6.156-7.082-8.459-14.514-6.662-21.493c2.146-8.334,10.077-15.563,21.76-19.834c8.742-3.197,14.865-7.042,18.721-11.755
	c3.186-3.896,4.735-8.311,4.741-13.521c-0.478-13.977-10.965-21.285-21.139-26.579c-11.447-6.607-11.514-8.878-10.411-11.16
	c0.904-1.87,1.781-3.445,2.347-4.316c0.426,1.823,1.708,5.069,3.466,6.357c2.02,1.479,4.38,2.302,12.326,2.98
	c7.907,0.674,9.254,0.92,12.449,3.187c1.796,1.274,3.795,1.947,5.779,1.947c1.711,0,3.315-0.53,4.519-1.491
	c1.358-1.085,1.994-2.177,1.943-3.339C301.155,226.167,300.133,224.837,298.089,223.47z M275.872,209.127
	c-0.958,0-1.734-0.776-1.734-1.734c0-0.958,0.776-1.734,1.734-1.734s1.734,0.777,1.734,1.734
	C277.606,208.351,276.83,209.127,275.872,209.127z"/>
</svg>
