<?xml version="1.0" encoding="utf-8"?>
<!-- Generator: Adobe Illustrator 16.0.0, SVG Export Plug-In . SVG Version: 6.00 Build 0)  -->
<!DOCTYPE svg PUBLIC "-//W3C//DTD SVG 1.1//EN" "http://www.w3.org/Graphics/SVG/1.1/DTD/svg11.dtd">
<svg version="1.1" id="Layer_1" xmlns="http://www.w3.org/2000/svg" xmlns:xlink="http://www.w3.org/1999/xlink" x="0px" y="0px"
	 width="200px" height="200px" viewBox="0 0 200 200" enable-background="new 0 0 200 200" xml:space="preserve">
<circle opacity="0.3" fill="#231F20" cx="100" cy="100" r="95"/>
<g>
	<defs>
		<circle id="SVGID_1_" cx="100" cy="100" r="95"/>
	</defs>
	<clipPath id="SVGID_2_">
		<use xlink:href="#SVGID_1_"  overflow="visible"/>
	</clipPath>
	<g clip-path="url(#SVGID_2_)">
		<path fill="#F4E536" d="M121.931,222.991c7.57-19.438-1.823-30.896-2.501-41.653c-0.678-10.759,5.461-22.766,6.326-27.385
			c0.863-4.621-2.582-10.451-4.356-16.048c-1.777-5.596-1.005-11.865,1.723-16.327c0,0,4.502,0.01,6.278-3.734
			c1.773-3.744,10.585-31.669-17.527-42.656C83.759,64.202,68.776,89.627,67.367,96.266c-1.412,6.639,0.107,13.572,3.674,16.881
			c0,0-3.433,7.217-6.393,12.22c-2.963,5.003-7.285,11.673-6.017,18.823c1.266,7.148,5.232,14.009,5.18,21.233
			c-0.053,7.22-1.425,13.394-4.154,18.981c-2.73,5.588-8.448,20.348-8.023,21.982c0,0,2.967-8.383,8.698-19.441
			c5.73-11.055,6.064-21.539,4.829-26.9c-1.232-5.361-8.631-14.346-2.783-25.675c5.846-11.327,9.625-15.98,10.718-20.018
			c0,0,10.358,6.235,12.574,4.452c0,0-1.015,3.105-0.9,3.961c0.112,0.854-0.51,1.55-0.199,2.328c0.309,0.776,0.91,0.877,0.694,1.749
			c-0.216,0.874-0.352,0.815-0.412,2.077c-0.062,1.262-0.003,1.126-0.218,2c-0.214,0.873-0.021,0.796-0.373,1.611
			c-0.352,0.815,0.078,0.193-0.39,1.279c-0.468,1.086,0.25,0.914-0.644,1.494c-0.895,0.58-0.834,0.443-1.322,1.201
			c-0.488,0.756-0.506,0.425-0.799,1.105c-0.293,0.68-0.876,0.91-0.468,1.086c0.407,0.176-0.097-0.523,0.407,0.176
			c0.505,0.701,0.697,1.748,0.734,2.41c0.038,0.66-0.215,0.872,0.153,1.514c0.367,0.643,0.367,0.643,0.367,0.643
			s0.118-0.273-0.039,0.465c-0.157,0.739-0.255,1.34-0.255,1.34s0.292-0.678,0.425,0.506c0.134,1.184-0.839,2.697-0.839,2.697
			s-0.662,1.165-0.76,1.766c-0.099,0.603-0.372,1.611-0.47,2.213c-0.102,0.603,0.036,0.662-0.257,1.34
			c-0.292,0.678-0.468,1.086-0.876,2.035c-0.411,0.953-0.935,1.047-0.762,1.768c0.175,0.717,0.348,1.438,0.348,1.438
			s-0.157,0.736-0.391,1.279s-0.274,1.009-0.585,1.359c-0.312,0.349-0.347-0.312-0.875,0.911c-0.526,1.223-0.59,3.609,1.073,6.097
			c1.666,2.488,5.681,4.382,5.681,4.382s3.169,9.093,2.701,10.179c-0.468,1.086-4.134,7.721-4.467,8.865
			c-0.331,1.145-1.385,3.592-0.187,6.037c1.199,2.45,4.838,8.203,5.207,8.845c0.368,0.643,3.001,3.873,2.476,5.093
			c-0.527,1.223-0.704,2.756-1.114,3.708c-0.41,0.949-4.473,13.368-2.247,16.423c2.229,3.053,1.651-0.092,1.227-1.726
			c-0.423-1.633,0.981-4.891,2.849-6.985c1.869-2.094,4.908-8.029,2.798-11.353c-2.107-3.325-7.043-10.929-7.234-13.103
			c-0.19-2.174,1.046-9.531,2.466-10.207c1.421-0.68,2.743-1.881,2.743-1.881s0.092,2.777-0.318,3.73
			c-0.41,0.948,0.923,4.582,1.867,7.244c0.948,2.662,2.632,5.479,2.707,6.8c0.075,1.321-0.042,10.935,1.86,11.754
			c0,0-0.103-6.487-0.214-9.594c-0.11-3.107,0.456-4.796-0.743-7.243c-1.199-2.45-3.188-8.3-1.2-11.791c0,0,2.209,1.6,3.351,4.184
			c1.141,2.582-1.065,8.076-0.136,9.281c0.931,1.205,1.628,1.83,1.431,3.033c-0.195,1.203-1.136,6.753,1.09,8.68
			c2.229,1.926,5.315,2.612,6.263,5.273c0.947,2.662,1.177,3.246,1.177,3.246s1.678-4.27-1.189-6.953
			c-2.87-2.686-6.104-6.014-5.747-9.081c0.354-3.064,2.578-8.229,2.232-10.79c-0.343-2.565-1.505-4.354-3.5-6.822
			c0,0-6.767-4.85-6.513-6.186c0.255-1.342,2.03-5.086,2.226-6.289s-0.997-7.031-2.064-7.17c0,0,2.351-0.596,4.851,2.574
			c2.498,3.169,2.259,5.967,3.094,6.646c0.831,0.68,1.239,0.854,1.239,0.854s-0.896,1.707,0.729,4.662
			c1.625,2.956,3.791,7.273,4.313,8.302c0.521,1.03-0.14,2.194-0.801,3.356c-0.664,1.163-4.226,14.283,1.229,15.829
			c0,0-1.277-1.519-0.454-5.673c0.824-4.15,3.711-10.479,1.092-12.248c0,0,0.062-1.262,1.189-2.385
			c1.127-1.127,1.568-7.376-6.209-12.498c0,0,0.938-2.176-0.163-5.226c-1.101-3.049-4.393-8.49-2.366-11.322
			c2.024-2.832,4.285-7.333,1.228-12.192c0,0,3.592-10.206,4.761-11.796c1.168-1.591,2.787-4.597,0.363-6.446
			c-2.425-1.85-2.979-5.792-1.791-7.051c0,0,9.2,1.064,13.301-1.354c0,0-2.494,5.042-1.631,10.891
			c0.86,5.846,6.903,14.246,6.274,18.322c-0.632,4.076-5.426,14.085-6.202,22.605c-0.773,8.523,1.354,13.304,4.385,21.215
			c3.034,7.91,3.406,35.443-27.976,67.166C93.969,262.469,114.359,242.434,121.931,222.991z M88.513,164.15
			c0.581,0.895-1.522,3.53-1.931,4.479c-0.411,0.953,4.705,5.896,5.379,8.441c0.677,2.541-0.315,3.727-0.315,3.727
			c0.448-1.419-3.002-4.998-6.333-8.848c-3.332-3.852-3.027-11.289-2.4-13.111c0.623-1.823,1.768-1.492,1.768-1.492
			C83.591,159.13,87.932,163.256,88.513,164.15z"/>
	</g>
</g>
</svg>
