<?xml version="1.0" encoding="utf-8"?>
<!-- Generator: Adobe Illustrator 16.0.0, SVG Export Plug-In . SVG Version: 6.00 Build 0)  -->
<!DOCTYPE svg PUBLIC "-//W3C//DTD SVG 1.1//EN" "http://www.w3.org/Graphics/SVG/1.1/DTD/svg11.dtd">
<svg version="1.1" id="Layer_1" xmlns="http://www.w3.org/2000/svg" xmlns:xlink="http://www.w3.org/1999/xlink" x="0px" y="0px"
	 width="200px" height="200px" viewBox="150 150 200 200" enable-background="new 150 150 200 200" xml:space="preserve">
<g>
	<path fill="#F5E636" d="M274.649,278.119c1.536-0.12,3.199-0.25,4.993-0.382c-4.894,2.001-15.138,5.63-27.188,6.655
		c-2.517,0.211-2.811-0.965-3.154-3.239c-0.154-1.019-0.331-2.175-0.925-3.088c4.333,0.581,8.039,0.834,11.817,0.834
		C264.6,278.899,269.034,278.555,274.649,278.119z"/>
	<path fill="#F5E636" d="M234.802,275.602c-6.861,0.318-19.655,0.748-23.13-0.293c-4.421-1.325-7.571-4.941-7.475-8.434
		c5.005,1.066,10.841,2.878,16.556,4.654C225.54,273.018,230.455,274.545,234.802,275.602z"/>
	<path fill="#F5E636" d="M206.983,243.218c-1.977,1.244-3.781,2.191-5.485,2.87c-0.332-0.326-0.467-0.76-0.418-1.348
		c0.435-5.139,14.371-17.517,22.796-21.41c4.795-2.216,9.149-2.737,11.957-2.783c1.256-0.021,2.321,0.05,3.145,0.14
		c-11.276,5.272-19.068,11.936-24.831,16.868C211.412,239.896,209.049,241.918,206.983,243.218z"/>
	<path fill="#F5E636" d="M155.5,284.605c0.42,0.658,1.079,0.992,1.958,0.992c0.734,0,1.573-0.234,2.495-0.691
		c6.67-3.321,12.845-7.477,18.292-11.143c6.841-4.605,12.245-8.242,16.379-8.863c0.664-0.1,1.407-0.15,2.208-0.15
		c1.991,0,4.333,0.314,6.891,0.832c0.01,0,0.02-0.001,0.03,0c0.041,0.006,0.08,0.017,0.117,0.03
		c5.192,1.061,11.276,2.948,17.231,4.8c5.948,1.85,12.099,3.762,17.058,4.734c2.823,0.554,5.35,1.005,7.68,1.368
		c0.008,0.001,0.016,0,0.024,0.001c0.012,0.002,0.023,0.006,0.035,0.008c5.463,0.85,9.832,1.206,14.295,1.206
		c4.361,0,8.776-0.344,14.366-0.778c2.461-0.19,5.251-0.407,8.379-0.621c0.001,0,0.003,0,0.004,0s0.002,0,0.002,0
		c10.639-0.729,46.456-3.947,61.093-14.766c0.833-0.617,0.995-1.002,0.959-1.133c-0.1-0.358-1.261-0.733-2.234-0.828
		c-0.227-0.022-0.42-0.174-0.495-0.389c-0.076-0.216-0.02-0.455,0.145-0.614l2.163-2.099c-2.091-1.527-9.631-7.179-17.845-15.139
		c-0.829-0.803-1.687-1.642-2.568-2.505c-9.126-8.927-21.623-21.153-33.411-23.382c-3.608-0.682-8.703-1.073-13.977-1.073
		c-7.716,0-22.597,0.851-35.552,6.55c-12.083,5.315-20.307,12.353-26.312,17.492c-2.771,2.372-5.164,4.419-7.302,5.765
		c-4.818,3.032-8.692,4.384-12.561,4.384c-2.078,0-4.141-0.399-6.308-1.219c-3.219-1.219-10.072-6.86-16.699-12.315
		c-5.281-4.348-11.854-9.758-13.149-9.76c-0.041,0.009-0.092,0.014-0.134,0.014c-0.054,0-1.318,0.009-2.037,0.805
		c-0.413,0.457-0.579,1.116-0.492,1.959l0.039,0.391c0.251,2.64,0.773,8.132,9.683,22.39c4.855,7.77-2.505,17.298-6.902,22.991
		c-1.283,1.661-2.391,3.097-2.803,3.981C154.907,280.705,154.629,283.238,155.5,284.605z M317.165,243.817
		c-0.082-0.967,0.637-1.815,1.602-1.896c0.967-0.081,1.815,0.635,1.897,1.602c0.081,0.966-0.636,1.815-1.603,1.896
		C318.096,245.5,317.246,244.783,317.165,243.817z"/>
</g>
</svg>
