<?xml version="1.0" encoding="utf-8"?>
<!-- Generator: Adobe Illustrator 16.0.0, SVG Export Plug-In . SVG Version: 6.00 Build 0)  -->
<!DOCTYPE svg PUBLIC "-//W3C//DTD SVG 1.1//EN" "http://www.w3.org/Graphics/SVG/1.1/DTD/svg11.dtd">
<svg version="1.1" id="Layer_1" xmlns="http://www.w3.org/2000/svg" xmlns:xlink="http://www.w3.org/1999/xlink" x="0px" y="0px"
	 width="200px" height="200px" viewBox="0 0 200 200" enable-background="new 0 0 200 200" xml:space="preserve">
<circle opacity="0.3" fill="#231F20" cx="100" cy="100" r="95"/>
<g>
	<path fill="#F4E536" d="M115.092,117.217c0.94-0.074,1.959-0.152,3.057-0.233c-2.995,1.225-9.268,3.444-16.645,4.074
		c-1.542,0.13-1.721-0.591-1.931-1.984c-0.093-0.622-0.202-1.33-0.566-1.89c2.65,0.357,4.92,0.51,7.233,0.51
		C108.938,117.693,111.653,117.482,115.092,117.217z"/>
	<path fill="#F4E536" d="M90.696,115.674c-4.201,0.197-12.033,0.459-14.161-0.178c-2.708-0.811-4.636-3.026-4.576-5.164
		c3.064,0.653,6.636,1.764,10.137,2.85C85.025,114.094,88.033,115.028,90.696,115.674z"/>
	<path fill="#F4E536" d="M73.664,95.849c-1.211,0.761-2.316,1.341-3.359,1.756c-0.203-0.199-0.286-0.465-0.254-0.824
		c0.265-3.146,8.797-10.725,13.957-13.108c2.936-1.357,5.6-1.676,7.319-1.704c0.771-0.013,1.422,0.03,1.926,0.085
		c-6.904,3.228-11.674,7.309-15.203,10.327C76.375,93.815,74.929,95.053,73.664,95.849z"/>
	<path fill="#F4E536" d="M42.143,121.188c0.258,0.402,0.661,0.606,1.2,0.606c0.449,0,0.962-0.142,1.526-0.423
		c4.084-2.033,7.864-4.578,11.201-6.822c4.188-2.818,7.497-5.045,10.027-5.426c0.407-0.062,0.862-0.092,1.352-0.092
		c1.22,0,2.652,0.193,4.219,0.509c0.006,0.001,0.012-0.001,0.018,0.001c0.025,0.004,0.05,0.01,0.073,0.018
		c3.179,0.648,6.904,1.805,10.55,2.939c3.642,1.131,7.407,2.303,10.443,2.898c1.729,0.34,3.274,0.615,4.701,0.837
		c0.005,0.001,0.01,0.001,0.015,0.001c0.007,0.002,0.014,0.004,0.021,0.005c3.346,0.521,6.019,0.739,8.752,0.739
		c2.671,0,5.374-0.211,8.797-0.477c1.505-0.117,3.214-0.25,5.129-0.382c0,0,0.001,0,0.002,0h0.001
		c6.514-0.446,28.442-2.416,37.403-9.039c0.512-0.378,0.61-0.614,0.588-0.694c-0.061-0.219-0.771-0.448-1.367-0.508
		c-0.14-0.013-0.258-0.105-0.303-0.237c-0.047-0.131-0.012-0.278,0.088-0.375l1.324-1.286c-1.28-0.936-5.896-4.395-10.925-9.267
		c-0.508-0.493-1.033-1.005-1.573-1.535c-5.587-5.466-13.238-12.951-20.456-14.316c-2.209-0.417-5.328-0.657-8.556-0.657
		c-4.726,0-13.835,0.521-21.768,4.009c-7.398,3.255-12.432,7.563-16.11,10.709c-1.696,1.454-3.161,2.707-4.471,3.529
		c-2.95,1.857-5.322,2.686-7.69,2.686c-1.273,0-2.535-0.244-3.862-0.748c-1.971-0.745-6.167-4.2-10.224-7.539
		c-3.231-2.663-7.256-5.975-8.049-5.976c-0.026,0.005-0.056,0.008-0.081,0.008c-0.034,0-0.808,0.005-1.248,0.494
		c-0.253,0.28-0.354,0.684-0.302,1.199l0.023,0.238c0.154,1.617,0.474,4.979,5.929,13.708c2.973,4.758-1.534,10.59-4.227,14.076
		c-0.785,1.018-1.463,1.896-1.715,2.438C41.78,118.801,41.61,120.351,42.143,121.188z M140.647,96.73
		c-0.072-0.852,0.562-1.604,1.414-1.674c0.854-0.073,1.604,0.56,1.677,1.414c0.073,0.854-0.562,1.603-1.415,1.677
		C141.47,98.217,140.72,97.583,140.647,96.73z"/>
</g>
</svg>
