<?xml version="1.0" encoding="utf-8"?>
<!-- Generator: Adobe Illustrator 16.0.0, SVG Export Plug-In . SVG Version: 6.00 Build 0)  -->
<!DOCTYPE svg PUBLIC "-//W3C//DTD SVG 1.1//EN" "http://www.w3.org/Graphics/SVG/1.1/DTD/svg11.dtd">
<svg version="1.1" id="Layer_1" xmlns="http://www.w3.org/2000/svg" xmlns:xlink="http://www.w3.org/1999/xlink" x="0px" y="0px"
	 width="200px" height="200px" viewBox="0 0 200 200" enable-background="new 0 0 200 200" xml:space="preserve">
<g>
	<circle opacity="0.3" fill="#231F20" cx="100" cy="100" r="95"/>
	<path fill="#F4E536" d="M8.878,88.404l0.5,0.216l1.123-0.286c0.173-0.045,0.357-0.002,0.493,0.116
		c1.659,1.368,16.208,13.464,16.882,16.511c0.606,2.718,0.631,10.328-3.13,16.539c-0.146,0.587-0.819,3.256-0.976,3.723
		c-0.111,0.338-0.297,0.817-0.406,1.105l0.002,0.002c1.32-0.445,5.355-2.002,7.942-5.238c1.732-2.17,4.062-5.834,5.937-8.783
		c2.256-3.555,3.084-4.816,3.541-5.092c0.111-0.071,0.237-0.149,0.381-0.241c0.898-0.571,2.299-1.466,3.893-1.308
		c1.635,0.164,9.357,1.424,9.685,1.474c0.178,0.03,0.331,0.146,0.414,0.307l0.258,0.508l0.538,0.325h0.502
		c0.188,0,0.363,0.098,0.465,0.252l0.327,0.49c0.063,0.09,0.098,0.201,0.098,0.311v0.986c0.94-0.189,2.886-0.758,4.983-2.409
		c0.142-0.11,0.331-0.147,0.506-0.095c0.081,0.025,8.522,2.486,16.602,2.486c0.694,0,1.374-0.02,2.021-0.057
		c0.237-0.014,0.452,0.117,0.544,0.33c0.099,0.214,0.052,0.465-0.112,0.63l-0.82,0.817c-0.02,0.02-0.034,0.037-0.057,0.054
		c0.822,0.407,1.747,0.927,2.318,1.415c0.918,0.781,1.98,2.639,2.477,3.563l1.034-0.624c0.544-0.684,2.569-3.175,3.562-3.672
		c0.409-0.204,0.977-0.062,2.378,0.297c3.072,0.8,10.28,2.66,24.383,2.66c2.892,0,5.967-0.076,9.131-0.231
		c0.209-0.006,0.395,0.087,0.501,0.257c0.011,0.018,1.11,1.729,2.488,2.801c1.342,1.047,2.02,2.57,2.02,4.537
		c0,0.594-0.091,2.219-0.203,4.109c-0.135,2.355-0.288,5.025-0.288,6.199c0,0.237-0.008,0.527-0.017,0.857
		c-0.043,1.528-0.115,4.369,0.673,5.18c0.119,0.121,0.248,0.178,0.41,0.178c0.229,0,0.634-0.104,1.312-0.607
		c2.611-1.961,7.397-7.689,10.089-24.026c0.044-0.252,0.248-0.446,0.508-0.468c8.931-0.738,31.946-3.561,35.37-7.961
		c-0.225-0.123-0.43-0.285-0.61-0.439c-0.317,0.432-0.748,0.975-1.084,1.201c-0.097,0.059-0.203,0.092-0.314,0.092
		c-0.046,0-0.097-0.007-0.146-0.02c-0.154-0.043-0.283-0.146-0.358-0.289c-0.232-0.477-0.528-0.953-0.777-1.341
		c-0.583,1.31-0.835,1.483-0.925,1.551c-0.124,0.085-0.285,0.118-0.435,0.087s-0.279-0.118-0.364-0.246
		c-0.393-0.629-0.811-1.182-1.12-1.574c-0.286,0.434-0.689,0.949-1.189,1.271c-0.255,0.168-0.604,0.1-0.773-0.163
		c-0.17-0.257-0.101-0.604,0.162-0.774c0.556-0.361,1.058-1.246,1.204-1.555c0.083-0.169,0.242-0.285,0.429-0.312
		c0.188-0.029,0.373,0.041,0.497,0.18c0.03,0.033,0.595,0.664,1.249,1.586c0.197-0.407,0.428-0.943,0.619-1.419
		c0.077-0.188,0.249-0.321,0.451-0.349c0.2-0.027,0.403,0.06,0.522,0.223c0.03,0.039,0.576,0.766,1.09,1.648
		c0.229-0.283,0.497-0.647,0.708-0.967c0.093-0.144,0.25-0.238,0.422-0.254c0.173-0.013,0.344,0.057,0.464,0.183
		c0.372,0.409,0.895,0.8,1.077,0.806c0.009,0,0.018,0.002,0.026,0.002c0.005,0,0.01-0.003,0.014-0.003
		c0.015,0,0.034,0.003,0.054,0.005c0.007,0,0.014,0,0.02,0.001c0.002,0.001,0.003,0,0.005,0.001
		c0.011,0.001,1.083,0.153,1.698,0.158c1.092-0.193,8.273-3.529,9.351-4.642c-1.336-1.035-10.145-3.583-19.083-5.211
		c-9.341-1.694-31.853-3.68-36.921-4.083c-0.792-0.06-1.558-0.112-2.289-0.163c-5.089-0.344-9.103-0.613-11.689-3.809
		c-3.635-4.49-9.786-11.377-11.81-11.917c-0.741-0.193-1.286-0.106-1.633,0.292c-0.475,0.539-0.638,1.64-0.453,3.02
		c0.087,0.626,0.279,1.511,0.481,2.449c0.796,3.696,1.272,6.39,0.151,7.376c-0.16,0.14-0.326,0.293-0.501,0.454
		c-1.292,1.191-3.059,2.825-6.67,3.28c-0.352,0.04-0.933,0.124-1.691,0.231c-0.019,0.003-0.036,0.004-0.054,0.005
		c-0.072,0.004-0.14,0.006-0.215,0.006h-0.001c-3.519,0-8.859-4.454-12.049-7.114c-0.859-0.717-1.604-1.333-1.911-1.515
		c-0.8-0.479-1.982-1.109-3.006-1.109c-0.389,0-0.721,0.091-0.997,0.284c-0.729,0.508-0.381,1.984-0.148,2.966
		c0.037,0.155,0.066,0.301,0.096,0.433c0.17,0.798,0.906,7.015-1.059,8.189c-1.081,0.65-2.139,1.036-3.679,1.356
		C67.49,97.891,63.604,98.44,63,98.44c-0.935,0-1.67-0.604-2.316-1.14c-0.426-0.35-0.86-0.713-1.166-0.713
		c-0.052,0-0.144,0.012-0.271,0.105c-0.523,0.395-0.581,0.835-0.631,1.256c-0.049,0.373-0.149,1.151-1.017,1.151
		c-0.452,0-1.537,0.526-2.164,0.901c-0.058,0.032-0.13,0.059-0.198,0.07c-0.352,0.056-8.55,1.317-10.346,1.479
		c-0.526,0.05-0.965,0.077-1.383,0.077c-1.261,0-2.216-0.325-3.408-1.159c-0.262-0.182-0.679-0.5-1.249-0.943
		c-3.154-2.417-10.527-8.083-17.097-10.274l-0.28-0.089c-4.172-1.397-7.474-2.492-9.69-2.492
		C10.237,86.67,9.345,87.195,8.878,88.404z M174.944,100.238c0-0.858,0.689-1.554,1.548-1.554c0.857,0,1.555,0.696,1.555,1.554
		s-0.697,1.547-1.555,1.547C175.634,101.785,174.944,101.096,174.944,100.238z"/>
</g>
</svg>
