<?xml version="1.0" encoding="utf-8"?>
<!-- Generator: Adobe Illustrator 16.0.0, SVG Export Plug-In . SVG Version: 6.00 Build 0)  -->
<!DOCTYPE svg PUBLIC "-//W3C//DTD SVG 1.1//EN" "http://www.w3.org/Graphics/SVG/1.1/DTD/svg11.dtd">
<svg version="1.1" id="Layer_1" xmlns="http://www.w3.org/2000/svg" xmlns:xlink="http://www.w3.org/1999/xlink" x="0px" y="0px"
	 width="200px" height="200px" viewBox="150 150 200 200" enable-background="new 150 150 200 200" xml:space="preserve">
<path fill="#F5E636" d="M155,229.825l0.522,0.223l1.17-0.294c0.18-0.046,0.372-0.002,0.516,0.117
	c1.728,1.427,16.896,14.039,17.601,17.215c0.63,2.837,0.654,10.767-3.266,17.243c-0.153,0.612-0.851,3.394-1.015,3.882
	c-0.118,0.354-0.312,0.854-0.428,1.151l0.002,0.003c1.38-0.463,5.586-2.088,8.282-5.459c1.809-2.261,4.236-6.084,6.188-9.155
	c2.354-3.705,3.22-5.027,3.692-5.312c0.119-0.071,0.251-0.156,0.396-0.249c0.937-0.6,2.397-1.533,4.059-1.367
	c1.703,0.171,9.759,1.484,10.101,1.54c0.186,0.03,0.346,0.148,0.43,0.316l0.266,0.53l0.567,0.34h0.518
	c0.196,0,0.379,0.098,0.487,0.261l0.343,0.512c0.064,0.097,0.099,0.21,0.099,0.325v1.025c0.984-0.197,3.014-0.788,5.194-2.508
	c0.15-0.118,0.347-0.155,0.529-0.102c0.088,0.026,8.885,2.592,17.307,2.592c0.724,0,1.434-0.02,2.11-0.058
	c0.245-0.013,0.468,0.124,0.566,0.346c0.1,0.222,0.052,0.481-0.119,0.654l-0.853,0.854c-0.02,0.02-0.04,0.037-0.062,0.054
	c0.859,0.429,1.822,0.965,2.417,1.476c0.956,0.818,2.063,2.753,2.581,3.716l1.081-0.648c0.565-0.712,2.675-3.311,3.713-3.829
	c0.426-0.213,1.021-0.064,2.478,0.312c3.207,0.83,10.719,2.773,25.421,2.773c3.019,0,6.223-0.083,9.523-0.246
	c0.217-0.006,0.41,0.094,0.523,0.271c0.011,0.019,1.156,1.804,2.595,2.922c1.396,1.086,2.104,2.677,2.104,4.728
	c0,0.616-0.099,2.315-0.212,4.283c-0.141,2.455-0.302,5.238-0.302,6.464c0,0.246-0.008,0.55-0.017,0.895
	c-0.043,1.591-0.123,4.552,0.703,5.4c0.124,0.128,0.256,0.185,0.426,0.185c0.236,0,0.663-0.11,1.364-0.636
	c2.725-2.043,7.715-8.016,10.521-25.045c0.044-0.265,0.263-0.466,0.53-0.488c9.31-0.769,33.308-3.711,36.877-8.301
	c-0.233-0.131-0.452-0.294-0.641-0.455c-0.326,0.448-0.778,1.014-1.13,1.248c-0.098,0.064-0.211,0.098-0.325,0.098
	c-0.05,0-0.101-0.006-0.15-0.02c-0.162-0.043-0.298-0.154-0.373-0.304c-0.247-0.494-0.552-0.992-0.814-1.394
	c-0.606,1.363-0.867,1.545-0.963,1.612c-0.132,0.092-0.296,0.125-0.451,0.094c-0.156-0.031-0.293-0.125-0.379-0.261
	c-0.415-0.652-0.848-1.228-1.173-1.636c-0.294,0.449-0.719,0.987-1.234,1.325c-0.271,0.177-0.634,0.101-0.812-0.17
	c-0.177-0.271-0.101-0.634,0.17-0.811c0.578-0.378,1.104-1.295,1.257-1.617c0.084-0.176,0.251-0.299,0.444-0.328
	c0.195-0.029,0.389,0.042,0.52,0.187c0.031,0.035,0.624,0.694,1.303,1.654c0.204-0.422,0.448-0.981,0.648-1.479
	c0.078-0.197,0.257-0.335,0.467-0.364c0.208-0.028,0.418,0.06,0.545,0.229c0.03,0.04,0.6,0.803,1.135,1.724
	c0.243-0.298,0.52-0.677,0.739-1.011c0.1-0.151,0.264-0.248,0.443-0.262c0.18-0.013,0.357,0.057,0.479,0.189
	c0.388,0.426,0.934,0.832,1.124,0.838c0.008,0,0.017,0.001,0.025,0.001c0.005,0,0.01-0.002,0.015-0.002
	c0.02,0,0.04,0.002,0.06,0.004c0.007,0.001,0.014,0.001,0.021,0.001c0.001,0,0.003,0,0.004,0c0.012,0.001,1.129,0.162,1.768,0.166
	c1.144-0.201,8.629-3.68,9.751-4.838c-1.396-1.081-10.575-3.735-19.894-5.432c-9.741-1.769-33.209-3.838-38.495-4.256
	c-0.823-0.065-1.619-0.119-2.387-0.171c-5.303-0.359-9.49-0.643-12.184-3.968c-3.792-4.686-10.202-11.862-12.316-12.425
	c-0.771-0.207-1.338-0.113-1.7,0.301c-0.491,0.561-0.662,1.708-0.47,3.148c0.088,0.655,0.287,1.578,0.498,2.554
	c0.833,3.854,1.331,6.662,0.159,7.688c-0.169,0.147-0.342,0.307-0.524,0.477c-1.345,1.243-3.188,2.946-6.951,3.416
	c-0.366,0.046-0.971,0.131-1.767,0.246c-0.019,0.003-0.036,0.004-0.054,0.006c-0.073,0.004-0.147,0.006-0.223,0.006h-0.002
	c-3.669,0-9.236-4.644-12.562-7.417c-0.897-0.748-1.672-1.393-1.99-1.582c-0.836-0.496-2.069-1.156-3.132-1.156
	c-0.411,0-0.752,0.098-1.042,0.299c-0.759,0.525-0.397,2.067-0.157,3.088c0.039,0.163,0.074,0.315,0.104,0.454
	c0.177,0.83,0.943,7.312-1.104,8.538c-1.126,0.674-2.229,1.081-3.838,1.41c-8.864,1.341-12.915,1.913-13.545,1.913
	c-0.973,0-1.738-0.633-2.414-1.192c-0.442-0.365-0.899-0.743-1.213-0.743c-0.058,0-0.15,0.012-0.285,0.112
	c-0.547,0.41-0.604,0.867-0.66,1.309c-0.049,0.389-0.152,1.197-1.057,1.197c-0.474,0-1.604,0.549-2.254,0.939
	c-0.065,0.039-0.138,0.065-0.212,0.077c-0.363,0.057-8.914,1.371-10.785,1.54c-0.55,0.05-1.004,0.083-1.438,0.083
	c-1.315,0-2.312-0.339-3.559-1.211c-0.27-0.189-0.703-0.522-1.302-0.982c-3.284-2.522-10.975-8.43-17.824-10.712l-0.288-0.096
	c-4.354-1.451-7.792-2.598-10.105-2.598C156.42,228.015,155.489,228.562,155,229.825z M328.382,241.91
	c0-0.756,0.611-1.367,1.367-1.367c0.755,0,1.367,0.611,1.367,1.367c0,0.755-0.612,1.367-1.367,1.367
	C328.993,243.277,328.382,242.665,328.382,241.91z"/>
</svg>
