<?xml version="1.0" encoding="utf-8"?>
<!-- Generator: Adobe Illustrator 16.0.0, SVG Export Plug-In . SVG Version: 6.00 Build 0)  -->
<!DOCTYPE svg PUBLIC "-//W3C//DTD SVG 1.1//EN" "http://www.w3.org/Graphics/SVG/1.1/DTD/svg11.dtd">
<svg version="1.1" id="Layer_1" xmlns="http://www.w3.org/2000/svg" xmlns:xlink="http://www.w3.org/1999/xlink" x="0px" y="0px"
	 width="100px" height="100px" viewBox="0 0 100 100" enable-background="new 0 0 100 100" xml:space="preserve">
<path fill="#F5E636" d="M83.604,16.394C74.627,7.42,62.693,2.478,49.999,2.478c-12.693,0-24.628,4.942-33.604,13.916
	c-18.527,18.531-18.527,48.682,0,67.212c8.976,8.975,20.91,13.916,33.604,13.916c12.694,0,24.628-4.941,33.604-13.916
	C102.132,65.076,102.132,34.925,83.604,16.394z M72.839,21.496c1.562-1.562,4.095-1.563,5.657,0c1.562,1.561,1.562,4.095,0,5.657
	c-1.562,1.562-4.095,1.561-5.657-0.001C71.277,25.59,71.277,23.057,72.839,21.496z M50,9.71c2.209,0,4,1.791,4,4s-1.791,4-4,4
	s-4-1.791-4-4S47.791,9.71,50,9.71z M13.732,54.021c-2.209,0-4-1.791-4-4s1.791-4,4-4s4,1.791,4,4S15.941,54.022,13.732,54.021z
	 M21.518,21.526c1.562-1.562,4.095-1.562,5.656,0c1.562,1.562,1.562,4.095,0,5.657c-1.562,1.562-4.095,1.562-5.656,0
	C19.955,25.621,19.955,23.088,21.518,21.526z M27.205,78.504c-1.562,1.562-4.095,1.562-5.656,0c-1.562-1.562-1.562-4.095,0-5.657
	c1.562-1.562,4.095-1.562,5.656,0C28.768,74.41,28.768,76.942,27.205,78.504z M50.044,90.29c-2.209,0.001-4-1.791-4-4
	c0-2.208,1.791-4,4-4c2.209,0,4,1.791,4,4C54.044,88.499,52.253,90.29,50.044,90.29z M50.001,75C36.216,75,25,63.786,25,50
	c0-13.784,11.216-25,25.001-25S75,36.215,75,50C75,63.786,63.786,75,50.001,75z M78.526,78.474c-1.562,1.562-4.095,1.562-5.657,0
	c-1.562-1.562-1.562-4.095,0.001-5.657c1.562-1.562,4.095-1.562,5.656,0C80.088,74.378,80.089,76.912,78.526,78.474z M86.312,53.979
	c-2.208,0-3.999-1.792-3.999-4.001c0-2.208,1.791-4,3.999-4c2.209,0,4.001,1.791,4,4C90.312,52.188,88.521,53.979,86.312,53.979z"/>
</svg>
