<?xml version="1.0" encoding="utf-8"?>
<!-- Generator: Adobe Illustrator 16.0.0, SVG Export Plug-In . SVG Version: 6.00 Build 0)  -->
<!DOCTYPE svg PUBLIC "-//W3C//DTD SVG 1.1//EN" "http://www.w3.org/Graphics/SVG/1.1/DTD/svg11.dtd">
<svg version="1.1" id="Layer_1" xmlns="http://www.w3.org/2000/svg" xmlns:xlink="http://www.w3.org/1999/xlink" x="0px" y="0px"
	 width="500px" height="230px" viewBox="0 0 500 230" enable-background="new 0 0 500 230" xml:space="preserve">
<g opacity="0.5">
	<path fill="#F8BBCF" d="M108.277,87.568l1.156-1.119l-0.865-0.633c-1.128-0.826-5.141-3.844-9.44-8.01l-1.374-1.342
		c-4.958-4.852-11.75-11.492-18.32-12.732c-1.986-0.375-4.769-0.592-7.636-0.592c-4.146,0-12.095,0.465-19.11,3.475L51.7,66.506
		c-0.42-0.049-0.952-0.086-1.577-0.086l-0.222,0.004c-1.588,0.029-4.048,0.32-6.753,1.572c-4.463,2.062-12.425,8.861-12.704,12.186
		c-0.031,0.354,0.024,0.641,0.116,0.873c-1.901,0.586-3.597,0.482-5.493-0.232c-1.584-0.602-5.349-3.701-8.671-6.436
		c-5.341-4.398-6.764-5.416-7.669-5.416c-0.001,0-0.002,0-0.003,0c-0.184,0-1.134,0.037-1.759,0.729
		c-0.275,0.305-0.584,0.855-0.494,1.738l0.021,0.215c0.143,1.48,0.439,4.561,5.309,12.355c2.26,3.619-1.43,8.398-3.651,11.273
		c-0.742,0.961-1.328,1.717-1.589,2.283c-0.857,1.844-0.981,3.48-0.338,4.49c0.392,0.607,1.034,0.943,1.808,0.943
		c0.534,0,1.117-0.156,1.735-0.461c3.603-1.797,6.917-4.025,9.879-6.016c3.417-2.303,6.368-4.291,8.387-4.598
		c0.995-0.15,2.316-0.055,4.085,0.275c0.015,2.256,1.931,4.453,4.63,5.266c0.873,0.258,2.639,0.387,5.396,0.387
		c2.519,0,5.341-0.107,7.266-0.199l2.362-0.109c1.202,0.229,2.33,0.432,3.386,0.594c0.164,0.029,0.31,0.043,0.47,0.066l0.238,0.363
		c0.213,0.328,0.289,0.836,0.357,1.291c0.152,1,0.382,2.512,2.287,2.512c0.115,0,0.238-0.006,0.37-0.016
		c6.53-0.557,12.072-2.508,14.794-3.619l1.729-0.709c6.006-0.422,24.968-2.199,32.879-8.047c0.716-0.525,1-1.064,0.849-1.572
		C109.019,87.996,108.667,87.734,108.277,87.568z"/>
	<path fill="#F8BBCF" d="M267.4,29.178l1.066-1.035l-0.865-0.633c-1.046-0.762-4.77-3.553-8.822-7.48l-1.282-1.252
		c-4.644-4.543-11.003-10.766-17.166-11.93c-1.857-0.352-4.464-0.553-7.152-0.553c-3.876,0-11.303,0.434-17.869,3.244l-0.925-0.1
		c-0.395-0.041-0.892-0.078-1.477-0.078l-0.209,0.004c-1.489,0.023-3.798,0.303-6.338,1.473
		c-4.186,1.938-11.653,8.324-11.916,11.449c-0.026,0.309,0.021,0.559,0.095,0.775c-1.75,0.523-3.313,0.428-5.043-0.229
		c-1.472-0.559-4.99-3.455-8.093-6.01c-5.002-4.119-6.342-5.078-7.205-5.078c-0.002,0-0.005,0-0.007,0
		c-0.176,0-1.089,0.035-1.688,0.705c-0.265,0.287-0.562,0.818-0.477,1.67l0.019,0.197c0.132,1.389,0.409,4.273,4.974,11.58
		c2.091,3.352-1.343,7.799-3.399,10.463c-0.673,0.869-1.255,1.621-1.505,2.158c-0.81,1.744-0.924,3.295-0.313,4.258
		c0.376,0.588,0.995,0.912,1.742,0.912c0.509,0,1.064-0.15,1.649-0.443c3.381-1.68,6.491-3.771,9.245-5.627
		c3.324-2.236,5.949-4.008,7.819-4.285c0.946-0.145,2.258-0.031,3.757,0.232c0.033,2.119,1.833,4.18,4.367,4.943
		c0.822,0.246,2.479,0.363,5.066,0.363c2.343,0,4.99-0.098,6.795-0.184l2.211-0.102c1.119,0.215,2.171,0.4,3.153,0.555
		c0.145,0.02,0.274,0.035,0.417,0.057l0.205,0.312c0.193,0.303,0.263,0.771,0.325,1.184c0.144,0.957,0.362,2.404,2.199,2.404
		c0.108,0,0.224-0.008,0.349-0.02c6.114-0.52,11.304-2.346,13.854-3.387l1.606-0.658c5.627-0.395,23.358-2.053,30.775-7.537
		c0.257-0.189,1.032-0.764,0.812-1.531C268.047,29.588,267.75,29.342,267.4,29.178z"/>
	<path fill="#F8BBCF" d="M323.597,131.824l1.414-1.371l-0.864-0.633c-1.334-0.975-6.086-4.547-11.199-9.502l-1.631-1.59
		c-5.858-5.729-13.879-13.574-21.604-15.035c-2.343-0.441-5.629-0.695-9.013-0.695c-4.904,0-14.316,0.545-22.608,4.117l-1.219-0.135
		c-0.487-0.055-1.1-0.096-1.819-0.096l-0.283,0.004c-1.865,0.031-4.753,0.377-7.932,1.844c-5.253,2.426-14.624,10.408-14.95,14.295
		c-0.038,0.426,0.066,0.781,0.233,1.102c-2.375,0.781-4.478,0.686-6.825-0.201c-1.899-0.719-6.371-4.402-10.316-7.648
		c-6.207-5.115-7.959-6.375-8.973-6.375c-0.002,0-0.005,0-0.007,0c-0.206,0-1.27,0.039-1.959,0.807
		c-0.303,0.334-0.643,0.939-0.544,1.934l0.024,0.254c0.167,1.74,0.516,5.361,6.263,14.555c2.736,4.383-1.674,10.1-4.317,13.525
		c-0.843,1.088-1.569,2.027-1.88,2.688c-0.989,2.135-1.139,4.016-0.41,5.164c0.431,0.67,1.141,1.041,2.001,1.041
		c0.605,0,1.272-0.18,1.98-0.533c4.242-2.109,8.152-4.738,11.682-7.109c4.233-2.854,7.578-5.104,9.996-5.469
		c1.253-0.186,2.95-0.049,5.022,0.34c-0.069,2.648,2.19,5.268,5.376,6.225c1.019,0.305,3.094,0.453,6.343,0.453
		c2.98,0,6.321-0.129,8.598-0.236l2.815-0.131c1.43,0.275,2.771,0.51,4.026,0.705c0.219,0.035,0.416,0.057,0.632,0.09l0.317,0.486
		c0.272,0.422,0.366,1.045,0.449,1.596c0.18,1.199,0.428,2.836,2.547,2.836c0.13,0,0.269-0.01,0.421-0.018
		c7.724-0.658,14.263-2.961,17.474-4.277l2.064-0.846c7.062-0.496,29.532-2.582,38.888-9.5c0.29-0.215,1.17-0.865,0.942-1.686
		C324.61,132.289,324.111,131.998,323.597,131.824z"/>
	<path fill="#F8BBCF" d="M443.799,75.781l1.572-1.525l-0.865-0.631c-1.456-1.064-6.638-4.957-12.239-10.389l-1.775-1.729
		c-6.389-6.252-15.141-14.812-23.56-16.406c-2.556-0.48-6.138-0.756-9.829-0.756c-5.354,0-15.627,0.592-24.669,4.49l-1.362-0.143
		c-0.531-0.059-1.194-0.104-1.972-0.104l-0.314,0.002c-2.028,0.037-5.172,0.41-8.628,2.008c-5.723,2.646-15.926,11.324-16.28,15.545
		c-0.043,0.484,0.084,0.883,0.293,1.242c-2.655,0.889-4.995,0.801-7.607-0.189c-2.084-0.791-6.975-4.814-11.289-8.365
		c-6.765-5.576-8.669-6.945-9.746-6.945c-0.215-0.025-1.346,0.029-2.088,0.854c-0.318,0.354-0.676,0.996-0.57,2.045l0.026,0.279
		c0.182,1.895,0.562,5.838,6.827,15.863c3.02,4.836-1.819,11.105-4.72,14.865c-0.917,1.186-1.71,2.207-2.044,2.92
		c-1.067,2.305-1.232,4.33-0.452,5.559c0.321,0.502,0.951,1.1,2.116,1.1c0.648,0,1.364-0.195,2.125-0.572
		c4.651-2.318,8.94-5.201,12.75-7.762c4.632-3.121,8.289-5.588,10.952-5.986c1.349-0.205,3.107-0.074,5.578,0.398v0.047
		c-0.081,2.861,2.364,5.691,5.812,6.727c1.105,0.328,3.362,0.49,6.902,0.49c3.239,0,6.896-0.141,9.39-0.258l3.088-0.141
		c1.473,0.279,2.868,0.529,4.246,0.734l0.151,0.037c0.255,0.037,0.48,0.066,0.729,0.102l0.369,0.564
		c0.31,0.479,0.412,1.166,0.502,1.777c0.192,1.275,0.457,3.025,2.699,3.025c0.14,0,0.291-0.008,0.454-0.021
		c8.426-0.717,15.557-3.23,19.057-4.664l2.269-0.93c7.715-0.539,32.243-2.818,42.443-10.361c0.306-0.227,1.234-0.916,0.995-1.754
		C444.979,76.264,444.382,75.953,443.799,75.781z"/>
	<path fill="#F8BBCF" d="M493.173,155.867l1.011-0.979l-0.867-0.633c-0.992-0.723-4.532-3.381-8.385-7.111l-1.22-1.188
		c-4.417-4.324-10.463-10.242-16.339-11.355c-1.767-0.334-4.248-0.523-6.808-0.523c-3.688,0-10.75,0.414-16.996,3.086l-0.868-0.098
		c-0.374-0.037-0.846-0.074-1.4-0.074l-0.207,0.004c-1.418,0.025-3.619,0.287-6.045,1.406c-3.986,1.846-11.103,7.938-11.354,10.916
		c-0.024,0.285,0.018,0.512,0.082,0.713c-1.629,0.48-3.09,0.389-4.725-0.227c-1.388-0.525-4.724-3.271-7.683-5.707
		c-4.764-3.924-6.046-4.836-6.877-4.836c-0.174-0.008-1.057,0.021-1.646,0.68c-0.257,0.285-0.548,0.797-0.464,1.621l0.018,0.193
		c0.128,1.324,0.394,4.082,4.735,11.027c1.972,3.156-1.282,7.369-3.25,9.92c-0.658,0.852-1.18,1.525-1.417,2.035
		c-0.786,1.699-0.89,3.15-0.293,4.09c0.368,0.574,0.968,0.887,1.692,0.887c0.492,0,1.027-0.143,1.589-0.422
		c3.205-1.598,6.152-3.578,8.795-5.352c3.027-2.043,5.646-3.803,7.412-4.072c0.887-0.127,2.144-0.023,3.526,0.215
		c0.053,2.025,1.766,3.982,4.179,4.703c0.789,0.236,2.367,0.354,4.831,0.354c2.234,0,4.748-0.096,6.463-0.176l2.09-0.1
		c1.063,0.205,2.064,0.381,2.999,0.525c0.131,0.021,0.248,0.037,0.379,0.055l0.184,0.281c0.176,0.273,0.243,0.715,0.3,1.111
		c0.133,0.865,0.352,2.316,2.138,2.316c0.103,0,0.214-0.002,0.334-0.014c5.829-0.498,10.764-2.236,13.185-3.227l1.517-0.621
		c5.355-0.377,22.218-1.957,29.278-7.176c0.666-0.492,0.932-1.002,0.788-1.502C493.758,156.262,493.487,156.025,493.173,155.867z"/>
	<path fill="#F8BBCF" d="M300.136,207.662l1.217-1.178l-0.867-0.631c-1.167-0.855-5.331-3.979-9.852-8.365l-1.435-1.395
		c-5.168-5.055-12.247-11.98-19.089-13.273c-2.067-0.391-4.968-0.615-7.958-0.615c-4.319,0-12.604,0.484-19.916,3.621l-1.059-0.111
		c-0.433-0.047-0.979-0.086-1.618-0.086h-0.248c-1.652,0.029-4.211,0.336-7.03,1.637c-4.648,2.148-12.939,9.223-13.231,12.68
		c-0.032,0.385,0.031,0.688,0.135,0.936c-2.009,0.627-3.797,0.523-5.795-0.236c-1.656-0.625-5.588-3.861-9.056-6.715
		c-5.559-4.58-7.042-5.645-7.973-5.645c-0.174-0.02-1.167,0.029-1.812,0.75c-0.281,0.312-0.597,0.873-0.505,1.783l0.021,0.223
		c0.148,1.541,0.456,4.75,5.532,12.871c2.372,3.795-1.487,8.795-3.801,11.793c-0.777,1.006-1.391,1.799-1.664,2.385
		c-0.887,1.912-1.018,3.604-0.355,4.65c0.401,0.623,1.059,0.965,1.854,0.965c0.551,0,1.154-0.158,1.792-0.48
		c3.754-1.869,7.209-4.189,10.301-6.268c3.718-2.506,6.655-4.484,8.762-4.801c1.079-0.158,2.54-0.043,4.306,0.285
		c-0.006,2.35,1.99,4.646,4.805,5.494c0.907,0.268,2.744,0.402,5.617,0.402c2.621,0,5.567-0.113,7.578-0.207l2.471-0.113
		c1.254,0.24,2.433,0.449,3.533,0.617c0.177,0.027,0.336,0.047,0.511,0.07l0.254,0.393c0.228,0.35,0.308,0.887,0.378,1.359
		c0.156,1.031,0.392,2.592,2.351,2.592c0.117,0,0.244-0.004,0.38-0.02c6.814-0.578,12.588-2.611,15.421-3.773l1.807-0.736
		c6.248-0.439,26.033-2.285,34.291-8.387c0.269-0.203,1.092-0.811,0.867-1.604C300.938,208.096,300.555,207.832,300.136,207.662z"/>
	<path fill="#F8BBCF" d="M133.395,181.832l0.886-0.861l-0.868-0.633c-0.878-0.641-4.014-2.988-7.448-6.318l-1.087-1.059
		c-3.941-3.859-9.338-9.137-14.593-10.131c-1.582-0.299-3.798-0.471-6.079-0.471c-3.282,0-9.566,0.367-15.134,2.744l-0.754-0.082
		c-0.333-0.035-0.75-0.064-1.239-0.064h-0.202c-1.271,0.021-3.244,0.26-5.419,1.262c-3.568,1.65-9.937,7.111-10.163,9.797
		c-0.02,0.221,0.006,0.404,0.046,0.572c-1.388,0.389-2.646,0.305-4.046-0.227c-1.229-0.463-4.193-2.906-6.808-5.059
		c-4.314-3.555-5.408-4.328-6.188-4.328c-0.234-0.027-0.985,0.025-1.535,0.637c-0.244,0.268-0.517,0.752-0.424,1.691
		c0.115,1.188,0.354,3.658,4.229,9.857c1.718,2.752-1.151,6.465-2.879,8.707c-0.593,0.768-1.062,1.377-1.279,1.838
		c-0.714,1.545-0.805,2.869-0.254,3.74c0.343,0.535,0.909,0.832,1.59,0.832c0.453,0,0.943-0.129,1.457-0.389
		c2.868-1.428,5.5-3.195,7.839-4.768c2.798-1.885,5.009-3.377,6.562-3.605c0.736-0.113,1.717-0.041,3.026,0.191
		c0.101,1.809,1.636,3.537,3.784,4.184c0.453,0.133,1.394,0.312,4.327,0.312c1.998,0,4.233-0.082,5.757-0.152l1.846-0.09
		c0.862,0.166,1.686,0.311,2.525,0.438l0.139,0.031c0.103,0.016,0.193,0.025,0.293,0.039l0.138,0.213
		c0.147,0.229,0.204,0.611,0.254,0.951c0.122,0.801,0.325,2.146,1.998,2.146c0.095,0,0.197-0.006,0.308-0.014
		c5.207-0.445,9.605-1.996,11.763-2.879l1.333-0.545c4.79-0.34,19.802-1.752,26.095-6.402c0.634-0.469,0.882-0.959,0.739-1.451
		C133.848,182.191,133.646,181.98,133.395,181.832z"/>
</g>
</svg>
