<?xml version="1.0" encoding="utf-8"?>
<!-- Generator: Adobe Illustrator 16.0.0, SVG Export Plug-In . SVG Version: 6.00 Build 0)  -->
<!DOCTYPE svg PUBLIC "-//W3C//DTD SVG 1.1//EN" "http://www.w3.org/Graphics/SVG/1.1/DTD/svg11.dtd">
<svg version="1.1" id="Layer_1" xmlns="http://www.w3.org/2000/svg" xmlns:xlink="http://www.w3.org/1999/xlink" x="0px" y="0px"
	 width="400px" height="400px" viewBox="-100 -100 400 400" enable-background="new -100 -100 400 400" xml:space="preserve">
<g>
	<path fill="#87D3E3" d="M32.985,152.521h134.03c18.954-11.361,34.834-27.458,45.932-46.569
		c11.494-19.793,17.567-42.42,17.567-65.44C230.511-31.452,171.967-90,100.001-90C28.034-90-30.511-31.452-30.511,40.513
		c0,23.019,6.074,45.646,17.563,65.438C-1.85,125.059,14.028,141.154,32.985,152.521z M44.842-14.647
		c14.735-14.729,34.323-22.842,55.156-22.842s40.425,8.112,55.158,22.842c30.409,30.415,30.409,79.902,0,110.319
		c-14.733,14.731-34.325,22.844-55.158,22.844s-40.421-8.114-55.156-22.844C14.431,65.255,14.431,15.768,44.842-14.647z"/>
	<path fill="#87D3E3" d="M197.985,263.977c0.545-0.377,1.295-0.24,1.672,0.305c4.895,7.07,6.827,30.267,7.225,35.719h70.01
		c-0.284-29.152-10.889-57.209-30.722-81.21c-19.348-23.408-46.168-41.512-77.631-52.454v8.255c0,0.661-0.537,1.198-1.199,1.198
		H32.656c-0.661,0-1.203-0.537-1.203-1.198v-8.255c-31.455,10.942-58.277,29.041-77.621,52.45
		c-19.835,24.003-30.438,52.058-30.724,81.212h76.844c0.393-5.454,2.327-28.648,7.223-35.721c0.381-0.545,1.13-0.682,1.672-0.303
		c0.549,0.379,0.684,1.126,0.305,1.67c-4.444,6.418-6.373,28.765-6.788,34.352h202.104c-0.417-5.587-2.341-27.934-6.787-34.352
		C197.304,265.104,197.44,264.355,197.985,263.977z"/>
	<rect x="33.859" y="154.922" fill="#F5E636" width="132.278" height="18.47"/>
	<path fill="#F5E636" d="M153.457-12.948c-14.28-14.276-33.264-22.14-53.459-22.14c-20.193,0-39.178,7.864-53.458,22.14
		c-29.471,29.477-29.471,77.445,0,106.921c14.28,14.278,33.265,22.143,53.458,22.143c20.195,0,39.179-7.864,53.459-22.143
		C182.932,64.493,182.932,16.529,153.457-12.948z M36.83,44.115c-1.993,0-3.606-1.615-3.606-3.604c0-1.988,1.615-3.602,3.606-3.602
		c1.992,0,3.604,1.615,3.6,3.602C40.434,42.502,38.818,44.115,36.83,44.115z M142.119-6.702c1.411-1.413,3.688-1.413,5.1,0
		c1.407,1.409,1.403,3.687-0.004,5.094c-1.411,1.409-3.688,1.409-5.096,0C140.712-3.015,140.712-5.296,142.119-6.702z
		 M99.998-26.264c1.994,0,3.602,1.613,3.602,3.608c0,1.989-1.611,3.604-3.602,3.604s-3.604-1.615-3.604-3.608
		C96.395-24.65,98.008-26.264,99.998-26.264z M52.784-6.702c1.404-1.413,3.688-1.409,5.093,0c1.407,1.409,1.405,3.688,0,5.094
		c-1.409,1.407-3.688,1.407-5.093,0C51.375-3.015,51.375-5.296,52.784-6.702z M57.881,87.726c-1.413,1.407-3.692,1.407-5.097,0
		c-1.414-1.407-1.409-3.686,0.002-5.091c1.407-1.409,3.686-1.409,5.095,0C59.284,84.04,59.284,86.318,57.881,87.726z
		 M99.998,107.286c-1.99,0-3.604-1.611-3.604-3.604c0-1.988,1.613-3.604,3.604-3.604c1.994,0,3.602,1.615,3.602,3.604
		C103.6,105.675,101.992,107.286,99.998,107.286z M147.219,87.726c-1.411,1.407-3.692,1.407-5.096,0
		c-1.411-1.407-1.411-3.686,0-5.091c1.407-1.407,3.685-1.407,5.096,0C148.622,84.04,148.622,86.318,147.219,87.726z M99.998,89.628
		c-27.083,0-49.116-22.031-49.116-49.117c0-27.081,22.033-49.115,49.116-49.115s49.117,22.034,49.117,49.115
		C149.115,67.597,127.081,89.628,99.998,89.628z M163.167,44.115c-1.993,0-3.604-1.613-3.604-3.603c0-1.986,1.611-3.602,3.604-3.602
		c1.996,0,3.604,1.615,3.604,3.602C166.771,42.502,165.159,44.115,163.167,44.115z"/>
	<path fill="#FFFFFF" d="M146.108,32.565c-3.189-18.592-17.111-32.978-34.612-37.41c-3.645,7.425-10.344,16.88-23.009,23.587
		c-15.864,8.4-26.963,18.669-34.729,28.659c2.788,18.796,16.504,33.465,33.93,38.231c3.281-6.603,10.069-16.054,23.856-23.355
		C122.33,56.565,135.283,47.27,146.108,32.565z"/>
</g>
</svg>
