<?xml version="1.0" encoding="utf-8"?>
<!-- Generator: Adobe Illustrator 16.0.0, SVG Export Plug-In . SVG Version: 6.00 Build 0)  -->
<!DOCTYPE svg PUBLIC "-//W3C//DTD SVG 1.1//EN" "http://www.w3.org/Graphics/SVG/1.1/DTD/svg11.dtd">
<svg version="1.1" id="Layer_1" xmlns="http://www.w3.org/2000/svg" xmlns:xlink="http://www.w3.org/1999/xlink" x="0px" y="0px"
	 width="200px" height="200px" viewBox="150 150 200 200" enable-background="new 150 150 200 200" xml:space="preserve">
<g>
	<path fill="#87D3E3" d="M217.352,278.15h65.297c9.233-5.535,16.97-13.377,22.376-22.687c5.599-9.642,8.558-20.666,8.558-31.881
		C313.582,188.523,285.06,160,250,160s-63.582,28.523-63.582,63.583c0,11.214,2.959,22.238,8.557,31.88
		C200.381,264.772,208.116,272.613,217.352,278.15z M223.128,196.71c7.178-7.176,16.721-11.128,26.871-11.128
		s19.694,3.952,26.871,11.128c14.816,14.818,14.816,38.927,0,53.745c-7.177,7.177-16.721,11.129-26.871,11.129
		s-19.693-3.953-26.871-11.129C208.312,235.637,208.312,211.528,223.128,196.71z"/>
	<path fill="#87D3E3" d="M297.737,332.449c0.265-0.184,0.63-0.117,0.814,0.148c2.385,3.445,3.326,14.746,3.519,17.402h34.107
		c-0.138-14.202-5.305-27.871-14.967-39.564c-9.425-11.404-22.492-20.223-37.819-25.554v4.021c0,0.323-0.262,0.585-0.585,0.585
		h-65.615c-0.322,0-0.585-0.262-0.585-0.585v-4.021c-15.325,5.331-28.392,14.148-37.816,25.553
		c-9.663,11.693-14.829,25.361-14.968,39.564h37.437c0.191-2.657,1.134-13.957,3.519-17.402c0.185-0.266,0.55-0.333,0.814-0.148
		c0.267,0.185,0.333,0.549,0.148,0.814c-2.165,3.127-3.104,14.014-3.307,16.735h98.462c-0.203-2.722-1.142-13.609-3.307-16.735
		C297.405,332.998,297.471,332.634,297.737,332.449z"/>
	<rect x="217.777" y="279.321" fill="#F5E636" width="64.444" height="8.997"/>
	<path fill="#F5E636" d="M276.043,197.538c-6.957-6.955-16.206-10.786-26.044-10.786s-19.087,3.831-26.044,10.786
		c-14.358,14.361-14.358,37.729,0,52.09c6.957,6.956,16.206,10.787,26.044,10.787s19.087-3.831,26.044-10.787
		C290.403,235.266,290.403,211.899,276.043,197.538z M219.224,225.338c-0.97,0-1.756-0.787-1.756-1.756
		c0-0.969,0.787-1.755,1.756-1.755c0.971,0,1.757,0.787,1.755,1.755C220.98,224.552,220.194,225.338,219.224,225.338z
		 M270.52,200.581c0.686-0.688,1.797-0.688,2.483,0c0.686,0.686,0.684,1.796-0.002,2.482s-1.797,0.686-2.481,0
		C269.833,202.377,269.833,201.266,270.52,200.581z M249.999,191.051c0.971,0,1.755,0.786,1.755,1.757
		c0,0.97-0.786,1.756-1.755,1.756c-0.97,0-1.756-0.786-1.756-1.757C248.243,191.837,249.029,191.051,249.999,191.051z
		 M226.997,200.581c0.685-0.688,1.797-0.686,2.482,0c0.685,0.686,0.684,1.797,0,2.481c-0.687,0.686-1.798,0.686-2.482,0
		C226.31,202.377,226.31,201.266,226.997,200.581z M229.48,246.584c-0.688,0.686-1.799,0.686-2.483,0
		c-0.688-0.686-0.686-1.796,0.001-2.481c0.685-0.686,1.796-0.686,2.482,0C230.164,244.788,230.164,245.898,229.48,246.584z
		 M249.999,256.113c-0.97,0-1.756-0.785-1.756-1.755s0.786-1.757,1.756-1.757c0.971,0,1.755,0.787,1.755,1.757
		S250.97,256.113,249.999,256.113z M273.003,246.584c-0.687,0.686-1.798,0.686-2.482,0c-0.688-0.686-0.688-1.796,0-2.48
		c0.685-0.686,1.796-0.686,2.482,0C273.688,244.788,273.688,245.898,273.003,246.584z M249.999,247.511
		c-13.194,0-23.929-10.734-23.929-23.929c0-13.194,10.734-23.928,23.929-23.928s23.928,10.734,23.928,23.928
		C273.927,236.777,263.193,247.511,249.999,247.511z M280.774,225.338c-0.971,0-1.756-0.786-1.756-1.755
		c0-0.968,0.785-1.755,1.756-1.755s1.756,0.787,1.756,1.755C282.53,224.552,281.744,225.338,280.774,225.338z"/>
</g>
</svg>
