<?xml version="1.0" encoding="utf-8"?>
<!-- Generator: Adobe Illustrator 16.0.0, SVG Export Plug-In . SVG Version: 6.00 Build 0)  -->
<!DOCTYPE svg PUBLIC "-//W3C//DTD SVG 1.1//EN" "http://www.w3.org/Graphics/SVG/1.1/DTD/svg11.dtd">
<svg version="1.1" id="Layer_1" xmlns="http://www.w3.org/2000/svg" xmlns:xlink="http://www.w3.org/1999/xlink" x="0px" y="0px"
	 width="500px" height="498.316px" viewBox="0 0 500 498.316" enable-background="new 0 0 500 498.316" xml:space="preserve">
<g opacity="0.3">
	<path d="M9.647,87.456c4.596,2.087,9.368,4.229,17.176,2.229c7.456-1.949,23.666-11.282,25.562-17.984
		c0.807-2.875,0.086-5.437-0.545-7.719c-0.245-0.823-0.474-1.648-0.597-2.42c-0.631-3.755-0.964-6.562-1.367-9.845
		c-0.142-1.299-0.316-2.666-0.492-4.157c-0.912-7.121-2.315-13.807-3.789-20.894c-0.438-2.193-0.912-4.457-1.368-6.737
		c-0.562-2.843-1.387-5.613-2.175-8.315c-0.737-2.474-1.492-5.018-2.036-7.597c-0.227-1.054-0.474-2.456-0.613-4h-1.422
		c0.123,1.368,0.333,2.771,0.649,4.279c0.562,2.633,1.333,5.212,2.07,7.737c0.79,2.632,1.578,5.387,2.14,8.175
		c0.474,2.281,0.93,4.526,1.404,6.755c1.457,7.054,2.825,13.701,3.737,20.771c0.194,1.492,0.352,2.842,0.509,4.158
		c0.369,3.14,0.719,6.123,1.368,9.895c0.141,0.843,0.386,1.702,0.631,2.596c0.597,2.179,1.228,4.441,0.544,6.914
		c-1.631,5.807-16.737,14.982-24.562,17.018c-7.35,1.895-11.859-0.141-16.245-2.122c-3.07-1.386-6.228-2.824-10.228-2.806v1.402
		C3.682,84.79,6.595,86.089,9.647,87.456z"/>
	<path d="M19.086,144.279c3.615,0.774,7.35,1.58,10.526,2.438c6.245,1.701,9.474,4.668,10.421,9.562
		c0.684,3.543,0.526,7.859,0.333,12.42c-0.176,4.334-0.369,8.809,0.14,13.228c1.562,13.932,10.719,15.353,19.562,16.704
		c5.719,0.895,11.245,1.632,16.157,1.613c9.124,0,16.052-2.492,17.896-11.018c1.491-6.933,0.456-15.193-0.632-23.965
		c-0.526-4.176-1.069-8.491-1.333-12.773c-0.176-2.998-0.404-6.401-0.947-9.438c-1.282-7.157-4.562-11.945-7.72-16.597
		c-3.087-4.561-6.018-8.84-7.246-15.21c-1.578-8.298-1.648-14.946-0.245-19.753c1.544-5.211,6.368-4.879,12.474-4.492
		c2.526,0.158,5.158,0.334,7.79,0.104l0.298-0.018c2.158-0.176,4.193-0.369,6.368-0.931c10.333-2.754,9.421-11.175,7.456-20.298
		c-0.193-0.825-0.386-1.665-0.596-2.49c-0.737-2.93-1.456-5.754-0.58-8.352c0.861-2.615,2.316-4.511,3.843-6.543
		c1.684-2.211,3.439-4.511,4.579-7.968c0.157-0.542,0.351-1.053,0.509-1.597c0.438-1.332,0.841-2.612,1.351-3.981
		c1.053-2.895,2.684-5.596,4.245-8.229c1.562-2.631,3.158-5.35,4.176-8.139c0.264-0.81,0.544-2.545,0.228-3.703
		c-1.896-6.684-18.246-11.087-18.931-11.28c-2.192-0.578-4.332-0.859-6.421-1.123c-1.876-0.229-3.666-0.456-5.35-0.912
		c-1.544-0.386-3.193-0.911-4.895-1.525h-3.965c3.018,1.192,5.895,2.229,8.508,2.896c1.772,0.456,3.596,0.684,5.509,0.947
		c2.053,0.245,4.157,0.524,6.246,1.068c6.526,1.738,16.702,5.931,17.947,10.315c0.21,0.72,0.052,2.089-0.21,2.86
		c-0.947,2.647-2.456,5.192-4.053,7.895c-1.597,2.667-3.246,5.438-4.351,8.438c-0.509,1.402-0.913,2.685-1.37,4.053
		c-0.157,0.508-0.333,1.052-0.526,1.597c-1.052,3.211-2.736,5.42-4.351,7.562c-1.525,2-3.105,4.09-4.053,6.932
		c-1.017,2.98-0.245,5.981,0.562,9.141c0.176,0.807,0.386,1.632,0.579,2.438c1.896,8.755,2.701,16.211-6.474,18.649
		c-2.018,0.526-3.93,0.684-6.106,0.896l-0.315,0.018c-2.509,0.192-5.071,0.033-7.561-0.125c-6.194-0.401-12.036-0.771-13.895,5.475
		c-1.491,5.054-1.439,11.914,0.192,20.438c1.299,6.65,4.438,11.266,7.475,15.737c3.087,4.526,6.28,9.209,7.509,16.069
		c0.509,2.913,0.736,6.281,0.929,9.263c0.247,4.316,0.79,8.667,1.316,12.861c1.071,8.646,2.106,16.789,0.649,23.49
		c-2.561,11.93-16.807,10.756-32.439,8.333c-10.562-1.647-17.052-3.509-18.403-15.475c-0.474-4.316-0.298-8.754-0.122-13.034
		c0.193-4.647,0.369-9.036-0.352-12.754c-1.069-5.493-4.596-8.755-11.456-10.648c-3.175-0.843-6.947-1.668-10.579-2.456
		c-1.93-0.405-3.929-0.844-5.807-1.282c-3.386-0.771-7.93-1.579-13.579-2.402v1.422c5.526,0.806,9.947,1.597,13.263,2.367
		C15.139,143.42,17.156,143.843,19.086,144.279z"/>
	<path d="M9.139,56.525c0.964,0,2.123,0.055,3.368,0.125c1.527,0.067,3.246,0.174,5.018,0.174c3.737,0,9.158-0.35,12.982-3.279
		c4.632-3.545,6.281-8.858,5.404-17.246c-0.649-5.946-2.475-11.685-4.404-17.771c-1.877-5.93-3.806-12.034-4.596-18.509h-0.949
		c0.808,6.579,2.755,12.771,4.668,18.79c1.929,6.052,3.718,11.754,4.333,17.597c0.86,8.018-0.702,13.088-5.036,16.403
		c-3.578,2.754-8.789,3.068-12.402,3.068c-1.755,0-3.474-0.088-4.983-0.155c-1.245-0.071-2.421-0.125-3.403-0.125
		c-0.825,0-1.456,0.036-1.948,0.125c-2.755,0.472-5.07,1.437-7.193,2.647v1.069c2.158-1.279,4.543-2.314,7.351-2.809
		C7.787,56.562,8.367,56.525,9.139,56.525z"/>
	<path d="M171.595,12.789c0.105,0.773,0.21,1.492,0.264,2.158c1.859,8.456,6.754,12.737,14.596,12.737l0,0
		c1.247,0,2.58-0.105,3.983-0.333c7.649-1.229,23.736-5.771,30.491-9.844c7.228-4.351,10.824-11.719,12.632-17.49h-0.492
		c-1.771,5.666-5.351,12.878-12.368,17.088c-6.72,4.053-22.702,8.578-30.333,9.771c-1.387,0.229-2.702,0.352-3.913,0.352l0,0
		c-7.579,0-12.351-4.176-14.141-12.351c-0.052-0.632-0.14-1.369-0.262-2.141c-0.299-2.333-0.685-5.21-0.228-7.666
		c0.316-1.772,0.912-3.422,1.719-5.054h-0.509c-0.789,1.597-1.367,3.229-1.683,4.966C170.911,7.509,171.297,10.457,171.595,12.789z"
		/>
	<path d="M3.244,23.667c3.421,0,8.018-0.648,10.543-3.736c2.965-3.598,4.193-11.842,3.808-19.912h-0.421
		c0.369,7.93-0.842,16.069-3.753,19.612c-1.878,2.3-5.492,3.562-10.176,3.562l0,0c-1.089,0-2.195-0.07-3.247-0.193v0.457
		C1.068,23.597,2.173,23.667,3.244,23.667L3.244,23.667z"/>
	<path d="M2.77,5.193c1.473-1.053,2.333-3.001,2.351-5.176H4.647c0,2.035-0.807,3.824-2.158,4.807
		C1.788,5.353,0.928,5.633,0.033,5.633c-0.018,0-0.018-0.019-0.035-0.019V6.07c0.017,0,0.017,0.018,0.035,0.018
		C1.016,6.088,1.963,5.771,2.77,5.193z"/>
	<path d="M65.121,44.736c1.369,1.157,2.737,1.738,4.087,1.738l0,0c1.457,0,2.825-0.649,4.088-1.982
		c2.965-3.055,4.597-8.966,4.474-12.983c-0.281-1.264-0.545-2.7-0.807-4.229c-1.052-6.052-2.368-13.579-7.298-17.017
		c-3.175-2.229-6.123-2.019-8.334,0.578c-2.666,3.105-3.965,9.333-3.105,14.876c0.387,1.562,0.685,3.246,0.966,4.879
		C60.103,35.859,61.05,41.316,65.121,44.736z M61.683,11.158c1.123-1.299,2.403-1.965,3.842-1.965c1.211,0,2.508,0.492,3.859,1.438
		c4.772,3.351,6.071,10.754,7.123,16.72c0.264,1.544,0.509,2.98,0.79,4.21c0.14,3.878-1.457,9.667-4.334,12.612
		C71.788,45.385,70.525,46,69.208,46l0,0c-1.228,0-2.491-0.526-3.789-1.616c-3.947-3.314-4.876-8.683-5.771-13.876
		c-0.28-1.632-0.58-3.315-0.965-4.895C57.858,20.245,59.122,14.158,61.683,11.158z"/>
	<path d="M234.472,46.948c-4.229-3.491-9.509-6.738-19.596-6.738c-1.632,0-3.404,0.104-5.247,0.265
		c-9.648,0.876-22.93,6.509-31.824,11.737c-2.175,1.264-8.755,5.122-6.387,10.981c4.807,8.719,11.597,15.352,20.211,19.683
		c4.72,2.389,9.93,3.968,14.298,4.354c0.667,0.052,1.35,0.088,2.035,0.088l0,0c8.07,0,17.965-3.879,25.824-10.104
		c5.019-3.965,7.93-9.597,8-15.388C241.858,56.211,239.261,50.913,234.472,46.948z M233.489,76.86
		c-7.772,6.157-17.544,9.982-25.526,9.982c-0.685,0-1.351-0.036-2-0.088c-4.297-0.369-9.438-1.932-14.139-4.3
		c-8.51-4.297-15.246-10.858-19.983-19.473c-2.228-5.439,4.105-9.157,6.193-10.368c8.86-5.176,22.07-10.791,31.65-11.668
		c1.824-0.176,3.578-0.264,5.193-0.264c9.946,0,15.157,3.176,19.298,6.649c4.684,3.859,7.211,8.999,7.14,14.474
		C241.262,67.49,238.401,72.964,233.489,76.86z"/>
	<path d="M221.647,51.404c-2.509-1.878-6.229-2.913-10.456-2.913c-8.703,0-18.931,4.438-21.035,11.86
		c-0.316,1.104-0.229,2.297-0.142,3.438c0.071,0.685,0.124,1.387,0.088,2.07v0.054l0.018,0.052
		c2.877,8.597,11.245,11.667,18.104,11.667h0.019c8.579,0,18.403-4.756,19.649-15.176v-0.017v-0.037
		C227.332,58.052,225.174,54.229,221.647,51.404z M208.244,77.176h-0.019c-6.684,0-14.824-2.98-17.666-11.334
		c0.035-0.699-0.035-1.402-0.071-2.087c-0.086-1.156-0.193-2.246,0.106-3.28c2.052-7.192,12.07-11.51,20.597-11.51
		c4.104,0,7.737,1.001,10.174,2.809c3.422,2.736,5.492,6.421,6.054,10.667C226.192,72.562,216.63,77.176,208.244,77.176z"/>
	<path d="M312.84,59.824c-1.789-1.245-4.069-1.912-6.597-1.912c-2.946,0-6.087,0.931-7.998,2.386
		c-2.158,1.65-4.315,3.789-6.403,5.844c-1.861,1.895-3.826,3.806-5.755,5.367c-7.178,5.737-15.632,10.633-26.616,15.439
		c-4.525,1.982-8.894,4.333-13.297,7.192c-2.439,1.58-4.702,3.28-6.878,4.911c-2.123,1.598-4.122,3.105-6.209,4.455
		c-4.562,2.947-10.421,5.388-12.124,6.072c-3.525,1.401-8.262,2.98-10.964,3.332c-1.123,0.14-2.192,0.229-3.228,0.229
		c-3.351,0-5.79-0.807-8.141-1.561c-1.684-0.545-3.368-1.105-5.404-1.387c-0.631-0.088-1.245-0.123-1.841-0.123
		c-7.686,0-10.772,7.352-12.632,11.736l-0.298,0.702c-4.141,9.808-5.878,20.454-5.281,32.544c0.403,8.422,0.017,12.649-3.597,17.018
		c-1.807,2.209-3.754,4.053-5.631,5.842c-4.298,4.07-7.983,7.545-8.596,13.719c-1.194,6.808,1.245,14.824,6.386,20.931
		c4.859,5.791,11.473,9.124,18.175,9.124l0,0c2.491,0,5.035-0.475,7.51-1.333c7.578-2.736,19.719-15.913,23.965-24.352
		c0.562-1.159,1.122-2.3,1.666-3.402c3.385-6.877,6.298-12.843,11.842-17.615c4.579-3.965,8.649-6.545,13.684-8.615
		c4.597-1.895,10-2.612,15.72-3.367c7.649-1.018,15.525-2.053,21.386-6.156c9.281-7.686,20.736-17.845,26.859-28.159
		c2.842-4.808,6.455-12.964,8.545-18.542c1.823-4.912,0.823-12.563-0.176-19.967c-0.264-1.911-0.511-3.895-0.72-5.754
		c0.209-0.896,0.313-1.772,0.438-2.736c0.297-2.018,0.596-4.142,1.596-6.632c0.212-0.58,0.544-1.281,0.947-2.069
		C315.086,69.158,317.945,63.403,312.84,59.824z M312.752,72.773c-0.402,0.806-0.737,1.506-0.98,2.088
		c-1.001,2.561-1.315,4.807-1.579,6.77c-0.159,0.947-0.265,1.845-0.457,2.736l-0.019,0.037v0.034
		c0.211,1.878,0.476,3.877,0.738,5.825c0.964,7.313,1.965,14.895,0.176,19.701c-2.054,5.579-5.65,13.686-8.475,18.473
		c-6.123,10.264-17.527,20.389-26.756,28.037c-5.734,4.016-13.578,5.067-21.174,6.068c-5.754,0.755-11.177,1.476-15.843,3.403
		c-5.052,2.088-9.193,4.668-13.807,8.667c-5.614,4.858-8.544,10.859-11.947,17.788c-0.544,1.089-1.088,2.229-1.667,3.387
		c-4.227,8.369-16.228,21.423-23.718,24.105c-2.422,0.877-4.895,1.299-7.334,1.299l0,0c-6.562,0-13.07-3.246-17.825-8.93
		c-5.052-5.999-7.456-13.86-6.281-20.562c0.597-6.018,4.229-9.473,8.456-13.454c1.896-1.771,3.86-3.648,5.702-5.879
		c3.685-4.492,4.105-8.789,3.685-17.334c-0.597-12.034,1.105-22.612,5.246-32.331l0.314-0.721c1.79-4.279,4.79-11.455,12.177-11.455
		c0.579,0,1.174,0.034,1.79,0.139c1.964,0.265,3.666,0.81,5.298,1.352c2.404,0.791,4.876,1.578,8.298,1.578
		c1.052,0,2.14-0.069,3.298-0.227c2.737-0.352,7.526-1.948,11.069-3.369c1.685-0.684,7.596-3.14,12.194-6.104
		c2.105-1.352,4.105-2.859,6.245-4.456c2.175-1.647,4.438-3.315,6.859-4.896c4.386-2.857,8.705-5.191,13.23-7.175
		c11.016-4.824,19.507-9.736,26.719-15.508c1.945-1.562,3.911-3.491,5.789-5.368c2.07-2.07,4.211-4.195,6.35-5.826
		c1.845-1.367,4.896-2.279,7.721-2.279c2.438,0,4.614,0.633,6.333,1.823C317.35,63.562,314.578,69.106,312.752,72.773z"/>
	<path d="M118.858,116.668L118.858,116.668c2.246,0,4.543-1.105,5.964-2.93c2.07-2.633,2.615-6.982,1.37-10.826
		c-0.949-2.966-2.825-5.036-5.159-5.736c-2.087-0.596-3.894-0.07-5.281,1.509c-2.754,3.177-3.315,9.808-2.808,13.58
		C113.929,115.07,116.068,116.668,118.858,116.668z M116.104,98.999c0.929-1.052,2.017-1.597,3.298-1.597
		c0.474,0,0.981,0.07,1.509,0.229c2.175,0.633,3.93,2.599,4.841,5.42c1.194,3.722,0.684,7.879-1.299,10.405
		c-1.333,1.686-3.473,2.754-5.596,2.754l0,0c-2.58,0-4.562-1.492-5.457-4.069C112.911,108.508,113.436,102.053,116.104,98.999z"/>
	<path d="M275.068,98.035c-0.842-0.14-1.738-0.228-2.687-0.228c-6.174,0-14.12,3.14-19.262,7.611
		c-1.158,1.019-2.142,1.982-3.123,2.912c-1.088,1.053-2.246,2.176-3.667,3.387c-4.246,3.615-9.105,6.056-13.772,8.424
		c-5.789,2.909-11.262,5.684-14.772,10.261c-1.578,2.07-3.018,4.651-2.911,9.371l0.017,0.067c0.158,0.439,0.315,0.88,0.474,1.335
		c2.298,6.577,4.702,13.422,14.702,13.422c0.21,0,0.42,0,0.648-0.019c2.089-0.07,4.579-0.493,7.458-1.001
		c2.982-0.508,6.367-1.089,9.876-1.333c12.912-0.879,18.843-2.07,25.492-10.457c2.49-3.139,5.718-8.789,6.685-14.404
		c0.492-2.945,0.475-6.438,0.455-9.807c-0.019-1.963-0.035-3.823,0.053-5.562l0.035-1.017
		C281.155,104.087,281.385,99.087,275.068,98.035z M280.332,110.981l-0.07,1.019c-0.088,1.755-0.07,3.615-0.07,5.578
		c0.054,3.353,0.07,6.826-0.42,9.738c-0.946,5.508-4.157,11.087-6.613,14.191c-6.528,8.229-12.37,9.404-25.142,10.28
		c-3.526,0.229-6.93,0.81-9.929,1.352c-2.86,0.492-5.334,0.912-7.386,0.967c-0.229,0-0.421,0.017-0.631,0.017
		c-9.667,0-12-6.667-14.264-13.122c-0.14-0.423-0.316-0.858-0.455-1.282c-0.106-4.543,1.298-7.016,2.807-9.016
		c3.438-4.492,8.877-7.266,14.614-10.142c4.701-2.387,9.579-4.842,13.859-8.491c1.438-1.211,2.597-2.314,3.701-3.403
		c1-0.964,1.947-1.895,3.087-2.878c5.071-4.422,12.879-7.49,18.965-7.49c0.914,0,1.81,0.054,2.599,0.209
		C280.911,99.492,280.664,104.053,280.332,110.981z"/>
	<path d="M23.156,131.613c9.438,0.931,15.649,1.458,25.492,1.949c0.736,0.297,1.509,0.437,2.42,0.437
		c1.352,0,2.685-0.314,3.982-0.596c0.58-0.14,1.123-0.264,1.666-0.353l0.088-0.033c0.334-0.244,0.632-0.545,0.913-0.843
		c0.227-0.228,0.438-0.438,0.667-0.633l0.088-0.051v-0.088c0.895-5.353,1.982-18.475-7.036-24.824l-0.086-0.037
		c-2.702-0.612-5.492-0.928-8.527-0.928c-5.807,0-11.667,1.157-17.334,2.261c-5.508,1.089-11.209,2.229-16.895,2.282
		c-2.632-0.158-5.21-0.648-7.718-1.159c-0.299-0.052-0.597-0.104-0.878-0.191v0.491c0.245,0.053,0.509,0.105,0.771,0.156
		c2.544,0.491,5.142,1.02,7.808,1.16c5.737-0.054,11.492-1.193,17.018-2.283c5.631-1.104,11.457-2.263,17.228-2.263
		c2.982,0,5.737,0.298,8.386,0.913c8.701,6.192,7.685,18.947,6.807,24.263c-0.229,0.192-0.421,0.405-0.631,0.615
		c-0.281,0.264-0.526,0.523-0.807,0.737c-0.509,0.104-1.053,0.21-1.615,0.35c-1.281,0.28-2.597,0.578-3.895,0.578
		c-0.842,0-1.597-0.14-2.281-0.42l-0.069-0.019c-9.86-0.473-16.088-1-25.526-1.931c-4.895-0.491-9.597-2.017-14.141-3.491
		c-3.123-0.998-6.14-1.963-9.053-2.561v0.489c2.86,0.562,5.842,1.546,8.912,2.527C13.472,129.614,18.191,131.142,23.156,131.613z"/>
	<path d="M54.963,177.721c1.72,6.387,9.982,10.352,16.649,10.352l0,0c4.036,0,7.404-1.37,9.509-3.843
		c2.263-2.687,3.035-6.492,2.246-11.354c-1.089-6.699-7.07-16.875-12.281-20.928c-0.929-0.703-2.088-1.597-3.544-1.597
		c-0.631,0-1.299,0.155-1.947,0.524c-2.386,1.229-8.088,13.737-9.667,18.896c-0.79,2.61-1.018,4.385-0.983,7.857L54.963,177.721z
		 M56.402,169.912c1.561-5.139,7.192-17.473,9.403-18.631c0.614-0.316,1.193-0.473,1.737-0.473c1.316,0,2.334,0.805,3.246,1.508
		c5.157,4,11.035,14.017,12.123,20.631c0.754,4.701,0.034,8.42-2.158,10.983c-2,2.367-5.246,3.667-9.141,3.667l0,0
		c-6.491-0.021-14.508-3.81-16.193-9.982C55.402,174.194,55.595,172.456,56.402,169.912z"/>
	<path d="M133.261,151.948c-0.771-0.562-2.385-1.228-4.298-1.228c-0.526,0-1.035,0.032-1.562,0.155
		c-8.631,1.579-15.93,12.949-15.859,21.159c0.333,6.999,5.316,12.263,11.579,12.263l0,0c1.018,0,2.036-0.141,3.018-0.438
		c6.439-1.947,10.474-9.631,11.597-16.369C138.894,160.578,137.209,154.773,133.261,151.948z M137.261,167.422
		c-1.087,6.613-5,14.104-11.263,15.981c-0.947,0.298-1.912,0.438-2.877,0.438l0,0c-6,0-10.789-5.088-11.123-11.807
		c-0.07-8.018,7.053-19.16,15.492-20.72c0.491-0.071,0.983-0.123,1.474-0.123c2.387,0,3.877,1.019,4.036,1.123
		C136.805,155.055,138.384,160.703,137.261,167.422z"/>
	<path d="M8.436,195.49c3.439-10.544,1.895-19.123-4.702-26.228c-1-1.017-2.28-1.911-3.736-2.684v0.524
		c1.316,0.703,2.473,1.527,3.386,2.493c6.473,6.965,7.982,15.367,4.614,25.735c-1.369,4.176-3.931,8.035-6.439,11.754
		c-0.526,0.809-1.053,1.579-1.562,2.386v0.86c0.632-1,1.299-2.002,1.948-2.981C4.454,203.613,7.068,199.719,8.436,195.49z"/>
	<path d="M333.699,242.212c-2.334,0-4.49,0.876-6.245,2.578c-1.929,1.808-3.157,4.614-3.772,8.562
		c-0.946,3.754-0.842,8.912,1.526,11.946c1.265,1.614,3.018,2.456,5.192,2.456l0,0c0.143,0,0.264-0.018,0.368-0.018
		c2.983-0.121,6.369-2,9.07-5.018c2.736-3.105,4.245-6.826,4.019-9.966C343.385,245.895,338.262,242.212,333.699,242.212z
		 M339.49,262.402c-2.615,2.932-5.879,4.738-8.738,4.877c-0.104,0-0.227,0.018-0.352,0.018l0,0c-2.017,0-3.646-0.788-4.824-2.297
		c-2.263-2.896-2.352-7.896-1.42-11.562c0.598-3.839,1.789-6.561,3.633-8.314c1.664-1.597,3.718-2.437,5.91-2.437
		c4.351,0,9.229,3.524,9.702,10.104C343.631,255.825,342.156,259.422,339.49,262.402z"/>
	<path d="M216.192,261.613c1.069,1.492,2.192,3.035,3.192,4.668c0.702,1.158,1.404,2.63,2.176,4.176
		c2.438,5.018,5.192,10.666,9.702,10.666l0,0c1.947,0,4.017-1.068,6.263-3.281c4.841-4.719,8.86-14.175,7.14-20.718
		c-0.878-3.369-3.211-5.632-6.72-6.562c-1.789-0.475-3.596-0.527-5-0.527c-0.684,0-1.385,0.02-2.104,0.035
		c-0.684,0.019-1.387,0.035-2.07,0.035c-1.069,0-1.93-0.051-2.72-0.123c-1.79-0.209-3.508-0.787-5.158-1.35
		c-2.07-0.702-4.017-1.353-6.158-1.353c-0.754,0-1.474,0.071-2.209,0.264l-0.088,0.034c-1.194,0.879-1.842,2.334-1.772,3.965v0.037
		C211.683,255.281,213.875,258.352,216.192,261.613z M212.683,247.983c0.666-0.159,1.333-0.229,2.052-0.229
		c2.053,0,3.983,0.649,6.001,1.333c1.685,0.562,3.403,1.144,5.263,1.353c0.807,0.105,1.685,0.14,2.772,0.14
		c0.702,0,1.387-0.017,2.106-0.033c0.684-0.019,1.385-0.037,2.069-0.037c1.37,0,3.141,0.054,4.861,0.511
		c3.386,0.895,5.562,2.98,6.402,6.229c1.703,6.387-2.262,15.63-6.999,20.264c-2.14,2.088-4.141,3.156-5.947,3.156l0,0
		c-4.21,0-6.913-5.544-9.298-10.42c-0.754-1.562-1.475-3.034-2.194-4.193c-1.017-1.668-2.123-3.211-3.192-4.703
		c-2.298-3.209-4.474-6.244-5.439-9.856C211.086,250.034,211.63,248.771,212.683,247.983z"/>
	<path d="M69.647,302.527l0.474,0.176c2.859,1.156,9.263,3.086,15.07,3.086c6.211,0,9.948-2.227,10.825-6.455
		c0.667-3.229,0.105-5.965-1.667-8.141c-3.07-3.771-9.28-5.141-14.07-5.141c-0.246,0-0.491,0-0.754,0.016H79.42
		c-4.193,0.143-12,0.353-16.211,3.58c-1.35,1.018-2.228,2.3-2.649,3.789C59.208,298.387,65.998,301.089,69.647,302.527z
		 M61.016,293.545c0.369-1.369,1.209-2.562,2.473-3.527c4.07-3.123,11.807-3.35,15.93-3.475h0.122
		c0.247-0.018,0.492-0.018,0.737-0.018c4.702,0,10.737,1.299,13.701,4.967c1.702,2.07,2.212,4.665,1.58,7.754
		c-0.842,4.035-4.333,6.088-10.369,6.088c-5.754,0-12.052-1.932-14.912-3.054l-0.457-0.192
		C66.297,300.684,59.769,298.105,61.016,293.545z"/>
	<path d="M361.419,21.245c-1.753,4.316-3.579,8.808-4.577,13.422c-0.879,4.018-3.545,7.843-6.598,9.508
		c-2.158,1.178-4.404,1.333-6.701,0.493c-9.492-3.526-18.352-12.492-21.701-16.192c-0.562-0.599-1.09-1.211-1.634-1.825
		c-3.701-4.122-7.507-8.368-12.771-11.21c-4.545-2.544-10.947-2.736-21.896-2.212l-0.599,0.035
		c-5.684,0.28-12.139,0.598-14.28-2.192c-0.979-1.299-1.052-3.21-0.228-5.842c0.562-1.754,1.578-3.476,2.824-5.211h-1.721
		c-1.035,1.562-1.912,3.141-2.438,4.79c-0.982,3.104-0.842,5.421,0.455,7.104c2.598,3.368,9.141,3.052,15.457,2.736l0.598-0.019
		c10.684-0.508,16.895-0.351,21.157,2.036c5.052,2.736,8.788,6.896,12.367,10.911c0.562,0.614,1.105,1.229,1.668,1.843
		c3.421,3.771,12.474,12.912,22.264,16.543c1.104,0.422,2.227,0.615,3.35,0.615c1.543,0,3.052-0.387,4.509-1.178
		c3.438-1.896,6.3-5.964,7.299-10.438c0.982-4.508,2.772-8.912,4.491-13.191c1.702-4.193,3.475-8.526,4.51-13.036
		c0.667-2.842,1.297-5.754,1.911-8.562c0.034-0.034,0.034-0.104,0.055-0.157h-1.44c-0.613,2.755-1.229,5.614-1.895,8.403
		C364.822,12.809,363.104,17.088,361.419,21.245z"/>
	<path d="M340.613,0.579c0.733-0.07,1.473-0.281,2.158-0.562h-6.248C337.752,0.509,339.104,0.737,340.613,0.579z"/>
	<path d="M458.577,16.86c-1.911,3.544-3.895,7.228-5,12.052c-1.403,6.019,1.019,12.193,3.369,18.192
		c1.211,3.07,2.331,6.001,2.913,8.771c1.487,7.106,0.367,12.808-0.774,18.859c-0.14,0.633-0.261,1.265-0.386,1.914
		c-0.842,4.49-0.139,8.508,2.036,11.631c2.139,3.052,5.667,5.088,10.191,5.825c0.826,0.155,1.687,0.228,2.527,0.228
		c4.614,0,8.281-2.142,12.158-4.422c3.472-2.017,7.088-4.141,11.719-4.912c0.894-0.139,1.807-0.21,2.666-0.21v-1.403
		c-0.93,0-1.912,0.07-2.912,0.246c-4.876,0.789-8.597,2.98-12.193,5.068c-3.7,2.192-7.209,4.229-11.438,4.229
		c-0.754,0-1.528-0.07-2.316-0.193c-4.124-0.7-7.334-2.526-9.246-5.264c-1.965-2.806-2.596-6.455-1.807-10.562
		c0.105-0.631,0.246-1.297,0.369-1.93c1.193-6.176,2.334-12.02,0.788-19.388c-0.612-2.893-1.772-5.877-2.998-9.016
		c-2.282-5.791-4.597-11.756-3.317-17.352c1.088-4.649,3.019-8.246,4.877-11.701c2.771-5.124,5.388-10,4.896-17.51h-1.403
		C463.77,7.192,461.243,11.896,458.577,16.86z"/>
	<path d="M390.807,4.579c1.576,2.035,3.19,4.157,4.945,6.123c4.754,5.368,10.684,8.474,16.422,11.474
		c3.737,1.947,7.264,3.771,10.104,6.105c5.703,4.648,8.612,9.21,6.719,18.771c-1.367,6.843-3.735,16.106-6.035,21.367
		c-1.771,4.054-4.577,7.107-7.298,10.071c-4.895,5.315-9.525,10.368-7.455,20.264c0.947,4.526,2.807,9.297,4.613,13.911
		c1.175,2.983,2.386,6.055,3.353,9.09c1.208,3.752,1.963,7.438,2.734,11.035c0.159,0.822,0.335,1.647,0.527,2.455
		c1.122,5.244,4.647,7.825,10.755,7.825c1.946,0,4.174-0.247,7.157-0.791c3.947-0.7,7.438-1.665,10.809-2.595
		c3.965-1.091,7.718-2.125,11.597-2.545c1.912-0.192,3.823-0.316,5.895-0.316c5.508,0,10.931,0.736,17.227,1.579
		c2.124,0.298,4.336,0.562,6.65,0.843c3.824,0.473,7.334,0.93,10.474,1.387v-1.422c-3.104-0.438-6.525-0.896-10.313-1.335
		c-2.302-0.277-4.511-0.579-6.635-0.858c-6.312-0.859-11.787-1.577-17.401-1.577c-2.104,0-4.087,0.088-6.053,0.313
		c-4.002,0.423-7.791,1.476-11.807,2.578c-3.353,0.914-6.81,1.878-10.667,2.581c-2.93,0.524-5.071,0.737-6.931,0.737
		c-5.42,0-8.404-2.124-9.386-6.704c-0.192-0.788-0.352-1.614-0.526-2.456c-0.755-3.613-1.562-7.349-2.771-11.157
		c-0.983-3.086-2.194-6.175-3.369-9.175c-1.877-4.756-3.649-9.263-4.561-13.667c-1.914-9.212,2.28-13.789,7.139-19.053
		c2.791-3.053,5.666-6.191,7.527-10.456c2.334-5.369,4.753-14.736,6.123-21.648c2.033-10.211-1.263-15.264-7.193-20.123
		c-2.966-2.421-6.562-4.299-10.352-6.28c-5.632-2.947-11.438-5.982-16.019-11.158c-1.719-1.931-3.332-4.034-4.895-6.053
		c-0.947-1.229-1.912-2.475-2.895-3.701h-1.825c0.07,0.088,0.124,0.157,0.176,0.228C388.543,1.668,389.7,3.142,390.807,4.579z"/>
	<path d="M473.611,6.509c-0.068,1.913-0.14,3.721-0.332,4.79c-0.615,3.456-1.877,6.069-3.193,8.859
		c-2.212,4.685-4.51,9.491-4.194,18.613l0.021,0.123c0.7,2.175,1.299,4.877,1.929,7.735c1.965,8.932,4.194,19.035,11.019,21.056
		c0.789,0.244,1.772,0.365,2.896,0.365c1.262,0,2.402-0.155,2.98-0.243c4.246-0.685,7.422-2.967,10.809-5.387
		c1.438-1.018,2.894-2.053,4.455-2.982v-1.069c-1.772,0.998-3.387,2.158-4.982,3.299c-3.299,2.331-6.403,4.562-10.438,5.209
		c-0.527,0.088-1.633,0.247-2.824,0.247c-1.035,0-1.914-0.124-2.648-0.352c-6.266-1.843-8.424-11.667-10.353-20.335
		c-0.632-2.875-1.228-5.578-1.931-7.771c-0.299-8.859,1.931-13.544,4.104-18.089c1.352-2.858,2.634-5.525,3.266-9.104
		c0.21-1.142,0.277-2.982,0.349-4.931c0.125-2.402,0.213-5.123,0.599-6.104l0.018-0.106V0.265c0-0.089,0-0.158,0-0.246h-0.93
		c0,0.054,0,0.104,0,0.157C473.824,1.368,473.736,3.86,473.611,6.509z"/>
	<path d="M413.893,11.333c3.685,1.492,12.824,5.035,17.614,5.72c0.809,0.123,1.579,0.176,2.352,0.176l0,0
		c3.914,0,7.298-1.544,9.279-4.228c2.055-2.736,2.544-6.438,1.37-10.386c-0.143-0.474-0.438-0.913-0.721-1.352
		c-0.21-0.333-0.42-0.632-0.542-0.947c-0.036-0.088-0.107-0.193-0.142-0.299h-0.49c0.069,0.176,0.121,0.334,0.191,0.49
		c0.177,0.352,0.387,0.687,0.597,1.019c0.279,0.422,0.526,0.825,0.648,1.228c1.142,3.809,0.685,7.334-1.278,9.966
		c-1.933,2.578-5.107,4.034-8.914,4.034l0,0c-0.754,0-1.509-0.053-2.297-0.156c-4.72-0.702-13.81-4.21-17.492-5.685
		c-4.931-1.981-10.42-5.808-14.599-10.896h-0.596C403.138,5.333,408.824,9.298,413.893,11.333z"/>
	<path d="M490.052,20.158c1.93,1.596,5.876,2.842,9.946,3.299V23c-4.246-0.491-8.018-1.858-9.648-3.192
		c-6.071-4.896-7.647-12.72-7.02-19.789h-0.473C482.227,7.192,483.857,15.176,490.052,20.158z"/>
	<path d="M495.14,2.353c0.752,2.21,2.7,3.7,4.858,3.719V5.614c-1.965-0.018-3.735-1.386-4.404-3.387
		c-0.192-0.754-0.262-1.474-0.244-2.21h-0.474C494.859,0.79,494.928,1.562,495.14,2.353z"/>
	<path d="M366.523,33.736c-0.894,2.668-1.685,5.438-2.419,8.124c-1.422,5.156-2.913,10.474-5.387,15.264
		c-5.213,10.018-10.791,16.561-17.09,20c-7.647,4.192-11.229,11.577-9.087,18.823c1.999,6.701,9.385,12.791,15.403,15.633
		c6.524,3.051,13.754,4.875,20.72,6.631c1.543,0.402,3.052,0.771,4.58,1.174c1.509,0.39,2.998,0.825,4.595,1.281
		c1.719,0.511,3.491,1.02,5.265,1.476c4.403,1.141,7.735,1.686,10.806,1.719h0.247c2.543,0,4.455-0.685,5.684-2.087
		c2.087-2.368,1.896-6.266,1.457-9.772c-0.21-1.666-0.474-3.333-0.737-5.104c-1.211-7.788-2.474-15.877,0.562-23.068
		c1.736-4.09,4.648-7.246,7.754-10.615c3.088-3.387,6.316-6.86,8.159-11.366c1.228-3.002,3.262-10.439,2.139-17.07
		c-1.472-8.599-7.562-12.177-14.017-15.966c-2.719-1.615-5.562-3.281-8.105-5.387c-0.876-0.966-1.931-2.562-3.176-4.422
		c-3.369-5.068-7.578-11.368-12.192-11.368c-1.314,0-2.562,0.51-3.736,1.51c-5.193,4.49-7.877,13.192-10.035,20.156
		C367.438,30.878,366.98,32.388,366.523,33.736z M378.561,9.859c1.018-0.877,2.032-1.297,3.121-1.297
		c4.104,0,8.333,6.333,11.403,10.946c1.279,1.911,2.369,3.543,3.299,4.562l0.052,0.053c2.614,2.157,5.475,3.842,8.247,5.476
		c6.263,3.7,12.176,7.175,13.578,15.332c0.999,5.946-0.703,13.176-2.087,16.562c-1.792,4.333-4.947,7.771-7.982,11.068
		c-3.019,3.28-6.123,6.649-7.931,10.914c-3.14,7.438-1.844,15.647-0.614,23.562c0.246,1.753,0.51,3.438,0.736,5.088
		c0.387,3.122,0.597,6.929-1.245,9.033c-1.053,1.194-2.686,1.772-4.981,1.772h-0.229c-3.001-0.055-6.281-0.578-10.579-1.701
		c-1.771-0.439-3.545-0.965-5.245-1.455c-1.598-0.457-3.105-0.879-4.632-1.299c-1.51-0.388-3.034-0.771-4.579-1.179
		c-6.931-1.734-14.104-3.559-20.544-6.576c-6.034-2.824-13.088-8.877-14.913-15.036c-2-6.789,1.387-13.756,8.649-17.736
		c6.457-3.525,12.175-10.211,17.473-20.403c2.527-4.878,4.003-10.247,5.457-15.456c0.721-2.648,1.509-5.402,2.386-8.053
		c0.457-1.387,0.93-2.859,1.424-4.474C370.928,22.72,373.561,14.176,378.561,9.859z"/>
	<path d="M382.227,48.369c0.438,0.281,0.878,0.562,1.335,0.842c2.771,1.702,5.367,3.333,6.646,7.088
		c0.229,0.771,0.405,1.632,0.562,2.456c0.51,2.422,1.001,4.896,3.49,5.913c0.317,0.088,0.721,0.088,1.071,0.105l0.035-0.247v0.247
		l0,0l0.017-0.019c3.86-0.438,7.843-3.967,9.229-8.192c1.175-3.579,0.352-6.896-2.298-9.352c-1.3-1.211-2.845-1.931-4.354-2.613
		c-1.857-0.896-3.77-1.79-5.244-3.634c-1.211-1.525-2.351-4.402-3.247-6.701c-0.155-0.421-0.313-0.824-0.453-1.192
		c-0.317-0.755-0.633-1.807-0.983-2.912c-0.843-2.843-1.946-6.403-3.613-7.824c-0.545-0.457-1.105-0.702-1.686-0.702
		c-1.947,0-3.597,2.614-4.631,4.807c-2.28,4.843-3.388,12.389-0.439,17.493C378.857,46.001,380.561,47.297,382.227,48.369z
		 M378.523,26.649c0.809-1.702,2.403-4.544,4.211-4.544c0.475,0,0.914,0.192,1.387,0.579c1.58,1.333,2.615,4.823,3.475,7.612
		c0.332,1.106,0.666,2.176,0.965,2.948c0.158,0.386,0.314,0.771,0.474,1.176c0.965,2.455,2.054,5.265,3.333,6.844
		c1.525,1.91,3.491,2.842,5.405,3.734c1.524,0.721,2.979,1.421,4.227,2.562c3.369,3.143,2.824,6.878,2.158,8.844
		c-1.316,4.069-5.105,7.455-8.824,7.875l0,0c-0.316,0-0.686,0-0.912-0.068c-2.246-0.896-2.684-3.142-3.177-5.544
		c-0.176-0.843-0.332-1.719-0.612-2.51c-1.299-3.911-4.124-5.667-6.807-7.351c-0.457-0.263-0.896-0.543-1.354-0.823
		c-1.596-1.071-3.244-2.3-4.4-4.282C375.191,38.722,376.297,31.368,378.523,26.649z"/>
	<path d="M439.98,69.334l0.104,0.033c0.685,0.301,1.351,0.439,2.017,0.439l0,0c1.932,0,3.686-1.281,4.809-3.509
		c1.403-2.842,1.335-6.28-0.193-8.299l-0.051-0.069c-1.404-0.878-3.16-0.947-4.527-0.122l-0.053,0.052
		c-2.615,3.104-3.438,7.561-2.122,11.387L439.98,69.334z M442.42,58.193c1.191-0.721,2.736-0.666,3.965,0.122
		c1.404,1.895,1.438,5.07,0.088,7.772c-1.018,2.07-2.614,3.263-4.369,3.263l0,0c-0.579,0-1.157-0.141-1.735-0.368
		C439.156,65.369,439.964,61.142,442.42,58.193z"/>
	<path d="M359.139,91.492c0.981,5.771,7,10.051,11.824,13.49c0.51,0.352,0.983,0.684,1.438,1.019c1.859,1.367,5.316,3.86,8.352,3.86
		c1.035,0,1.949-0.281,2.721-0.862c2.209-1.646,2.79-5.261,3.244-8.189c0.088-0.6,0.193-1.179,0.281-1.668
		c0.158-0.771,0.316-1.543,0.49-2.353c1.457-7.263,3.143-15.49-0.438-22.033c-0.771-1.457-2.141-2.544-4.035-3.192
		c-1.421-0.493-3.088-0.737-4.966-0.737c-3.894,0-8.402,1.123-10.964,2.771C361.139,77.385,357.945,84.58,359.139,91.492z
		 M378.05,71.281c1.843,0,3.457,0.244,4.824,0.735c1.755,0.614,3.054,1.597,3.774,2.948c3.49,6.401,1.841,14.544,0.365,21.735
		c-0.155,0.789-0.314,1.58-0.474,2.334c-0.105,0.525-0.193,1.106-0.278,1.719c-0.456,2.81-1.019,6.334-3.054,7.859
		c-0.701,0.51-1.526,0.771-2.457,0.771c-2.878,0-6.262-2.437-8.088-3.752c-0.438-0.335-0.928-0.667-1.421-1.019
		c-4.753-3.421-10.7-7.632-11.665-13.21c-1.144-6.719,1.981-13.738,7.771-17.422C369.84,72.402,374.227,71.281,378.05,71.281z"/>
	<path d="M490.911,107.824c-3.105,0.159-6.211,0.789-9.212,1.404c-3.122,0.633-6.351,1.299-9.562,1.387
		c-4.631-0.405-8.736-2.422-12.686-4.351c-4.525-2.213-9.191-4.526-14.771-4.526c-3.58,0-7.213,0.947-11.105,2.893l-0.054,0.037
		l-0.034,0.051c-0.825,1.388-0.718,3.001-0.597,4.58l0.053,0.632l0.054,0.069c0.315,0.298,0.508,0.737,0.684,1.177
		c0.105,0.229,0.177,0.421,0.281,0.612l0.019,0.035c5.702,6.859,14.104,7.282,22.211,7.686c5.07,0.246,10.299,0.509,14.808,2.334
		c5.122,2.331,11.016,3.613,16.631,3.613l0,0c1.631,0,3.21-0.088,4.736-0.299c0.755-0.104,1.579-0.158,2.422-0.158
		c1.685,0,3.438,0.21,5.21,0.562v-0.456c-1.772-0.351-3.508-0.579-5.21-0.579c-0.859,0-1.702,0.054-2.493,0.176
		c-1.488,0.192-3.051,0.298-4.665,0.298l0,0c-5.544,0-11.367-1.278-16.455-3.579c-4.58-1.859-9.859-2.122-14.966-2.386
		c-8-0.385-16.281-0.808-21.826-7.492c-0.104-0.155-0.189-0.35-0.262-0.524c-0.192-0.456-0.402-0.912-0.736-1.3l-0.034-0.438
		c-0.089-1.488-0.192-3.015,0.508-4.262c3.789-1.878,7.334-2.789,10.826-2.789c5.455,0,10.104,2.244,14.561,4.438
		c3.98,1.982,8.139,3.998,12.895,4.421c3.263-0.088,6.511-0.773,9.648-1.421c3.001-0.598,6.07-1.229,9.141-1.369
		c3.054-0.14,6.106,0.423,9.07,1v-0.491C497.034,108.247,493.98,107.703,490.911,107.824z"/>
	<path d="M474.49,161.123c-0.93-0.104-1.86-0.176-2.773-0.176c-8.156,0-13.701,4.773-19.543,9.861l-0.649,0.559
		c-1.42,1.211-2.875,2.316-4.263,3.406c-3.123,2.401-6.37,4.895-9.088,8.49c-4.315,5.7-4.068,12.98-3.842,20.067
		c0.104,2.791,0.176,5.406,0,7.967l-0.018,0.034l0.018,0.034c0.788,3.738,1.911,6.528,3.402,8.475
		c1.912,2.526,4.632,4.266,7.264,5.912c2.49,1.58,5.054,3.193,6.929,5.491c0.896,1.089,1.704,2.263,2.544,3.491
		c1.598,2.368,3.23,4.772,5.649,6.633c4.053,3.069,9.912,4.912,15.615,4.912l0,0c6.79,0,12.401-2.475,15.386-6.771
		c2.246-3.211,2.544-7.176,2.859-11.369c0.141-1.858,0.279-3.772,0.614-5.612c0.806-4.456,2.98-8.421,5.402-12.176v-0.859
		c-2.615,3.982-5,8.174-5.859,12.93c-0.334,1.896-0.489,3.808-0.614,5.685c-0.314,4.141-0.613,8.018-2.771,11.141
		c-2.912,4.157-8.386,6.562-15.017,6.562l0,0c-5.615,0-11.354-1.811-15.317-4.827c-2.385-1.787-3.999-4.175-5.559-6.509
		c-0.81-1.191-1.65-2.42-2.564-3.525c-1.945-2.352-4.522-3.999-7.051-5.578c-2.58-1.631-5.28-3.333-7.141-5.809
		c-1.438-1.896-2.511-4.596-3.3-8.263c0.177-2.577,0.071-5.334,0-7.982c-0.246-6.982-0.473-14.209,3.738-19.771
		c2.684-3.545,5.754-5.913,8.999-8.402c1.403-1.071,2.858-2.194,4.28-3.423l0.647-0.562c5.791-5,11.267-9.753,19.246-9.753
		c0.896,0,1.808,0.07,2.721,0.192c1.019,0.121,2.123,0.264,3.265,0.386c7.139,0.858,16.455,1.948,22.297,5.104v-0.524
		c-5.965-3.105-15.139-4.194-22.246-5.055C476.611,161.388,475.525,161.266,474.49,161.123z"/>
	<path d="M382.4,197.07c-7.718-0.49-10.701,6.509-13.332,12.647c-0.911,2.158-1.79,4.213-2.807,5.81
		c-1.771,2.788-4.79,5.227-7.878,6.367c-1.246,0.457-2.578,0.633-3.895,0.771c-1.369,0.176-2.791,0.334-4.123,0.879
		c-0.859,0.332-1.598,0.771-2.317,1.174c-1.175,0.685-2.279,1.316-3.789,1.547c-1.035,0.155-2.069,0.173-3.018,0.173
		c-0.28,0-0.562,0-0.843,0c-0.297,0-0.578,0-0.859,0c-1.174,0-2.438,0.018-3.684,0.247c-5.228,1.019-9.209,2.595-12.544,4.945
		c-6.104,4.3-9.824,11.404-11.367,21.756c-0.21,1.421-0.493,2.931-0.791,4.544c-1.245,6.825-2.807,15.334,0.142,21.315
		c1.912,3.858,5.597,6.067,10.122,6.067c1.106,0,2.28-0.139,3.491-0.401c5.578-1.263,9.647-4.142,13.965-7.209
		c2.598-1.845,5.281-3.772,8.369-5.318c6.211-3.122,13.156-5.42,19.878-7.666c2.402-0.788,4.912-1.631,7.298-2.473
		c1.508-0.545,3.068-1.019,4.701-1.543c1.141-0.353,2.281-0.703,3.404-1.104c3.684-1.211,7.875-2.791,11.123-5.318
		c10.088-7.893,12.489-28.086,7.385-39.069C397.91,208.457,390.068,197.562,382.4,197.07z M402.542,235.754
		c-1.299,7.984-4.647,14.598-9.175,18.157c-3.193,2.493-7.334,4.053-10.967,5.264c-1.157,0.368-2.297,0.72-3.403,1.089
		c-1.665,0.508-3.228,1.002-4.736,1.543c-2.401,0.825-4.896,1.668-7.298,2.473c-6.734,2.246-13.684,4.563-19.929,7.687
		c-3.105,1.562-5.809,3.509-8.44,5.369c-4.262,3.035-8.298,5.894-13.789,7.121c-1.155,0.264-2.315,0.387-3.386,0.387
		c-4.333,0-7.876-2.122-9.702-5.823c-2.893-5.808-1.333-14.244-0.088-21.019c0.298-1.597,0.581-3.122,0.771-4.562
		c1.527-10.19,5.176-17.192,11.177-21.421c3.298-2.331,7.229-3.857,12.351-4.858c1.229-0.246,2.457-0.264,3.613-0.264
		c0.281,0,0.562,0,0.859,0c0.28,0,0.562,0,0.843,0c0.967,0,2.019-0.019,3.089-0.156c1.596-0.246,2.79-0.949,3.947-1.616
		c0.701-0.403,1.438-0.823,2.264-1.157c1.279-0.489,2.666-0.666,4.016-0.824c1.316-0.156,2.687-0.315,4.003-0.807
		c3.176-1.177,6.278-3.684,8.088-6.545c1.053-1.647,1.929-3.719,2.858-5.895c2.562-6,5.49-12.843,12.875-12.352
		c7.457,0.456,15.144,11.194,18.248,17.842C403.05,220.649,403.77,228.265,402.542,235.754z"/>
	<path d="M21.016,251.245c3.894-0.612,8.491-0.931,12.913-1.245c6.35-0.457,12.35-0.877,16.631-2.053
		c5.281-1.455,10.229-5.332,12.896-10.14c2.175-3.932,2.719-8.105,1.543-12.055c-2.561-8.684-12.07-7.385-18.333-6.524
		c-6.877,0.946-16.79,2-23.597,0.244c-6.474-1.683-8.368-7.156-5.965-17.209c0.597-2.546,1.596-5.212,2.544-7.791
		c2.123-5.771,4.333-11.736,2.807-17.332c-0.333-1.247-0.93-2.79-1.456-3.877c-4.315-8.649-11.807-14.86-21-17.614v1.475
		c8.632,2.7,15.667,8.598,19.736,16.771c0.509,0.982,1.054,2.438,1.37,3.614c1.421,5.156-0.702,10.91-2.772,16.474
		c-0.966,2.631-1.982,5.315-2.615,7.966c-0.929,3.965-3.806,16.069,7.001,18.877c7.035,1.823,17.158,0.771,24.122-0.192
		c7.702-1.071,14.755-1.438,16.825,5.524c1.052,3.562,0.543,7.368-1.439,10.983c-2.491,4.456-7.104,8.089-12.052,9.456
		c-4.141,1.156-10.071,1.562-16.333,1.999c-4.474,0.314-9.088,0.633-13.053,1.245c-5.176,0.809-9.826,2.229-14.79,3.737
		c-1.947,0.596-3.965,1.194-6,1.755v1.455c2.192-0.596,4.333-1.244,6.421-1.877C11.314,253.42,15.928,252.036,21.016,251.245z"/>
	<path d="M20.384,301.93c10.859,5.719,18.755,11.508,23.457,17.266c4.807,5.894,10.367,11.56,18.157,12.964
		c4.333,0.771,8.527,1.157,12.474,1.157c7.404,0,13.913-1.352,19.281-4.053c2.982-1.49,5.562-3.668,8.368-7.052
		c1.14-1.403,2.228-2.86,3.298-4.3c2.352-3.227,4.824-6.562,8.036-9.141c0.613-0.49,1.262-1.035,1.964-1.58
		c3.685-3.018,8.28-6.771,12.123-8.666c2.211-1.086,4.824-1.598,7.368-2.088c4.404-0.843,8.948-1.72,11.755-5.629
		c3.069-4.246,3.737-11.58,4.263-17.457c0.14-1.404,0.264-2.703,0.386-3.879c1.351-11.035-2.894-16.298-7-21.386
		c-2.351-2.945-4.614-5.735-5.878-9.58l-0.192-0.596c-0.509-1.579-1.088-3.352-1.685-4.58c-1.579-3.298-3.825-4.945-6.649-4.945
		c-4.158,0-8.648,3.649-10.807,5.402c-1.632,1.316-3.246,2.492-4.948,3.738c-0.824,0.612-1.667,1.228-2.544,1.877
		c-6.281,4.702-10.246,11.262-14.07,17.612c-2.087,3.457-4.246,7.053-6.719,10.264c-2.896,2.878-7.158,4.878-12.317,5.72
		c-3.087,0.524-6.56,0.579-10.227,0.667c-2.439,0.054-4.947,0.088-7.51,0.264c-1.509,0.122-3.035,0.264-4.508,0.438
		c-2.333,0.247-4.562,0.475-6.702,0.511c-4.369,0.067-7.982-0.737-11.439-1.491c-2-0.438-3.86-0.843-5.824-1.09
		c-1.035-0.121-2.106-0.209-3.193-0.209c-2.93,0-6.053,0.473-9.526,1.387c-1.754,0.49-3.597,0.894-5.369,1.281
		c-4.84,1.104-9.823,2.244-14.209,4.648v0.541c4.386-2.473,9.438-3.629,14.333-4.717c1.772-0.422,3.613-0.824,5.352-1.299
		c3.456-0.931,6.526-1.369,9.42-1.369c1.07,0,2.123,0.07,3.122,0.213c1.947,0.227,3.808,0.646,5.773,1.068
		c3.508,0.771,7.158,1.561,11.561,1.51c2.157-0.037,4.403-0.281,6.771-0.527c1.456-0.156,2.965-0.314,4.474-0.42
		c2.544-0.176,5.053-0.229,7.492-0.281c3.684-0.07,7.158-0.124,10.298-0.648c5.264-0.877,9.597-2.912,12.562-5.896
		c2.526-3.244,4.684-6.841,6.789-10.313c3.826-6.316,7.755-12.843,13.948-17.49c0.878-0.65,1.72-1.267,2.527-1.878
		c1.719-1.245,3.333-2.422,4.964-3.737c2.123-1.736,6.544-5.315,10.526-5.315c2.632,0,4.737,1.598,6.228,4.702
		c0.562,1.191,1.14,2.964,1.667,4.526l0.193,0.596c1.297,3.932,3.667,6.86,5.964,9.72c4.018,5,8.21,10.192,6.895,21.035
		c-0.141,1.174-0.263,2.49-0.386,3.859c-0.526,5.859-1.192,13.104-4.175,17.264c-2.703,3.734-7.175,4.613-11.492,5.438
		c-2.544,0.511-5.21,1-7.456,2.123c-3.913,1.912-8.527,5.701-12.228,8.738c-0.702,0.524-1.351,1.068-1.965,1.576
		c-3.263,2.615-5.736,5.965-8.141,9.212c-1.035,1.421-2.14,2.896-3.263,4.28c-2.754,3.334-5.28,5.473-8.192,6.947
		c-5.334,2.633-11.755,4-19.088,4c-3.929,0-8.07-0.387-12.368-1.158c-7.667-1.367-13.141-6.982-17.912-12.807
		c-4.738-5.789-12.667-11.631-23.597-17.369c-3.369-1.771-7.123-2.963-10.754-4.104c-3.334-1.071-6.737-2.142-9.843-3.667v0.508
		c3.088,1.491,6.438,2.562,9.685,3.598C13.296,299.02,17.051,300.193,20.384,301.93z"/>
	<path d="M190.103,357.632c2.175,0.368,4.474,0.562,6.843,0.562c2.876,0,5.736-0.28,8.28-0.809
		c7.403-1.525,14.403-4.787,22.684-10.596c1.772-1.244,3.631-2.438,5.438-3.596c7.72-4.93,15.719-10.019,17.386-20.246
		c0.07-0.438,0.142-0.896,0.193-1.334c0.684-5.297,0.193-10.666-0.264-15.842c-0.702-7.666-1.404-15.578,1.632-23.332
		c0.824-2.07,2.104-3.877,3.334-5.633c1.019-1.438,2.054-2.912,2.843-4.543c1.719-3.457,2.701-8.035,3.438-12.089l0.124-0.649
		c0.454-2.543,0.946-5.191,1.719-7.209c2.192-5.615,6.3-7.194,10.63-8.879c0.389-0.122,0.721-0.278,1.072-0.402
		c7.334-2.859,15.07-7.298,16.859-18.404c1.278-8,0.052-16.228-1.193-21.7c-2.456-10.771-9.842-18.123-20.281-20.193
		c-2.404-0.456-4.789-0.7-7.053-0.7c-7.314,0-13.544,2.456-17.509,6.896c-3.648,4.104-5.192,9.595-4.474,15.91
		c0.142,1.123,0.334,2.07,0.509,2.967c0.176,0.876,0.333,1.701,0.438,2.632c0.86,7.842-0.351,13.877-3.544,17.437
		c-2.087,2.334-4.964,3.528-8.543,3.528c-1.316,0-2.754-0.159-4.246-0.491c-1.333-0.298-2.701-0.703-3.999-1.105
		c-2.65-0.824-5.404-1.667-8.422-1.667c-1.578,0-3.105,0.229-4.631,0.687c-6.299,1.896-14.579,8.685-21.229,14.138
		c-4.597,3.774-7.701,8.018-9.21,12.633c-0.966,2.967-1.931,6-2.86,8.946c-4.017,12.649-8.141,25.738-14.825,37.369
		c-0.526,0.93-1.14,1.896-1.79,2.896c-1.667,2.577-3.385,5.264-4.07,7.946c-0.438,1.772-0.421,3.685-0.369,5.527
		c0,1.475,0.036,3-0.193,4.438c-0.562,3.597-0.929,7.511,0.019,11.455C158.63,350,178.577,355.666,190.103,357.632z
		 M155.752,322.842c0.228-1.492,0.21-3.052,0.193-4.561c-0.017-1.877-0.069-3.65,0.352-5.299c0.631-2.543,2.315-5.142,3.946-7.686
		c0.668-0.999,1.281-1.966,1.825-2.913c6.737-11.735,10.876-24.875,14.895-37.561c0.93-2.947,1.877-5.981,2.859-8.931
		c1.456-4.438,4.457-8.542,8.912-12.21c6.597-5.402,14.79-12.121,20.895-13.966c1.457-0.42,2.877-0.632,4.369-0.632
		c2.895,0,5.543,0.825,8.141,1.616c1.333,0.402,2.702,0.822,4.087,1.121c1.544,0.334,3.035,0.527,4.438,0.527
		c3.86,0,6.965-1.3,9.246-3.86c3.369-3.755,4.685-10.054,3.772-18.157c-0.122-0.967-0.281-1.809-0.457-2.686
		c-0.157-0.894-0.351-1.823-0.474-2.931c-0.701-6.018,0.754-11.262,4.211-15.139c3.806-4.266,9.753-6.597,16.824-6.597
		c2.212,0,4.51,0.228,6.877,0.684c10.056,1.982,17.176,9.087,19.544,19.474c1.229,5.404,2.438,13.474,1.178,21.333
		c-1.369,8.578-6.09,13.702-16.266,17.686c-0.35,0.139-0.719,0.281-1.068,0.42c-4.335,1.668-8.844,3.403-11.158,9.387
		c-0.824,2.105-1.314,4.791-1.771,7.402l-0.143,0.65c-0.717,3.965-1.683,8.489-3.35,11.842c-0.755,1.561-1.771,3.019-2.771,4.404
		c-1.266,1.787-2.562,3.647-3.439,5.84c-3.105,7.949-2.403,15.983-1.702,23.737c0.457,5.14,0.947,10.457,0.281,15.667
		c-0.053,0.42-0.105,0.844-0.176,1.299c-1.614,9.79-9.07,14.562-16.982,19.596c-1.807,1.16-3.684,2.354-5.474,3.615
		c-8.175,5.737-15.053,8.965-22.315,10.457c-2.492,0.524-5.298,0.788-8.104,0.788c-2.299,0-4.562-0.192-6.685-0.545
		c-11.316-1.929-30.842-7.456-34.509-22.735C154.841,330.158,155.208,326.387,155.752,322.842z"/>
	<path d="M193.594,347.93c0.895,0,1.808-0.033,2.684-0.104c11.054-1.035,18.158-6.931,25.668-13.156
		c1.859-1.545,3.789-3.144,5.789-4.668c3.263-2.526,5.579-5.438,6.877-8.755c3.035-7.7,0.122-16.665-7.597-23.387
		c-3.859-3.332-8.841-6.209-12.755-8.35c-1.086-0.599-2.245-0.984-3.403-1.334c-1.069-0.334-2.14-0.666-3.123-1.176
		c-1.421-0.719-2.087-1.525-2.877-2.457c-0.421-0.508-0.877-1.052-1.473-1.613c-1.842-1.664-4.456-2.615-7.404-2.615
		c-2.544,0-5.088,0.703-7.14,1.949c-2.475,1.508-3.474,3.895-4.438,6.174c-0.685,1.598-1.404,3.265-2.579,4.635
		c-1.702,1.998-3.93,3.49-6.088,4.945c-2.087,1.387-4.229,2.842-5.966,4.719c-7.069,7.771-8.824,17.457-4.771,26.632
		C169.822,340.298,181.595,347.93,193.594,347.93z M170.121,303.052c1.684-1.841,3.825-3.278,5.859-4.647
		c2.194-1.475,4.457-3.002,6.193-5.018c1.247-1.422,1.948-3.123,2.649-4.754c1.001-2.334,1.93-4.546,4.246-5.967
		c2-1.211,4.457-1.877,6.913-1.877c2.825,0,5.351,0.879,7.088,2.475c0.58,0.562,1.035,1.088,1.439,1.578
		c0.789,0.93,1.509,1.809,3.018,2.598c1.017,0.524,2.123,0.859,3.175,1.193c1.14,0.35,2.298,0.701,3.333,1.279
		c3.894,2.124,8.841,5,12.666,8.299c7.58,6.596,10.439,15.352,7.456,22.857c-1.262,3.229-3.508,6.09-6.719,8.545
		c-1.982,1.527-3.931,3.141-5.79,4.703c-7.456,6.174-14.491,12.017-25.404,13.018c-0.876,0.105-1.754,0.139-2.649,0.139
		c-11.842,0-23.42-7.525-28.157-18.277C161.472,320.193,163.156,310.666,170.121,303.052z"/>
	<path d="M186.717,334.193c0.984,0.211,2.001,0.315,3.071,0.315c6.771,0,14.561-4.352,15.912-11.649
		c0.157-0.859,0.228-1.771,0.192-2.666c-0.228-4.93-4.701-7.877-11.93-7.877c-4.368,0-9.036,1.158-11.614,2.877
		c-3.86,2.58-5.667,6.332-4.929,10.264C178.226,329.719,181.875,333.141,186.717,334.193z M182.613,315.578
		c2.49-1.667,7.052-2.787,11.35-2.787c2.615,0,11.14,0.541,11.456,7.419c0.036,0.879-0.017,1.738-0.192,2.581
		c-1.264,6.965-9,11.262-15.438,11.262c-1.035,0-2.036-0.121-2.983-0.313c-4.631-1.003-8.157-4.3-8.911-8.369
		C177.173,321.631,178.91,318.052,182.613,315.578z"/>
	<path d="M62.911,486.86c-4.386-1.157-7.772-2.02-11.387-2.493c-0.508-0.068-0.981-0.121-1.438-0.192
		c-1.912-0.298-3.579-0.562-5.403,0c-5.036,1.528-7.386,6.579-6.703,14.124h1.422c-0.422-4.824,0.139-11.105,5.684-12.791
		c1.544-0.454,2.965-0.244,4.771,0.037c0.492,0.07,0.983,0.158,1.474,0.227c3.545,0.439,6.737,1.266,11.211,2.456
		c6.035,1.598,12.421,4.316,18.562,6.948c2.578,1.089,5.105,2.176,7.526,3.123h3.965c-3.421-1.211-7.106-2.771-10.929-4.404
		C75.455,491.245,69.034,488.508,62.911,486.86z"/>
	<path d="M26.578,488.931c0.052-1.878,0.088-3.667,0-5.423c-0.018-0.611-0.054-1.244-0.088-1.856
		c-0.316-5.615-0.614-10.913,1.877-13.634c1.14-1.244,2.789-1.911,5.034-2c4.246-0.141,8.562,2.229,13.176,4.791
		c2.806,1.561,5.701,3.156,8.894,4.401c4.895,1.896,10.457,3.159,15.298,3.403c0.544,0.054,1.089,0.069,1.597,0.069
		c7.808,0,14.299-3.051,15.79-7.438c0.562-1.647,0.316-2.93,0.176-3.789l-0.071-0.264c-0.421-2.419-1.525-4.721-2.666-7.158
		c-1.387-2.842-2.824-5.823-3.333-9.368c-1.385-9.509,2.877-15.332,6.702-18.542c6.965-5.896,15.649-6.931,26.299-7.72l1.368-0.088
		c10.807-0.771,21.035-1.51,26.333-10.615c4.315-7.385,9.403-17.07,10.333-26.473c0.719-7.316-2.316-12.246-5.509-17.474
		c-1.351-2.178-2.736-4.475-3.894-6.981l-0.036-0.07l-0.052-0.071c-2.001-1.929-3.615-4.668-5.333-7.562
		c-3.158-5.368-6.421-10.912-12.527-12c-0.508-0.088-1.035-0.123-1.597-0.123c-2.385,0-4.631,0.736-5.491,1.07
		c-2.106,0.789-4.141,1.858-6.299,2.965c-2.876,1.509-5.876,3.052-8.999,3.895c-2.598,0.666-5.159,1.071-7.878,1.475
		c-2.613,0.369-5.315,0.771-8.104,1.476c-5.157,1.278-10.157,2.735-15,4.104c-9.825,2.808-19.105,5.474-29.842,7.123
		c-10.895,1.631-19,3.334-24.333,10.034c-2.473,3.089-3.999,6.3-5.508,9.404c-1.615,3.403-3.298,6.896-6.194,10.264
		c-1.14,1.279-2.297,2.49-3.439,3.647c-1.122,1.177-2.245,2.334-3.263,3.524v1.458c1.211-1.492,2.544-2.896,3.948-4.334
		c1.123-1.177,2.297-2.385,3.439-3.701c2.999-3.438,4.701-7,6.368-10.457c1.455-3.051,2.982-6.228,5.369-9.244
		c5.122-6.422,13.069-8.071,23.753-9.686c10.807-1.648,20.545-4.439,29.965-7.139c4.825-1.37,9.825-2.809,14.983-4.09
		c2.737-0.701,5.403-1.086,7.982-1.473c2.755-0.404,5.352-0.791,7.982-1.492c3.246-0.858,6.282-2.438,9.229-3.965
		c2.123-1.105,4.124-2.142,6.176-2.93c0.631-0.21,2.86-1.001,5.157-1.001c0.492,0,0.982,0.034,1.439,0.104
		c5.666,1.035,8.841,6.388,11.895,11.562c1.72,2.93,3.351,5.7,5.404,7.702c1.157,2.542,2.561,4.805,3.911,7.017
		c3.105,5.07,6.053,9.879,5.369,16.877c-0.912,9.209-5.947,18.789-10.21,26.106c-5.053,8.646-14.597,9.331-25.597,10.14
		l-1.369,0.088c-10.824,0.788-19.648,1.859-26.824,7.931c-4,3.369-8.474,9.455-7.018,19.385c0.526,3.703,1.982,6.738,3.385,9.668
		c1.158,2.367,2.212,4.597,2.615,6.896l0.052,0.264c0.141,0.805,0.351,1.928-0.14,3.313c-1.35,4-7.473,6.824-14.895,6.824
		c-0.491,0-1.017-0.034-1.543-0.067c-4.737-0.246-10.211-1.492-15.019-3.353c-3.122-1.229-6.017-2.809-8.789-4.352
		c-4.702-2.614-9.141-5.07-13.648-4.896c-2.51,0.088-4.387,0.859-5.685,2.28c-2.772,3.018-2.475,8.509-2.123,14.315
		c0.035,0.649,0.071,1.264,0.088,1.896c0.088,1.702,0.053,3.457,0,5.315c-0.035,1.913-0.088,3.912,0.017,5.86
		c0.052,1.191,0.159,2.368,0.298,3.543h0.949c-0.141-1.175-0.264-2.369-0.316-3.58C26.507,492.791,26.542,490.842,26.578,488.931z"
		/>
	<path d="M339.998,394.141c1.404,0.895,2.808,1.334,4.141,1.334c0.722,0,1.421-0.123,2.104-0.369c2.72-0.965,5.229-3.84,7.51-8.562
		c8.21-17.104,9.456-29.979,3.613-37.228c-1.509-1.877-3.403-2.823-5.649-2.823c-6.685,0-14.19,8.386-16.35,12.893
		c-3.421,7.091-2.947,16.089-2.598,19.599C333.262,383.859,334.541,390.721,339.998,394.141z M335.77,359.598
		c2.069-4.3,9.562-12.648,15.946-12.648c2.088,0,3.859,0.894,5.298,2.666c5.703,7.087,4.438,19.789-3.685,36.701
		c-2.228,4.632-4.648,7.438-7.228,8.353c-1.858,0.666-3.842,0.351-5.858-0.913c-5.28-3.314-6.525-10.033-6.999-14.809
		C332.874,375.457,332.42,366.58,335.77,359.598z"/>
	<path d="M298.805,347.578l-0.174,0.02c-3.387,0.088-6.439,3.647-7.212,6.945c-0.931,1.387,0.104,3.404,1.14,4.422l0.037,0.034
		l0.051,0.021c0.265,0.088,0.65,0.121,1.179,0.121c0.139,0,0.261,0,0.385,0l0.088-0.018l0.052-0.036
		c3.123-2.474,5.879-7.069,4.526-11.333L298.805,347.578z M294.121,358.684c-0.088,0-0.176,0-0.297,0
		c-0.527,0-0.809-0.051-0.984-0.104c-0.877-0.895-1.789-2.666-0.998-3.807l0.033-0.07c0.667-3.018,3.509-6.421,6.58-6.631
		C299.629,352.036,297.051,356.316,294.121,358.684z"/>
	<path d="M5.507,444.404L5.507,444.404c0.631,0,1.333-0.055,2.088-0.158c2.315-0.353,4.684-1.106,7.175-1.93
		c2.877-0.931,5.843-1.896,8.878-2.211c1.035-0.105,2.034-0.177,2.982-0.177c9.386,0,13.859,5.192,18.597,10.703
		c3.877,4.474,7.877,9.104,14.771,10.91l0.035,0.021h0.036c5.262-0.177,5.543-4.879,5.842-10.281
		c0.122-2.106,0.245-4.281,0.667-6.403c1.245-6.282,5.736-14.458,12-21.843l0.157-0.229c1.247-1.458,2.404-2.824,4.176-4.175
		c6.157-4.649,14.315-4.668,22.947-4.668c4.193,0,8.491,0,12.544-0.596c5.878-0.842,10.123-3.019,12.965-6.668
		c4.684-5.98,6.913-14.404,5.614-21.455c-0.895-5.017-3.474-8.965-7.456-11.42c-7.07-4.354-17.825-9.158-24.684-9.949
		c-1.421-0.155-3.615-0.265-5.755-0.265c-1.877,0-3.597,0.07-4.947,0.229c-6.228,0.649-13.053,2.946-20.281,5.421
		c-7.527,2.562-15.281,5.191-22.316,5.771c-1.509,0.142-3.07,0.229-4.579,0.3c-6.052,0.332-12.316,0.701-16.211,3.665
		c-4.246,3.247-6.052,7.563-8.14,12.599c-0.58,1.387-1.177,2.857-1.86,4.332c-1.333,2.387-3.158,4.824-5.088,7.402
		c-2.894,3.914-5.93,7.933-7.42,12.158c-0.667,1.949-1.229,4.002-1.772,6.019c-1.017,3.755-2.069,7.632-3.947,10.895
		c-0.228,0.371-0.457,0.721-0.685,1.071c-0.702,1.086-1.456,2.264-1.842,3.895v4.315C0.893,443.475,2.787,444.404,5.507,444.404z
		 M2.226,433.738c0.246-0.369,0.492-0.722,0.685-1.106c1.947-3.298,2.982-7.212,4-11.001c0.543-2,1.104-4.07,1.771-5.965
		c1.475-4.174,4.474-8.176,7.368-12.053c1.948-2.578,3.772-5.034,5.124-7.474c0.685-1.491,1.28-2.965,1.877-4.385
		c2.052-4.948,3.842-9.212,7.965-12.371c3.806-2.909,9.982-3.243,15.964-3.575c1.526-0.072,3.088-0.177,4.614-0.281
		c7.07-0.598,14.877-3.264,22.421-5.825c7.193-2.438,14-4.772,20.158-5.403c1.351-0.124,3.052-0.212,4.912-0.212
		c2.123,0,4.298,0.106,5.702,0.265c6.79,0.771,17.456,5.562,24.473,9.877c3.896,2.386,6.404,6.229,7.281,11.086
		c1.229,6.933-0.93,15.214-5.526,21.091c-2.791,3.562-6.93,5.684-12.684,6.524c-4.018,0.562-8.299,0.578-12.475,0.578
		c-8.333,0-16.947,0.019-23.228,4.756c-1.825,1.386-3.053,2.843-4.246,4.246l-0.176,0.21c-6.297,7.456-10.824,15.7-12.087,22.055
		c-0.439,2.154-0.544,4.366-0.684,6.49c-0.281,5.387-0.527,9.629-5.369,9.842c-6.72-1.789-10.667-6.369-14.492-10.771
		c-4.789-5.598-9.351-10.861-18.947-10.861c-0.965,0-1.982,0.055-3.018,0.158c-3.088,0.335-6.087,1.316-8.983,2.246
		c-2.473,0.809-4.824,1.58-7.123,1.912c-0.702,0.088-1.386,0.158-2,0.158l0,0c-2.72,0-4.526-1-5.28-2.858
		C-0.143,437.368,1.068,435.527,2.226,433.738z"/>
	<path d="M257.789,390.055c-1.878-5.457-4.598-12.511-6.562-15.984c-1.298-2.313-3.193-4.686-7.297-4.686
		c-0.457,0-0.966,0.037-1.458,0.088c-3.315,0.405-6.929,1.369-10.771,2.353c-4.702,1.228-10.052,2.614-15.614,3.192
		c-7.947,0.842-18.192,1.562-27.421,1.947c-3.632,0.475-6.948,2.508-9.105,5.596c-2.158,3.09-2.894,6.808-2.088,10.491l0.018,0.054
		c0.229,0.402,0.491,0.789,0.736,1.211c0.404,0.649,0.825,1.316,1.177,2.001l0.017,0.053l0.052,0.052
		c3.527,2.229,8.087,3.105,12.913,4.036c5.298,1.018,10.736,2.087,15.684,4.982c2.755,1.597,5.07,3.438,7.334,5.227
		c2.069,1.65,4,3.177,6.122,4.438c6.141,3.666,14.141,6.332,21.404,7.142c1.088,0.122,2.105,0.192,3.018,0.192l0,0
		c3.896,0,6.475-1.105,8.42-3.579c4.354-5.544,5.755-17.49,4.844-23.613C259.104,394.631,258.245,391.387,257.789,390.055z
		 M253.98,418.562c-1.859,2.385-4.264,3.401-8.036,3.401c-0.895,0-1.895-0.07-2.965-0.176c-7.192-0.808-15.122-3.474-21.21-7.07
		c-2.087-1.244-4.036-2.79-6.07-4.403c-2.28-1.808-4.614-3.664-7.404-5.28c-5-2.946-10.491-3.999-15.842-5.034
		c-4.736-0.93-9.229-1.807-12.666-3.947c-0.334-0.684-0.772-1.351-1.158-2c-0.246-0.369-0.491-0.771-0.702-1.141
		c-0.789-3.545-0.053-7.104,2.018-10.088c2.07-2.982,5.281-4.93,8.772-5.402c9.21-0.369,19.457-1.089,27.42-1.932
		c5.614-0.596,10.965-1.982,15.685-3.21c3.807-0.981,7.42-1.929,10.702-2.335c0.474-0.084,0.964-0.104,1.404-0.104
		c3.858,0,5.648,2.264,6.895,4.457c1.929,3.438,4.632,10.457,6.509,15.895c0.474,1.281,1.315,4.525,1.403,5.104
		C259.734,402,257.874,413.613,253.98,418.562z"/>
	<path d="M90.507,398.071L90.507,398.071c4.334,0,8.368-0.809,11.369-2.263c3.527-1.703,5.369-4.195,5.369-7.213
		c0-6.632-6.333-8.998-12.263-8.998c-5.333,0-10.947,1.752-14.667,4.543c-2.264,1.719-4.667,3.895-4.316,7.963
		C77.103,396.211,84.279,398.071,90.507,398.071z M80.595,384.525c3.632-2.736,9.14-4.455,14.386-4.455
		c7.385,0,11.79,3.177,11.79,8.525c0,3.579-2.772,5.649-5.105,6.789c-2.931,1.438-6.896,2.212-11.159,2.212l0,0
		c-7.386,0-13.175-2.3-14.035-5.562C76.138,388.247,78.42,386.157,80.595,384.525z"/>
	<path d="M237.297,389.966c-2.72-2.51-6.421-3.825-10.719-3.825c-4.176,0-8.562,1.281-12,3.527l-0.088,0.068l-0.018,0.088
		c-0.052,0.334-0.192,0.596-0.421,0.809l-0.053,0.07c-0.333,0.771-0.104,1.4,0.141,2c0.141,0.42,0.298,0.788,0.281,1.208v0.088
		l0.052,0.071c3.491,4.438,9.982,12.754,17.562,12.754l0,0c1.192,0,2.369-0.211,3.543-0.596c2.825-0.982,4.738-3.054,5.299-5.844
		C241.63,396.824,240.174,392.648,237.297,389.966z M240.419,400.281c-0.368,1.843-1.561,4.299-4.981,5.49
		c-1.123,0.404-2.263,0.577-3.404,0.577l0,0c-7.299,0-13.701-8.086-17.157-12.507c0-0.474-0.142-0.896-0.316-1.299
		c-0.211-0.562-0.386-1.052-0.123-1.613c0.229-0.246,0.386-0.562,0.474-0.912c3.351-2.193,7.597-3.422,11.667-3.422
		c4.158,0,7.771,1.299,10.403,3.719C239.753,392.876,241.121,396.895,240.419,400.281z"/>
	<path d="M194.454,421.018c-1.333-0.422-3.649-0.876-5.386-1.052c-2.947-0.298-5.947-0.456-8.894-0.456
		c-17.315,0-30.72,5.121-35.807,13.718c-2.07,3.475-3.544,6.635-4.965,9.702c-3.053,6.543-5.668,12.192-12.791,18.335
		c-1.597,1.401-3.579,2.7-5.526,3.966c-1.281,0.84-2.597,1.719-3.825,2.611c-2.385,1.756-4.841,3.579-4.79,7.439v0.069l0.018,0.052
		c2.106,4.212,5.631,8.248,9.422,10.773c4.613,3.086,14.245,6.245,21.876,7.155c1.58,0.176,3.124,0.301,4.562,0.301l0,0
		c9.738,0,14.72-4.404,20-9.035c1.457-1.266,2.965-2.614,4.596-3.859c0.861-0.667,1.755-1.333,2.65-2.018
		c9.246-7.053,19.736-15.054,28.982-26.001c2.018-2.386,3.597-5.264,4-7.3C210.665,435.334,202.559,423.579,194.454,421.018z
		 M208.139,445.334c-0.404,1.93-1.982,4.788-3.931,7.088c-9.193,10.91-19.648,18.877-28.894,25.947c-0.912,0.666-1.79,1.35-2.649,2
		c-1.649,1.262-3.158,2.595-4.632,3.877c-5.21,4.58-10.122,8.894-19.684,8.894c-1.421,0-2.946-0.088-4.508-0.279
		c-7.579-0.911-17.089-4-21.667-7.07c-3.701-2.474-7.175-6.422-9.246-10.56c-0.017-3.616,2.334-5.335,4.614-7.002
		c1.192-0.895,2.527-1.772,3.808-2.596c1.93-1.266,3.946-2.598,5.562-4.002c7.21-6.229,9.859-11.895,12.911-18.491
		c1.404-3.068,2.878-6.245,4.931-9.683c5.035-8.439,18.28-13.475,35.421-13.475c2.947,0,5.93,0.14,8.842,0.438
		c1.72,0.195,3.983,0.633,5.316,1.055C202.244,423.965,210.174,435.474,208.139,445.334z"/>
	<path d="M178.261,430.809c-7.772,0-15.754,2.931-19.403,7.121c-3.807,4.352-6.245,10.597-8.615,16.613
		c-1.175,3.035-2.403,6.178-3.753,8.948c-1.421,2.686-1.421,5.648-0.054,7.964c1.282,2.09,3.509,3.281,6.159,3.281l0,0
		c0.438,0,0.877-0.019,1.351-0.105c0.842-0.104,2.052-0.561,3.841-1.403c3.387-1.576,7.299-3.578,11.439-5.684
		c1.49-0.755,2.982-1.526,4.456-2.263c3.983-2.019,8.141-5.247,10.298-7.405c3.703-3.682,7.825-9.419,8.721-13.857
		c0.701-3.511,0.122-6.402-1.72-8.648C188.56,432.439,184.051,430.809,178.261,430.809z M192.244,443.931
		c-0.878,4.352-4.931,9.964-8.579,13.613c-2.141,2.124-6.245,5.332-10.193,7.317c-1.475,0.754-2.983,1.508-4.438,2.263
		c-4.158,2.104-8.071,4.087-11.439,5.684c-1.737,0.807-2.947,1.245-3.72,1.367c-0.438,0.071-0.876,0.088-1.28,0.088l0,0
		c-2.492,0-4.562-1.123-5.736-3.052c-1.316-2.158-1.316-4.966,0.034-7.51c1.368-2.809,2.597-5.947,3.789-8.982
		c2.351-5.998,4.773-12.19,8.526-16.491c3.562-4.087,11.404-6.945,19.053-6.945c5.633,0,10.036,1.561,12.352,4.385
		C192.349,437.791,192.911,440.562,192.244,443.931z"/>
	<path d="M121.788,448.525c1.473-1.665,3.456-5.105,3.228-7.562c-0.386-4.121-3.929-6.473-9.719-6.473
		c-6.631,0-14.753,3.262-16.35,8.14c-0.316,1.001-0.211,1.702-0.124,2.544c0.053,0.545,0.124,1.211,0.071,2.036v0.052l0.035,0.07
		c1.824,4.087,5.719,6.438,10.667,6.438l0,0C114.156,453.771,118.946,451.719,121.788,448.525z M109.595,453.299
		c-4.738,0-8.457-2.229-10.211-6.123c0.036-0.843-0.035-1.492-0.104-2.069c-0.088-0.789-0.158-1.438,0.123-2.314
		c1.49-4.615,9.561-7.845,15.894-7.845c2.615,0,8.738,0.599,9.264,6.07c0.21,2.281-1.737,5.65-3.124,7.193
		C118.682,451.316,114.034,453.299,109.595,453.299z"/>
	<path d="M336.473,462.754l0.034,0.07c0.825,0.947,1.966,1.492,3.019,1.492c0.632,0,1.228-0.177,1.771-0.545l0.051-0.07
		c0.527-0.685,0.722-1.438,0.562-2.246c-0.315-1.824-2.122-3.156-2.684-3.543l-0.055-0.036h-0.052
		c-0.648-0.068-1.211-0.034-1.579,0.159c-1.702,1.018-1.333,3.21-1.089,4.668L336.473,462.754z M337.752,458.438
		c0.246-0.121,0.721-0.139,1.265-0.104c1.053,0.703,2.228,1.914,2.456,3.193c0.105,0.687-0.054,1.315-0.474,1.86
		c-0.438,0.314-0.947,0.474-1.475,0.474c-0.913,0-1.878-0.49-2.599-1.3C336.683,461.157,336.365,459.279,337.752,458.438z"/>
	<path d="M238.139,477.876c0.421-3.929-0.035-7.666-1.087-9.087c-2.598-3.491-10.124-4.736-16.334-4.736
		c-4.069,0-7.842,0.508-10.333,1.438c-4.561,1.686-9.579,6.193-13.613,9.824c-2.317,2.054-4.931,4.124-7.439,6.141
		c-6.473,5.142-13.123,10.422-16.299,16.844h0.509c3.193-6.229,9.719-11.438,16.087-16.492c2.51-2,5.124-4.053,7.456-6.141
		c4-3.613,8.983-8.088,13.474-9.736c2.439-0.896,6.14-1.42,10.157-1.42c5.807,0,13.457,1.193,15.966,4.543
		c0.964,1.316,1.386,5,1,8.771c-0.509,4.824-2.597,13.439-4.281,19.388c-0.122,0.366-0.227,0.718-0.333,1.087h0.474
		c0.123-0.314,0.211-0.633,0.299-0.947C235.56,491.35,237.63,482.72,238.139,477.876z"/>
	<path d="M2.945,475.737c-0.981,0-1.964,0.104-2.947,0.314v0.49c0.982-0.21,1.965-0.35,2.947-0.35c3.843,0,7.212,1.735,9.738,5.034
		c2.648,3.439,4.176,10.177,4.491,17.07h0.421c-0.316-7-1.842-13.844-4.526-17.369C10.437,477.544,6.928,475.737,2.945,475.737z"/>
	<path d="M213.753,490.474c-0.176-0.122-0.229-0.332-0.316-0.579c-0.088-0.264-0.176-0.596-0.492-0.808l-0.07-0.034
		c-0.49-0.176-1.017-0.264-1.509-0.264c-3.368,0-6.385,3.789-6.771,7.053l-0.018,0.123l0.123,0.104
		c0.122,0.088,0.193,0.279,0.281,0.456c0.034,0.125,0.07,0.246,0.14,0.352l0.036,0.071l0.051,0.017
		c0.703,0.353,1.422,0.525,2.212,0.525l0,0c1.614,0,3.262-0.771,4.543-2.156c1.297-1.352,1.982-3.07,1.877-4.685v-0.104
		L213.753,490.474z M211.63,495.018c-1.211,1.265-2.736,1.999-4.21,1.999l0,0c-0.703,0-1.334-0.155-1.931-0.454
		c-0.034-0.054-0.051-0.125-0.086-0.192c-0.071-0.192-0.159-0.422-0.333-0.598c0.403-3.035,3.192-6.525,6.297-6.525
		c0.438,0,0.878,0.104,1.316,0.227c0.176,0.158,0.245,0.334,0.316,0.581c0.07,0.244,0.158,0.508,0.386,0.7
		C213.42,492.229,212.806,493.771,211.63,495.018z"/>
	<path d="M2.806,493.088c-0.79-0.544-1.685-0.842-2.598-0.842c-0.069,0-0.139,0.018-0.21,0.018v0.474c0.071,0,0.141,0,0.21,0
		c0.825,0,1.615,0.247,2.317,0.721c1.316,0.91,2.104,2.666,2.14,4.666c0,0.07-0.018,0.124-0.018,0.176h0.474
		c0-0.052,0-0.104,0-0.176C5.103,495.947,4.244,494.07,2.806,493.088z"/>
	<path d="M487.945,269.525c-8.648,3.123-15.525,10.859-16.316,18.351c-0.438,3.913,0.581,9.563,7.773,14.072
		c0.474,0.28,0.894,0.562,1.35,0.825c3.877,2.401,7.193,4.473,9.477,8.613c2.646,4.823,2.154,9.12,1.595,14.104
		c-0.141,1.316-0.299,2.686-0.387,4.07c-0.421,6.332,3.756,10.614,8.562,14.772v-1.878c-4.105-3.648-7.527-7.49-7.176-12.825
		c0.104-1.35,0.247-2.683,0.402-3.981c0.562-5,1.071-9.719-1.771-14.928c-2.456-4.477-5.947-6.65-9.98-9.142
		c-0.422-0.265-0.879-0.545-1.299-0.81c-5.229-3.28-7.703-7.699-7.176-12.754c0.771-6.981,7.246-14.211,15.438-17.176
		c3.667-1.314,7.491-2.209,11.545-3.139c0-0.018,0.018-0.018,0.018-0.018v-1.44c-0.104,0.021-0.227,0.054-0.332,0.071
		C495.561,267.279,491.699,268.176,487.945,269.525z"/>
	<path d="M481.419,145.105c-6.475-0.932-12.808-1.668-18.965-0.211c-7.771,1.844-13.843,5.755-19.896,9.946
		c-3.42,2.37-7.209,4.701-10.893,6.966c-5.439,3.387-10.599,6.545-13.932,9.438c-7.07,6.14-9.562,12.614-8.597,22.388
		c1.019,10.509,3.141,19.033,5.21,27.314c1.491,5.965,3.034,12.141,4.124,19.019c0.28,1.702,0.578,3.421,0.894,5.244
		c1.37,7.842,2.913,16.719,2.142,23.562c-1.035,9.176-7.754,16.912-17.562,20.192l-2.878,0.545h2.351
		c-0.033,0.052-0.051,0.121-0.088,0.192c-0.033,0.158-0.017,0.314,0.055,0.474c0.051,0.104-2.754,0.313-2.648,0.386
		c0.314,0.211,3.646,0.018,3.877-0.314l0.017-0.036c10.193-3.472,17.193-11.631,18.281-21.299
		c0.771-7.017-0.788-16.017-2.158-23.945c-0.313-1.825-0.612-3.545-0.876-5.229c-1.123-6.929-2.666-13.141-4.175-19.142
		c-2.036-8.211-4.16-16.685-5.176-27.12c-0.913-9.246,1.438-15.388,8.123-21.158c3.262-2.824,8.35-5.983,13.752-9.316
		c3.687-2.263,7.51-4.613,10.967-7.019c6.157-4.264,11.877-7.946,19.422-9.736c5.893-1.384,12.087-0.684,18.42,0.247
		c2.018,0.297,3.982,0.561,5.93,0.842c4.511,0.613,8.808,1.211,12.859,1.982v-1.421c-3.999-0.771-8.244-1.354-12.684-1.967
		C485.384,145.666,483.436,145.402,481.419,145.105z"/>
	<path d="M459.121,484.878c-2.946-4.229-5.736-8.228-4.193-13.948c1.019-3.789,4.069-5.823,7.299-7.981
		c3.422-2.298,6.967-4.632,7.981-9.265c1.37-6.034,0.913-20.699-0.088-25.157c-0.349-1.577-1.175-3.296-2.051-5.105
		c-1.723-3.559-3.667-7.595-2.405-11.35c1.668-4.896,7.825-8.491,13.807-11.982c2.477-1.438,4.808-2.824,6.81-4.246
		c5.387-3.913,13.509-9.823,11.912-19.19c-1.3-7.58-7.578-10.825-14.229-14.267c-3.981-2.069-7.771-5.067-11.455-7.979
		c-4.51-3.562-9.158-7.246-14.299-9.334c-0.579-0.246-1.141-0.49-1.702-0.721c-1.245-0.562-2.544-1.14-3.931-1.509
		c-0.475-0.139-0.998-0.264-1.525-0.42c-4.368-1.192-10.35-2.808-16.123-2.808c-1.878,0-3.631,0.176-5.211,0.527
		c-8.718,1.875-15.209,12.437-17.087,21.857c-3.298,16.457,2.858,26.052,8.262,34.543c2.229,3.475,4.337,6.771,5.581,10.264
		c0.771,2.177,1.543,5.511,0.666,8.932c-2.543,10.088-10.334,18.931-18.596,28.298c-2.002,2.246-4.072,4.598-6.055,6.966
		c-4.367,5.192-8.332,9.245-12.474,12.771l-0.314,0.264c-2.51,2.104-4.896,4.141-6.808,6.857c-0.246,0.335-0.474,0.688-0.684,1.02
		c-4.634,7.455-5.247,13.633-1.878,18.947c1.158,1.807,2.666,3.247,4.139,4.631c0.931,0.896,1.877,1.807,2.739,2.809h1.807
		c-0.191-0.228-0.386-0.475-0.562-0.684c-0.93-1.16-2.002-2.158-3.019-3.144c-1.475-1.385-2.842-2.699-3.913-4.366
		c-3.052-4.809-2.438-10.509,1.878-17.439c0.191-0.314,0.423-0.63,0.614-0.947c1.823-2.596,4.157-4.561,6.598-6.631l0.313-0.264
		c4.192-3.561,8.211-7.666,12.615-12.912c2-2.369,4.07-4.7,6.053-6.946c8.387-9.492,16.296-18.474,18.895-28.877
		c0.946-3.771,0.142-7.388-0.7-9.771c-1.299-3.632-3.44-6.982-5.721-10.546c-5.265-8.244-11.245-17.596-8.053-33.508
		c1.808-8.981,7.876-19,15.999-20.771c1.491-0.315,3.158-0.476,4.912-0.476c5.578,0,11.457,1.599,15.754,2.771
		c0.545,0.143,1.056,0.281,1.528,0.404c1.279,0.332,2.474,0.877,3.735,1.438c0.562,0.244,1.141,0.509,1.719,0.718
		c4.966,2.036,9.546,5.649,13.965,9.141c3.721,2.967,7.598,6.019,11.701,8.143c6.598,3.42,12.301,6.367,13.475,13.244
		c1.457,8.509-6.245,14.124-11.367,17.825c-1.914,1.403-4.229,2.754-6.685,4.175c-6.194,3.633-12.598,7.352-14.404,12.736
		c-1.455,4.315,0.615,8.615,2.456,12.404c0.842,1.753,1.613,3.403,1.948,4.809c0.981,4.333,1.367,18.858,0.104,24.561
		c-0.911,4.069-4.086,6.174-7.422,8.387c-3.277,2.21-6.7,4.491-7.857,8.806c-1.72,6.334,1.387,10.791,4.403,15.104
		c2.246,3.229,4.596,6.58,5.156,10.879c0.071,0.597,0.107,1.175,0.159,1.736h1.403c-0.034-0.613-0.088-1.246-0.177-1.912
		C463.929,491.756,461.49,488.264,459.121,484.878z"/>
	<path d="M493.841,413.508c-1.387,3.633-2.966,7.737-5.054,11.299c-0.474,0.81-0.998,1.614-1.562,2.457
		c-2.966,4.598-6.335,9.789-5,19.789c0.281,2.088,0.932,4.142,1.562,6.175c0.947,2.983,1.932,6.071,1.668,9.245
		c-0.193,2.649-1.526,5.667-2.298,7.246c-0.967,1.982-1.932,3.686-2.845,5.335c-3.366,6.104-6.035,10.947-6.087,23.245h0.931
		c0.052-12.054,2.545-16.561,5.981-22.809c0.931-1.631,1.859-3.351,2.843-5.35c0.823-1.649,2.211-4.79,2.403-7.581
		c0.265-3.365-0.736-6.56-1.701-9.631c-0.649-2.053-1.266-3.999-1.546-6.018c-1.278-9.632,2.002-14.685,4.896-19.158
		c0.527-0.842,1.071-1.647,1.562-2.49c2.121-3.612,3.719-7.754,5.121-11.421c1.175-3.054,2.265-5.931,3.44-7.842
		c0.562-0.913,1.19-1.772,1.841-2.614v-1.438c-0.947,1.104-1.841,2.263-2.648,3.56C496.139,407.49,495.068,410.281,493.841,413.508z
		"/>
	<path d="M444.684,399.053L444.684,399.053c9.51,0,22.771-8.475,24.142-17.982c0.771-5.42-1.773-11.982-6.982-17.998
		c-6.546-7.545-15.599-12.422-23.089-12.422c-3.247,0-6.105,0.875-8.509,2.632c-7.631,5.524-8.264,15.438-8.054,22.456
		c2.175,12.227,10.247,21.525,20.054,23.14C443.033,398.999,443.857,399.053,444.684,399.053z M422.646,375.666
		c-0.192-6.859,0.438-16.613,7.879-22.016c2.313-1.668,5.088-2.527,8.228-2.527c7.352,0,16.279,4.807,22.737,12.246
		c5.104,5.93,7.631,12.352,6.858,17.648c-1.335,9.297-14.333,17.577-23.666,17.577c-0.809,0-1.598-0.051-2.352-0.191
		C432.701,396.844,424.788,387.686,422.646,375.666z"/>
	<path d="M499.788,441.193l0.017,0.052c0.071,0.142,0.141,0.28,0.193,0.423v-4.266C499.754,438.457,499.646,439.648,499.788,441.193
		z"/>
	<path d="M444.998,381.316c2.017,0,4.053-1.404,4.842-3.334c0.721-1.719,0.316-3.457-1.053-4.844
		c-0.825-0.822-2.033-1.279-3.35-1.279c-1.58,0-3.089,0.649-4.02,1.754c-0.894,1.035-1.245,2.422-1.019,3.984l0.018,0.051
		C441.736,380.842,443.857,381.316,444.998,381.316L444.998,381.316z M440.875,377.49c-0.228-1.401,0.088-2.629,0.896-3.579
		c0.858-0.999,2.21-1.595,3.667-1.595c1.19,0,2.279,0.438,3.018,1.158c1.685,1.684,1.333,3.438,0.965,4.315
		c-0.721,1.771-2.598,3.051-4.422,3.051C443.226,380.842,441.771,379.668,440.875,377.49z"/>
	<path d="M442.156,426.824c-0.685,0-1.351,0.124-2,0.3c-6.071,1.911-8,9.456-6.771,15.947l0.033,0.052
		c1.299,2.702,4.09,4.245,7.649,4.245l0,0c3.386,0,6.843-1.421,9.036-3.686c1.649-1.719,2.473-3.771,2.385-5.979
		C452.314,432.912,447.42,426.824,442.156,426.824z M449.771,443.352c-2.107,2.193-5.439,3.543-8.704,3.543l0,0
		c-3.385,0-5.999-1.421-7.21-3.946c-1.193-6.264,0.633-13.562,6.422-15.351c0.611-0.213,1.244-0.301,1.877-0.301
		c4.878,0,9.702,5.879,9.878,10.423C452.102,439.807,451.314,441.738,449.771,443.352z"/>
	<path d="M432.789,473.211c-3.089-4.896-7.545-7.859-12.581-8.35c-0.491-0.056-0.981-0.071-1.509-0.071
		c-8.491,0-19.017,6.403-23.543,12.386c-1.859,2.455-2.756,5.527-2.438,8.439c0.947,4.735,3.21,9.016,6.157,12.684h0.615
		c-3.037-3.668-5.369-7.984-6.316-12.754c-0.3-2.771,0.562-5.738,2.353-8.089c4.455-5.895,14.823-12.192,23.174-12.192
		c0.51,0,1.001,0.019,1.475,0.07c4.878,0.455,9.209,3.367,12.228,8.141c2.58,4.054,4.634,9.824,6.633,15.402
		c1.141,3.229,2.332,6.543,3.58,9.422h0.508c-1.279-2.93-2.49-6.299-3.668-9.578C437.471,483.105,435.4,477.316,432.789,473.211z"/>
	<path d="M483.753,493c-0.423,1.668-0.737,3.455-0.896,5.299h0.473c0.159-1.807,0.475-3.562,0.879-5.211
		c0.982-7.525,8.35-14.912,15.789-16.545v-0.49C492.262,477.648,484.788,485.142,483.753,493z"/>
	<path d="M496.263,494.351c-0.861,1.123-1.335,2.475-1.387,3.948h0.474c0.052-1.351,0.475-2.633,1.279-3.668
		c0.896-1.14,2.107-1.823,3.369-1.895v-0.474C498.577,492.334,497.244,493.088,496.263,494.351z"/>
	<path d="M487.4,153.265c-7.524-1.335-15.299-2.736-22.629-0.896c-6.982,1.755-12.371,6.069-18.105,10.632
		c-2.07,1.648-4.212,3.333-6.438,4.947l-0.896,0.632c-3.914,2.771-7.947,5.632-11.736,8.718l-0.054,0.056
		c-5.142,5.279-5.562,12.595-5.314,19.035c0.034,1.174,0.067,2.385,0.122,3.612c0.265,7.599,0.545,15.475,1.771,19.931
		c1.455,5.279,4.49,9.509,7.42,13.633c4.458,6.262,8.688,12.175,7.264,21.14c-0.174,1.211-0.56,2.456-0.931,3.686
		c-0.474,1.596-0.98,3.227-1.104,4.877c-0.104,1.422,0.155,2.736,0.42,4.017c0.158,0.858,0.335,1.702,0.386,2.562
		c0.281,4.157-0.822,9.002-2.998,13.264c-4.106,8.053-12.124,13.877-21.44,15.597c-3.052,0.578-6.14,1.299-9.141,2.002
		c-5.104,1.209-10.386,2.456-15.562,2.91c-1.227,0.088-2.402,0.192-3.576,0.28c-10.335,0.843-19.229,1.545-29.158,6.177
		c-2.404,1.123-5.021,2.054-7.544,2.965c-7.614,2.719-15.493,5.526-18.774,13.754c-1.981,4.931-4.666,9.58-7.279,14.088
		c-3.735,6.457-7.612,13.122-9.419,20.755c-1.369,5.754-0.511,11.596,0.35,17.264c0.124,0.72,0.212,1.457,0.316,2.175
		c1.12,7.757,1.595,14.177,0.262,20.335c-1.597,7.422-6.279,11.018-17.91,13.771c-10.879,2.578-15.39,4.087-17.651,15.701
		c-0.386,2.106-0.755,4.266-1.104,6.353c-2.368,13.735-4.58,26.719-16.807,30.332c-3.354,0.983-8.599,0.809-12.107-1.491
		c-2.104-1.367-3.333-3.351-3.649-5.823c-0.262-1.947-0.316-4.035-0.386-6.071c-0.123-3.49-0.228-6.79-1.192-9.577
		c-2.053-5.913-7.843-9.455-14.526-13.597c-3.018-1.878-6.14-3.789-9.141-6.089c-2.175-1.648-4.036-3.281-5.859-4.824
		c-4.878-4.211-9.088-7.824-15.947-9.334c-3.877-0.876-8.474-1.067-12.913-1.244c-9.124-0.387-17.737-0.737-20.052-6.491
		c-0.825-2.104-0.333-5.228,0.122-7.983c0.052-0.332,0.106-0.667,0.14-0.98c0.176-1.105,0.333-2.28,0.509-3.508
		c1.263-9.301,3.018-22.055,11.72-23.316c3.069-0.456,6.79-0.088,10.684,0.314c1.352,0.122,2.737,0.28,4.124,0.368
		c12.456,0.981,21.595-1.262,27.385-3.051c6.157-1.878,11.035-5.406,15.79-8.81c4.562-3.278,8.877-6.367,14.139-8.018
		c2-0.613,4.21-1.105,6.563-1.631c8.474-1.861,18.088-3.965,20.843-13.545c2.191-7.684-1.3-15.999-4.687-24.018
		c-1.647-3.877-3.21-7.543-4.035-10.967c-1.981-8.314,1.613-17.734,4.772-26.031c0.648-1.738,1.263-3.354,1.841-4.983
		c1.913-5.456,4.51-8.843,9.844-12.966c8.123-6.246,13.035-12.981,18.192-24.859c0.369-0.876,0.735-1.701,1.121-2.561
		c1.617-3.738,3.144-7.246,4.949-11.896c2.176-3.562,4.598-6.177,6.72-8.475c3.368-3.649,6.299-6.808,7.351-12.279
		c0.21-1.019,0.315-2.088,0.439-3.211c0.121-1.248,0.228-2.527,0.508-3.809c1.193-5.843,5.298-9.264,9.263-12.562
		c3.423-2.842,6.965-5.789,8.335-10.192c1.245-3.999,1.279-6.562,0.876-11.123c-0.859-9.404-4.069-16.632-8.825-19.858
		c-3.122-2.106-6.857-2.526-11.052-1.265c-8.333,2.51-21.019,18.402-23.476,21.562c-0.577,0.737-1.141,1.492-1.7,2.209
		c-3.841,5.055-7.457,9.809-12.755,11.79c-4.598,1.719-10.7,2.368-17.157,3.089c-3.896,0.42-7.947,0.859-11.735,1.561
		c-15.353,2.824-26.229,13.545-28.334,27.982c-0.14,0.965-0.192,2.088-0.262,3.229c-0.124,2.316-0.264,4.932-1.089,6.878
		c-1.543,3.701-5.438,4.524-9.543,5.422c-1.28,0.281-2.597,0.562-3.842,0.928c-4.457,1.318-8.316,3.859-12.088,6.354
		c-4.508,2.945-9.158,6.019-14.982,7.191c-2.263,0.457-4.964,0.703-7.596,0.913c-3.474,0.298-7.07,0.597-9.772,1.438
		c-8.807,2.719-6.737,10.979-5.088,17.63c0.368,1.438,0.702,2.791,0.912,4.018c1.106,6.247,0.632,12.966-1.492,21.143
		c-0.438,1.719-0.789,3.403-1.122,5.018c-0.913,4.367-1.79,8.509-4.316,12.648c-2.088,3.457-3.93,4.264-6.982,5.612
		c-0.824,0.353-1.737,0.755-2.737,1.267c-9.157,4.524-16.087,10.717-23.403,17.278l-1.578,1.404
		c-2.422,2.157-4.562,4.578-6.65,6.912c-2.297,2.595-4.701,5.264-7.402,7.561c-4.545,3.789-10.159,6.701-17.615,9.142
		c-5.158,1.685-10.457,3.123-15.543,4.525c-7.789,2.143-15.842,4.333-23.614,7.438c-6.842,2.738-22.053,4.687-31.316,1.615
		c-4.86-1.58-10.876-5.508-18.456-12c-0.457-0.369-0.878-0.737-1.264-1.123v1.896c0.105,0.104,0.21,0.192,0.352,0.313
		c7.807,6.701,13.842,10.582,18.93,12.265c9.929,3.264,25.386,1.071,32.28-1.666c7.684-3.07,15.702-5.265,23.456-7.388
		c5.124-1.385,10.404-2.842,15.615-4.543c7.63-2.508,13.368-5.491,18.052-9.404c2.825-2.331,5.247-5.068,7.58-7.7
		c2.052-2.3,4.157-4.668,6.525-6.789l1.58-1.422c7.263-6.491,14.105-12.614,23.087-17.053c0.982-0.474,1.895-0.894,2.703-1.245
		c3.069-1.352,5.281-2.334,7.614-6.157c2.632-4.351,3.526-8.614,4.474-13.104c0.333-1.598,0.701-3.265,1.123-4.933
		c2.175-8.403,2.649-15.313,1.509-21.753c-0.229-1.281-0.562-2.648-0.93-4.105c-1.685-6.701-3.386-13.631,4.123-15.965
		c2.579-0.771,6.087-1.086,9.474-1.367c2.666-0.246,5.421-0.474,7.772-0.93c6.104-1.229,10.877-4.388,15.474-7.423
		c3.841-2.526,7.456-4.912,11.701-6.174c1.21-0.352,2.492-0.633,3.754-0.896c4.299-0.931,8.702-1.877,10.544-6.229
		c0.913-2.19,1.071-4.929,1.193-7.351c0.052-1.141,0.106-2.21,0.264-3.122c1.999-13.808,12.438-24.088,27.193-26.807
		c3.719-0.685,7.754-1.123,11.631-1.544c6.543-0.702,12.736-1.369,17.49-3.159c5.669-2.121,9.422-7.054,13.387-12.246
		c0.561-0.734,1.105-1.473,1.667-2.191c6.685-8.597,16.65-19.246,22.771-21.105c3.792-1.123,7.107-0.756,9.861,1.105
		c4.422,2.966,7.422,9.824,8.229,18.825c0.386,4.209,0.438,6.614-0.807,10.542c-1.248,4.035-4.492,6.701-7.896,9.562
		c-4.157,3.455-8.44,7.019-9.736,13.367c-0.28,1.333-0.423,2.651-0.544,3.914c-0.105,1.105-0.228,2.142-0.403,3.105
		c-1.001,5.069-3.792,8.088-7.002,11.596c-2.21,2.352-4.683,5.035-6.929,8.736l-0.054,0.124c-1.79,4.647-3.333,8.174-4.946,11.895
		c-0.386,0.859-0.754,1.686-1.123,2.562c-5.054,11.631-9.842,18.227-17.736,24.315c-5.613,4.297-8.315,7.857-10.334,13.613
		c-0.58,1.578-1.191,3.209-1.842,4.929c-3.247,8.491-6.912,18.104-4.807,26.878c0.842,3.545,2.422,7.246,4.068,11.174
		c3.299,7.791,6.719,15.879,4.633,23.105c-2.508,8.755-11.687,10.773-19.771,12.544c-2.386,0.526-4.648,1.019-6.684,1.649
		c-5.474,1.719-10.105,5.034-14.544,8.229c-4.648,3.335-9.438,6.807-15.386,8.613c-5.667,1.738-14.65,3.947-26.859,2.982
		c-1.368-0.088-2.755-0.229-4.07-0.367c-4.001-0.388-7.808-0.756-11.035-0.3c-9.79,1.422-11.58,14.772-12.931,24.511
		c-0.157,1.244-0.314,2.385-0.474,3.475c-0.069,0.314-0.122,0.646-0.174,0.98c-0.457,2.946-1.001,6.281-0.018,8.737
		c2.648,6.597,11.685,6.963,21.299,7.349c4.367,0.195,8.894,0.371,12.684,1.211c6.491,1.44,10.386,4.809,15.315,9.036
		c1.825,1.579,3.72,3.193,5.913,4.896c3.052,2.315,6.228,4.279,9.28,6.157c6.457,3.983,12.018,7.422,13.913,12.86
		c0.895,2.596,1.018,5.788,1.123,9.175c0.052,2.054,0.123,4.176,0.386,6.212c0.387,2.858,1.842,5.21,4.281,6.807
		c3.877,2.51,9.597,2.736,13.264,1.665c13.068-3.877,15.475-17.895,17.788-31.455c0.352-2.087,0.737-4.229,1.123-6.299
		c2.054-10.649,5.858-12.087,16.579-14.614c10.264-2.42,17-5.754,18.965-14.842c1.367-6.367,0.911-12.946-0.228-20.824
		c-0.106-0.734-0.229-1.455-0.334-2.193c-0.858-5.771-1.686-11.244-0.368-16.734c1.735-7.405,5.577-14.002,9.263-20.352
		c2.648-4.545,5.368-9.264,7.368-14.281c3.037-7.647,10.28-10.246,17.948-12.965c2.562-0.914,5.21-1.86,7.666-3.019
		c9.684-4.526,18.491-5.228,28.667-6.035c1.176-0.088,2.368-0.192,3.579-0.28c5.281-0.457,10.63-1.719,15.771-2.947
		c2.979-0.684,6.068-1.438,9.069-1.981c9.754-1.807,18.14-7.912,22.438-16.351c2.334-4.543,3.454-9.526,3.157-13.981
		c-0.088-0.948-0.244-1.86-0.42-2.739c-0.265-1.244-0.476-2.401-0.388-3.629c0.089-1.511,0.562-3.002,1.035-4.58
		c0.403-1.264,0.789-2.578,0.999-3.896c1.491-9.526-3.086-15.947-7.523-22.176c-2.861-3.998-5.825-8.139-7.229-13.176
		c-1.194-4.314-1.438-12.104-1.702-19.614c-0.033-1.208-0.088-2.419-0.142-3.613c-0.244-6.14,0.176-13.068,4.895-17.964
		c3.757-3.055,7.758-5.913,11.614-8.65l0.913-0.647c2.264-1.598,4.422-3.316,6.509-4.964c5.597-4.477,10.913-8.688,17.599-10.368
		c7.017-1.773,14.312-0.475,22.017,0.91c2.352,0.422,4.754,0.879,7.158,1.192c1.965,0.281,3.858,0.701,5.684,1.282v-1.475
		c-1.771-0.544-3.613-0.932-5.49-1.194C492.139,154.123,489.717,153.701,487.4,153.265z"/>
	<path d="M480.174,258.545c-2.401,0.176-4.895,0.332-7.49,0.666c-6.439,0.789-8.213,3.001-11.122,6.666
		c-0.439,0.544-0.88,1.123-1.404,1.721c-0.615,0.754-1.211,1.438-1.789,2.121c-3.527,4.141-6.333,7.422-6.613,14.352
		c-0.247,5.912,2.331,9.51,5.314,13.666c0.457,0.615,0.913,1.246,1.387,1.912c0.386,0.562,0.822,1.193,1.299,1.826
		c4.98,7.033,12.562,17.666,8.262,25.49c-4.842,8.824-20.42,5.809-28.771,4.176l-0.809-0.14c-0.895-0.176-1.808-0.353-2.718-0.562
		c-7.037-1.44-14.315-2.949-17.598,1.561l-1.158,1.701c-5.053,7.476-9.824,14.525-11.807,22.648
		c-1.789,7.334-2.175,15.687-1.176,24.106c0.632,5.176,3.42,10.401,6.123,15.456c3.858,7.227,7.473,14.033,4.911,20.191
		c-2.386,5.685-7.243,10.141-11.945,14.474c-2.773,2.545-5.649,5.192-7.931,8.018c-1.105,1.37-2.229,2.703-3.316,4.002
		c-4.578,5.438-8.877,10.578-11.719,17.104c-0.685,1.543-1.367,3.089-2.055,4.577c-1.631,3.545-3.314,7.194-4.544,11.105
		c-2.367,7.49-4.086,15.247-5.733,22.737c0,0.07-0.021,0.124-0.037,0.176h1.458c1.613-7.422,3.296-15.123,5.646-22.49
		c1.211-3.826,2.79-7.283,4.476-10.931c0.684-1.509,1.387-3.054,2.088-4.614c2.735-6.353,6.999-11.404,11.491-16.771
		c1.087-1.3,2.227-2.649,3.314-3.999c2.264-2.773,5.07-5.369,7.809-7.879c4.823-4.421,9.808-8.998,12.279-14.964
		c2.842-6.771-1.123-14.211-4.966-21.387c-2.632-4.949-5.368-10.054-5.964-14.966c-0.984-8.298-0.596-16.438,1.156-23.612
		c1.912-7.879,6.634-14.842,11.598-22.193l1.14-1.668c2.737-3.771,9.563-2.366,16.157-1c0.93,0.177,1.844,0.389,2.739,0.545
		l0.806,0.158c8.722,1.685,24.931,4.824,30.281-4.879c4.736-8.629-3.141-19.664-8.353-26.981c-0.475-0.647-0.895-1.263-1.313-1.841
		c-0.457-0.649-0.913-1.299-1.369-1.913c-2.947-4.121-5.299-7.353-5.07-12.789c0.264-6.438,2.789-9.388,6.299-13.49
		c0.596-0.687,1.193-1.387,1.826-2.142c0.49-0.615,0.964-1.194,1.384-1.735c2.896-3.633,4.352-5.438,10.211-6.16
		c2.561-0.298,5.017-0.489,7.403-0.649c3.562-0.243,7.228-0.508,11.316-1.207c2.963-0.527,5.736-1.194,8.42-1.949v-1.455
		c-2.754,0.771-5.615,1.473-8.633,2.018C487.314,258.035,483.682,258.299,480.174,258.545z"/>
	<path d="M352.366,491.58c8.859-4.615,12.808-13.299,15.508-21.178c0.703-1.999,1.353-4.054,1.985-6.035
		c0.717-2.228,1.455-4.525,2.227-6.771c1.999-5.703,4.229-11.771,7.422-17.491l0.474-0.826c1.245-2.243,2.334-4.174,4.212-5.929
		c2.386-2.193,3.509-4.524,4.945-7.475l0.457-0.911c0.947-1.931,2.176-3.809,3.366-5.615c1.37-2.104,2.809-4.279,3.843-6.613
		c2-4.489,0.703-8.877-0.562-13.122c-0.42-1.455-0.859-2.964-1.157-4.404c-1.123-5.612-0.281-10.612,0.615-15.931
		c0.386-2.332,0.789-4.754,1.016-7.243c0.246-2.632,0.298-5.335,0.353-7.949c0.069-3.438,0.142-6.702,0.577-9.808
		c0.579-4.069,2.177-7.437,3.701-10.685c1.123-2.366,2.177-4.577,2.825-6.999c0.967-3.509,1.177-9.878-2.07-13.052
		c-2.263-2.176-5.474-2.265-8.314-2.334c-0.842-0.034-1.665-0.069-2.439-0.142c-2.069-0.192-3.998-0.823-6.016-1.51
		c-1.771-0.578-3.615-1.19-5.578-1.473c-6.369-0.947-13.862,0.123-17.772,0.823c-5.789,1.089-14.176,3.913-18.281,7.054
		c-3.719,2.861-6.665,8.369-9.279,13.246c-1.105,2.105-2.176,4.07-3.211,5.719c-0.298,0.473-0.615,0.965-0.913,1.42
		c-4.929,7.67-9.595,14.932-8.281,30.352c0.28,3.3,1.335,14.599,3.299,21.158c1.141,3.859,3.28,6.932,5.352,9.878
		c3.001,4.279,5.579,7.983,4.668,13.192c-0.51,2.981-2.002,5.525-4.089,7c-1.841,1.281-4.069,1.719-6.597,1.266
		c-1.72-0.317-3.455-0.983-5.122-1.616c-1.667-0.649-3.403-1.333-5.143-1.665c-5.139-0.967-8.646-0.913-12.964,0.264
		c-12.526,3.384-15.456,15.454-18.545,28.229c-0.278,1.141-0.56,2.279-0.823,3.42c-3.264,13.001-8.264,21.069-17.824,28.826
		c-0.791,0.63-1.562,1.209-2.315,1.735c-0.491,0.385-0.981,0.72-1.404,1.068c-4.401,3.387-7.42,5.879-9.929,8.844h1.861
		c2.278-2.474,5.033-4.754,8.928-7.737c0.422-0.352,0.896-0.684,1.369-1.034c0.771-0.562,1.562-1.141,2.386-1.79
		c9.823-7.964,14.948-16.244,18.28-29.577c0.281-1.123,0.562-2.282,0.844-3.423c3-12.368,5.824-24.033,17.543-27.192
		c4.088-1.123,7.422-1.175,12.316-0.247c1.647,0.318,3.229,0.931,4.912,1.58c1.735,0.666,3.51,1.369,5.387,1.701
		c2.876,0.511,5.508,0,7.647-1.508c2.369-1.668,4.088-4.545,4.666-7.895c1.001-5.791-1.856-9.912-4.912-14.248
		c-2-2.857-4.087-5.823-5.139-9.456c-1.912-6.454-2.984-17.631-3.265-20.909c-1.264-14.933,3.28-21.982,8.07-29.438
		c0.314-0.493,0.613-0.947,0.929-1.458c1.055-1.684,2.141-3.666,3.28-5.788c2.527-4.756,5.387-10.122,8.877-12.79
		c3.932-3.018,12.036-5.755,17.687-6.773c3.807-0.717,11.123-1.752,17.313-0.842c1.845,0.283,3.6,0.861,5.334,1.44
		c2.019,0.649,4.089,1.333,6.334,1.56c0.824,0.071,1.667,0.105,2.526,0.125c2.7,0.068,5.491,0.176,7.351,1.982
		c2.825,2.717,2.546,8.578,1.72,11.648c-0.612,2.315-1.631,4.475-2.736,6.771c-1.58,3.333-3.228,6.807-3.843,11.087
		c-0.438,3.193-0.508,6.634-0.562,9.966c-0.088,2.599-0.139,5.281-0.368,7.843c-0.21,2.438-0.63,4.844-1.017,7.176
		c-0.861,5.191-1.771,10.561-0.598,16.402c0.316,1.543,0.771,3.071,1.211,4.526c1.229,4.194,2.404,8.159,0.615,12.158
		c-0.984,2.246-2.404,4.366-3.738,6.421c-1.211,1.841-2.455,3.755-3.474,5.755l-0.439,0.93c-1.367,2.809-2.456,5.034-4.629,7.053
		c-2.054,1.896-3.247,4.033-4.492,6.298l-0.474,0.809c-3.247,5.808-5.508,11.947-7.511,17.719c-0.788,2.244-1.524,4.562-2.245,6.79
		c-0.631,1.999-1.298,4.033-1.964,6.035c-2.632,7.612-6.421,15.999-14.823,20.368c-1.51,0.771-2.933,1.963-4.336,3.141
		c-2.192,1.823-4.49,3.701-6.945,3.965c-4.477,0.474-7.51-3.123-10.423-6.598c-0.84-1.018-1.631-1.965-2.456-2.807
		c-2.297-2.314-4.562-4.876-5.718-7.649c-1.09-2.578-1.808-4.878-2.456-7.913c-0.317-1.508-0.615-3.122-0.931-4.824
		c-2.037-10.979-4.544-24.631-17.368-23.718l-0.142,0.018l-0.14,0.052c-5.896,3.018-7.93,10.159-9.721,16.458l-0.176,0.632
		c-3.07,10.823-5.896,19.72-11.578,27.368c-1.158,1.524-2.387,2.998-3.58,4.419c-1.524,1.826-3.018,3.616-4.229,5.423h1.721
		c1.053-1.492,2.299-3.001,3.58-4.527c1.208-1.438,2.436-2.911,3.613-4.491c5.859-7.824,8.701-16.84,11.822-27.824l0.177-0.613
		c1.685-5.979,3.612-12.754,8.894-15.527c11.422-0.733,13.722,11.669,15.755,22.599c0.317,1.719,0.615,3.315,0.947,4.86
		c0.669,3.104,1.387,5.475,2.51,8.156c1.264,3.001,3.634,5.667,6.02,8.089c0.771,0.807,1.56,1.735,2.385,2.7
		c2.158,2.58,4.492,5.386,7.598,6.58h6.175c2-0.789,3.789-2.298,5.562-3.738C349.7,493.387,351.016,492.28,352.366,491.58z"/>
	<path d="M11.858,264.334c8.456-2.771,16.474-5.387,28.087-3.035c10.088,2.053,20.579,2.121,28.808,0.227
		c13.368-3.104,13.93-13.964,14.771-30.384c0.036-0.896,0.105-1.79,0.158-2.649c0.211-2.562,0.404-5,0.036-7.313
		c-1.176-8.354-9.105-11.23-16.702-12.931c-5.438-1.229-10.965-1.143-16.299-1.071c-3.981,0.07-7.736,0.121-11.35-0.352
		c-3.387-0.42-5.668-1.49-6.982-3.229c-2.158-2.894-1.649-7.438-0.79-13.068c2.544-16.177-1.14-24.02-7.877-31.404
		c-6.017-6.596-14.21-9.403-23.72-11.228v1.421c9.158,1.771,16.982,4.525,22.667,10.754c6.474,7.088,9.982,14.615,7.562,30.228
		c-0.931,5.983-1.457,10.809,1.035,14.124c1.544,2.07,4.141,3.314,7.911,3.807c3.738,0.456,7.527,0.404,11.562,0.352
		c5.245-0.071,10.684-0.159,15.981,1.035c7.475,1.685,14.545,4.263,15.632,11.772c0.316,2.157,0.122,4.507-0.052,7
		c-0.053,0.876-0.141,1.771-0.176,2.683c-0.912,17.702-1.878,26.333-13.685,29.089c-8.034,1.857-18.315,1.771-28.21-0.229
		c-11.982-2.42-20.141,0.229-28.808,3.069c-3.018,0.981-6.123,1.981-9.386,2.771c-0.684,0.158-1.369,0.317-2.035,0.475v1.439
		c0.771-0.194,1.562-0.352,2.351-0.562C5.682,266.35,8.822,265.314,11.858,264.334z"/>
	<path d="M411.104,149.02c-0.104-0.107-0.177-0.265-0.265-0.475c-0.121-0.352-0.313-0.842-0.771-1.177
		c-1.388-1.052-4.476-1.526-7.754-2.017c-1-0.158-1.947-0.317-2.845-0.457c-10.562-1.932-20.508-6.647-30.155-11.229
		c-3.335-1.579-6.772-3.192-10.177-4.685l-1.28-0.562c-9.246-3.998-17.21-7.489-24.088-15.051c-5.633-6.193-9.054-12.93-9.896-19.51
		c-1.367-10.596,2.578-15.265,6.772-20.209c1.211-1.438,2.455-2.913,3.597-4.563c1.981-2.857,3.63-6.156,2.229-10.876
		c-1.315-4.456-5.176-7.545-9.668-11.158c-0.63-0.526-1.299-1.07-1.965-1.612c-3.157-2.58-5.789-5.298-8.333-7.932
		c-4.544-4.7-8.474-8.754-13.895-10.438c-5.088-1.597-11.034-0.597-16.299,2.736c-5.475,3.456-9.367,8.877-10.123,14.124
		c-0.334,2.313-0.211,4.945-0.123,7.474c0.123,3.034,0.264,6.174-0.332,8.859c-1.65,7.297-9,11.229-15.211,13.807
		c-6.229,2.598-12.509,6.193-18.597,9.668c-8.789,5.017-17.07,9.753-25.262,11.807c-8.772,2.209-17.124-0.562-24.509-3.018
		c-2.808-0.947-5.457-1.844-7.913-2.353c-8.333-1.771-14.036,1.142-15.596,7.947c-0.492,2.158-0.703,4.455-0.896,6.667
		c-0.139,1.526-0.298,3.105-0.508,4.614c-1.176,7.42-4.193,13.524-7.141,19.422c-2.473,5.017-5.017,10.173-6.421,16.068
		c-0.543,2.334-0.895,5.737-1.228,9.352c-0.403,4.105-0.824,8.332-1.578,11.193c-1.264,4.842-3.369,9.175-5.633,13.755
		c-1.385,2.876-2.858,5.858-4.157,9.087c-0.369,0.913-0.719,1.841-1.053,2.736c-2.544,6.772-4.737,12.614-14.245,10.91
		c-9.983-1.753-18.72-8.929-21.247-17.455c-1.824-6.104-2.351-16.896-1.174-23.525c1.367-7.754,5.386-18.596,12.087-23.684
		c2.649-2.019,5.333-3.193,7.947-4.301c4.053-1.771,8.264-3.597,12.087-8.665c4.176-5.526,7.053-18.264,4.58-30.02
		c-0.93-4.473-2.632-8.402-4.474-12.541c-1.527-3.511-3.141-7.107-4.421-11.369c-0.807-2.737-1.298-8.089-0.685-12.317
		c0.316-2.139,1.106-4.72,1.913-7.419l0.421-1.369c2.596-8.772,5.859-19.665,15.088-21.79c4.876-1.104,8.894,2.264,13.14,5.843
		c2.755,2.316,5.615,4.72,8.895,6.035c7.526,3.052,15.719,0.667,24.403-1.896c2.965-0.876,6.07-1.79,9.211-2.491
		c3.508-0.807,7.07-1.298,10.491-1.771c5.088-0.702,9.878-1.368,14.386-2.912c6.825-2.369,11.211-6.878,15.158-15.526
		c3.281-7.211,5.597-11.191,8.843-14.736h-1.861c-2.912,3.438-5.21,7.456-8.245,14.141c-3.772,8.281-7.93,12.561-14.369,14.772
		c-4.369,1.509-9.088,2.175-14.088,2.876c-3.473,0.474-7.035,0.981-10.614,1.808c-3.21,0.72-6.314,1.631-9.332,2.509
		c-8.404,2.474-16.387,4.824-23.457,1.929c-3.07-1.244-5.842-3.577-8.525-5.823c-4.316-3.632-8.79-7.386-14.352-6.104
		c-10.018,2.315-13.403,13.633-16.123,22.736l-0.403,1.37c-0.86,2.754-1.632,5.366-1.947,7.611
		c-0.667,4.438-0.142,10.055,0.719,12.931c1.315,4.351,2.911,8,4.474,11.509c1.79,4.106,3.491,7.949,4.403,12.28
		c2.333,11.229-0.438,23.737-4.334,28.877c-3.614,4.772-7.473,6.457-11.544,8.247c-2.683,1.14-5.438,2.351-8.228,4.456
		c-7.035,5.334-11.192,16.562-12.632,24.562c-1.228,6.945-0.684,17.771,1.194,24.158c2.683,9.016,11.876,16.613,22.368,18.471
		c10.667,1.861,13.263-5.085,15.807-11.807c0.333-0.894,0.684-1.823,1.035-2.719c1.28-3.175,2.736-6.142,4.139-8.982
		c2.263-4.666,4.404-9.035,5.702-14.016c0.79-2.984,1.211-7.265,1.615-11.425c0.351-3.575,0.684-6.944,1.21-9.175
		c1.351-5.736,3.771-10.596,6.315-15.755c2.982-6.018,6.054-12.209,7.246-19.841c0.246-1.543,0.386-3.14,0.526-4.686
		c0.21-2.176,0.403-4.438,0.876-6.491c1.877-8.156,9.544-7.806,13.948-6.875c2.351,0.474,4.983,1.35,7.754,2.279
		c7.562,2.544,16.123,5.387,25.299,3.069c8.351-2.122,17.123-7.122,25.614-11.966c6.035-3.454,12.314-7.034,18.438-9.577
		c6.528-2.721,14.246-6.861,16.02-14.808c0.648-2.843,0.527-6.089,0.402-9.212c-0.122-2.596-0.227-5.033,0.088-7.209
		c0.703-4.861,4.334-9.896,9.475-13.142c4.93-3.104,10.457-4.052,15.159-2.578c5.052,1.562,8.877,5.509,13.278,10.069
		c2.581,2.649,5.247,5.386,8.457,8.034c0.667,0.562,1.334,1.105,2,1.613c4.455,3.6,8,6.422,9.193,10.475
		c1.279,4.351-0.367,7.3-2.035,9.668c-1.09,1.613-2.353,3.052-3.525,4.473c-4.194,4.933-8.527,10.055-7.107,21.281
		c0.896,6.878,4.439,13.86,10.265,20.299c7.069,7.771,15.192,11.299,24.58,15.368l1.263,0.562c3.369,1.476,6.807,3.105,10.142,4.666
		c9.718,4.613,19.771,9.369,30.509,11.336c0.894,0.173,1.859,0.314,2.896,0.474c2.806,0.42,5.981,0.91,7.104,1.77
		c0.155,0.088,0.21,0.265,0.313,0.545c0.071,0.193,0.176,0.439,0.335,0.685c-0.368,3.281-2.544,6.649-5.615,8.649
		c-1.911,1.244-3.56,1.156-5.648,1.035c-0.597-0.055-1.191-0.07-1.841-0.088c-7.861-0.07-16.354,7.79-19.878,13.386
		c-1.912,3.069-3.388,6.561-4.824,9.93c-0.807,1.878-1.613,3.807-2.49,5.615c-5.125,10.543-10.598,17.298-15.842,19.51
		c-1.422,0.596-2.773,1.35-4.107,2.067c-1.755,0.983-3.438,1.896-5.246,2.492c-2.42,0.807-4.979,1.333-7.456,1.841
		c-2.474,0.493-5.017,1.02-7.474,1.808c-13.998,4.546-21.035,16.089-27.279,32.019l-0.281,0.738
		c-0.612,1.575-1.262,3.227-2.032,4.841c-1.757,3.633-4.283,6.702-6.738,9.648c-3.299,3.965-6.385,7.736-7.353,12.492
		c-0.648,3.244-0.666,6.455-0.717,9.543c-0.037,1.948-0.055,3.947-0.213,5.947c-0.475,5.439-0.998,11.598,2.211,17.191
		c2.211,3.844,4.49,7.406,6.879,11.178l1.156,1.841c1.018,1.597,1.824,3.315,2.598,5c1.227,2.632,2.49,5.368,4.611,7.702
		l0.193,0.229h0.301c0.191,0.017,0.42,0.017,0.666,0.017c0.542,0,1.104-0.033,1.509-0.156l0.156-0.053l0.142-0.123
		c2.158-2.191,3.756-4.86,5.299-7.438c1.597-2.613,3.244-5.314,5.455-7.51c5.212-5.156,9.983-9.175,14.599-12.35
		c10.666-7.299,22.051-12.229,33.877-14.633c10.91-2.211,23.579-4.332,35.701-1.666c0.017,0.019,0.053,0.019,0.069,0.019
		c0.156,0.033,0.314,0.069,0.475,0.104c0.034,0,0.088,0,0.14,0c2.808,0.455,4.069-0.457,4.069-0.457s1.229-1.895-0.597-1.278
		c-1.841,0.612-3.542,0.297-3.612,0.28h-0.018c-12.474-2.809-25.387-0.633-36.51,1.646c-11.981,2.422-23.562,7.422-34.404,14.824
		c-4.665,3.211-9.509,7.298-14.771,12.492c-2.35,2.332-4.018,5.123-5.667,7.807c-1.543,2.561-3,4.965-4.981,7.035
		c-0.263,0.035-0.734,0.052-1.246,0.052c-1.857-2.122-2.98-4.562-4.191-7.139c-0.788-1.72-1.596-3.491-2.666-5.142l-1.176-1.857
		c-2.369-3.771-4.633-7.301-6.824-11.141c-3.018-5.195-2.492-11.123-2.053-16.336c0.176-2.07,0.209-4.104,0.227-6.068
		c0.037-3.178,0.07-6.158,0.686-9.28c0.896-4.403,3.896-8.037,7.055-11.878c2.523-3.034,5.104-6.159,6.929-9.93
		c0.789-1.666,1.455-3.334,2.088-4.965l0.265-0.703c6.104-15.562,12.93-26.824,26.42-31.191c2.368-0.791,4.879-1.299,7.316-1.771
		c2.507-0.527,5.122-1.069,7.63-1.878c1.914-0.632,3.737-1.647,5.492-2.614c1.279-0.7,2.596-1.438,3.945-1.982
		c5.633-2.401,11.211-9.209,16.562-20.21c0.896-1.841,1.72-3.789,2.511-5.684c1.422-3.315,2.877-6.756,4.735-9.719
		c3.351-5.335,11.367-12.81,18.668-12.722c0.612,0,1.208,0.035,1.789,0.071c2.158,0.122,4.191,0.244,6.474-1.265
		c3.508-2.28,5.982-6.209,6.299-9.98l0.017-0.334L411.104,149.02z"/>
	<path d="M499.998,293.755c-4.473-2.069-6.701-3.877-6.719-6.245c-0.019-2.388,2.279-5.334,6.719-7.562v-0.542
		c-4.79,2.368-7.227,5.456-7.192,8.122c0.018,2.596,2.423,4.562,7.192,6.736V293.755z"/>
</g>
</svg>
