<?xml version="1.0" encoding="utf-8"?>
<!-- Generator: Adobe Illustrator 16.0.0, SVG Export Plug-In . SVG Version: 6.00 Build 0)  -->
<!DOCTYPE svg PUBLIC "-//W3C//DTD SVG 1.1//EN" "http://www.w3.org/Graphics/SVG/1.1/DTD/svg11.dtd">
<svg version="1.1" id="Layer_1" xmlns="http://www.w3.org/2000/svg" xmlns:xlink="http://www.w3.org/1999/xlink" x="0px" y="0px"
	 width="400px" height="400px" viewBox="-100 -100 400 400" enable-background="new -100 -100 400 400" xml:space="preserve">
<g>
	<path fill="#F5E636" d="M115.044,47.692c0-3.969-3.229-7.195-7.196-7.195h-7.234H40.128h-7.232c-3.967,0-7.196,3.227-7.196,7.195
		v5.459h89.344V47.692L115.044,47.692z"/>
	<path fill="#F5E636" d="M41.329,25.382v12.71h58.083v-12.71H83.406v8.455c0,0.663-0.537,1.202-1.2,1.202
		c-0.666,0-1.201-0.539-1.201-1.202v-8.455H58.662v8.455c0,0.663-0.537,1.202-1.202,1.202c-0.661,0-1.199-0.539-1.199-1.202v-8.455
		H41.329z"/>
	<path fill="#F5E636" d="M236.748,114.318c0-1.885-1.533-3.416-3.418-3.416H-91.583c-1.884,0-3.417,1.531-3.417,3.416
		s1.533,3.42,3.417,3.42h12.745c0.082-0.02,0.167-0.029,0.25-0.029c0.086,0,0.17,0.01,0.253,0.029H233.33
		C235.215,117.738,236.748,116.203,236.748,114.318z"/>
	<path fill="#F5E636" d="M61.087,55.554H24.505c0,0-0.004,0-0.006,0c-0.005,0-0.005,0-0.009,0H-0.88
		c-23.686,0-43.325,17.431-46.236,40.76h15.98c0.665,0,1.203,0.537,1.203,1.2c0,0.664-0.538,1.201-1.203,1.201h-17.333h-21.719
		c-3.969,0-7.196,3.228-7.196,7.199v2.584H61.087V55.554L61.087,55.554z M35.903,97.837c-3.879,3.877-9.034,6.012-14.517,6.012
		c-5.484,0-10.641-2.135-14.517-6.012c-8.002-8.004-8.002-21.029,0-29.035c3.876-3.877,9.032-6.012,14.517-6.012
		c5.482,0,10.638,2.135,14.517,6.012C43.907,76.808,43.907,89.833,35.903,97.837z"/>
	<path fill="#F5E636" d="M39.966,22.977h0.164h60.485h0.164c0.552,0,1.002-0.449,1.002-1.003c0-0.551-0.45-1.002-1.002-1.002H39.968
		c-0.554,0-1.003,0.451-1.003,1.002C38.965,22.528,39.415,22.977,39.966,22.977z"/>
	<path fill="#F5E636" d="M63.491,108.498H229.59c0.284-2.088,0.435-4.211,0.435-6.322c0-25.707-20.911-46.622-46.619-46.622h-67.153
		c-0.002,0-0.004,0-0.008,0c-0.002,0-0.004,0-0.008,0H63.491V108.498L63.491,108.498z M75.697,68.804
		c3.876-3.877,9.032-6.012,14.517-6.012s10.638,2.135,14.517,6.012c8,8.004,8,21.029,0,29.033
		c-3.881,3.879-9.037,6.014-14.517,6.014c-5.484,0-10.641-2.135-14.517-6.014C67.695,89.833,67.695,76.808,75.697,68.804z"/>
	<path fill="#F5E636" d="M70.373,12.557c-0.004,0-0.004,0-0.004,0c-6.859,0-13.526,2.117-19.104,6.012h38.204
		C83.895,14.678,77.232,12.557,70.373,12.557z"/>
	<path fill="#F5E636" d="M119.231,176.816c0,0.664-0.542,1.201-1.203,1.201s-1.2-0.537-1.2-1.201v-10.629H23.637v10.629
		c0,0.664-0.537,1.201-1.201,1.201c-0.661,0-1.2-0.537-1.2-1.201v-10.629h-30.97v21.256h183.981v-21.256h-55.016V176.816z"/>
	<rect x="119.231" y="151.193" fill="#F5E636" width="20.59" height="12.592"/>
	<path fill="#F5E636" d="M184.915,166.312v21.008c3.348-0.619,5.894-3.549,5.894-7.072v-6.865
		C190.809,169.859,188.263,166.926,184.915,166.312z"/>
	<rect x="176.65" y="166.188" fill="#F5E636" width="5.861" height="21.256"/>
	<path fill="#F5E636" d="M-70.188,126.107h28.628c0.417,0,0.802,0.215,1.022,0.568c8.575,13.848,23.4,22.117,39.657,22.117h184.286
		c18.761,0,35.831-11.447,43.029-28.658H-77.272C-76.687,123.523-73.736,126.107-70.188,126.107z"/>
	<path fill="#F5E636" d="M-26.398,173.383v6.869c0,3.555,2.599,6.51,5.996,7.086v-21.041
		C-23.799,166.871-26.398,169.828-26.398,173.383z"/>
	<rect x="23.637" y="151.193" fill="#F5E636" width="93.191" height="12.592"/>
	<rect x="-17.999" y="166.188" fill="#F5E636" width="5.861" height="21.256"/>
	<path fill="#F5E636" d="M294.783,44.423c-0.237-0.15-1.071-0.083-2.402,0.728c-2.868,1.741-54.412,38.358-54.934,38.727
		c-0.204,0.143-0.447,0.221-0.695,0.221h-7.794c2.229,5.597,3.466,11.69,3.466,18.074c0,2.113-0.142,4.232-0.415,6.322h1.321
		c3.207,0,5.821,2.611,5.821,5.82c0,3.211-2.612,5.82-5.821,5.82h-4.312c-0.421,1.07-0.88,2.119-1.371,3.148
		c9.234,1.338,54.577,7.9,55.674,8.062c0.467,0.066,1.244,0.18,1.583-0.076c0.203-0.154,0.349-0.529,0.413-1.047
		c0.126-1.045,1.84-15.984,9.279-81.244l0.378-3.315C295.056,44.95,294.931,44.521,294.783,44.423z"/>
	<rect x="6.691" y="151.193" fill="#F5E636" width="14.545" height="12.592"/>
	<path fill="#F5E636" d="M34.203,70.501c-3.424-3.422-7.974-5.308-12.814-5.308c-4.843,0-9.396,1.886-12.819,5.308
		c-7.067,7.07-7.067,18.568,0,25.636c3.422,3.424,7.975,5.31,12.817,5.31s9.393-1.886,12.816-5.31
		C41.271,89.07,41.271,77.572,34.203,70.501z M21.386,97.184c-7.646,0-13.863-6.219-13.863-13.863
		c0-7.646,6.218-13.863,13.863-13.863c7.643,0,13.863,6.218,13.863,13.863C35.25,90.965,29.029,97.184,21.386,97.184z"/>
	<path fill="#F5E636" d="M103.03,70.501c-3.419-3.422-7.974-5.308-12.817-5.308c-4.841,0-9.394,1.886-12.817,5.308
		c-7.067,7.07-7.067,18.568,0,25.636c3.424,3.424,7.975,5.31,12.817,5.31c4.841,0,9.393-1.886,12.817-5.31
		C110.099,89.07,110.099,77.572,103.03,70.501z M90.213,97.184c-7.646,0-13.863-6.219-13.863-13.863
		c0-7.646,6.218-13.863,13.863-13.863c7.643,0,13.864,6.218,13.864,13.863C104.077,90.965,97.859,97.184,90.213,97.184z"/>
</g>
</svg>
