<?xml version="1.0" encoding="utf-8"?>
<!-- Generator: Adobe Illustrator 16.0.0, SVG Export Plug-In . SVG Version: 6.00 Build 0)  -->
<!DOCTYPE svg PUBLIC "-//W3C//DTD SVG 1.1//EN" "http://www.w3.org/Graphics/SVG/1.1/DTD/svg11.dtd">
<svg version="1.1" id="Layer_1" xmlns="http://www.w3.org/2000/svg" xmlns:xlink="http://www.w3.org/1999/xlink" x="0px" y="0px"
	 width="200px" height="200px" viewBox="150 150 200 200" enable-background="new 150 150 200 200" xml:space="preserve">
<g>
	<path fill="#F5E636" d="M257.329,224.516c0-1.934-1.573-3.506-3.506-3.506h-3.524h-29.467h-3.523c-1.933,0-3.506,1.572-3.506,3.506
		v2.659h43.526V224.516L257.329,224.516z"/>
	<path fill="#F5E636" d="M221.417,213.646v6.193h28.297v-6.193h-7.798v4.12c0,0.323-0.262,0.585-0.585,0.585
		c-0.324,0-0.585-0.262-0.585-0.585v-4.12h-10.885v4.12c0,0.323-0.262,0.585-0.585,0.585s-0.585-0.262-0.585-0.585v-4.12H221.417z"
		/>
	<path fill="#F5E636" d="M316.621,256.975c0-0.919-0.747-1.665-1.665-1.665H156.665c-0.918,0-1.665,0.746-1.665,1.665
		c0,0.918,0.747,1.665,1.665,1.665h6.209c0.04-0.009,0.081-0.014,0.122-0.014c0.042,0,0.083,0.005,0.123,0.014h151.837
		C315.874,258.64,316.621,257.893,316.621,256.975z"/>
	<path fill="#F5E636" d="M231.043,228.345h-17.822c-0.001,0-0.002,0.001-0.003,0.001c-0.002,0-0.002-0.001-0.004-0.001h-12.36
		c-11.539,0-21.108,8.493-22.526,19.858h7.786c0.323,0,0.585,0.262,0.585,0.585s-0.262,0.585-0.585,0.585h-8.445h-10.581
		c-1.933,0-3.506,1.573-3.506,3.507v1.259h67.461V228.345z M218.773,248.945c-1.889,1.889-4.401,2.929-7.072,2.929
		c-2.672,0-5.183-1.04-7.072-2.929c-3.899-3.899-3.899-10.245,0-14.145c1.889-1.889,4.4-2.929,7.072-2.929
		c2.671,0,5.183,1.04,7.072,2.929C222.673,238.7,222.673,245.046,218.773,248.945z"/>
	<path fill="#F5E636" d="M220.753,212.475h0.08h29.467h0.08c0.269,0,0.488-0.219,0.488-0.488s-0.219-0.489-0.488-0.489h-29.626
		c-0.269,0-0.488,0.22-0.488,0.489S220.484,212.475,220.753,212.475z"/>
	<path fill="#F5E636" d="M232.214,254.139h80.92c0.138-1.017,0.212-2.051,0.212-3.081c0-12.523-10.188-22.713-22.712-22.713h-32.716
		c-0.001,0-0.002,0.001-0.004,0.001c-0.001,0-0.002-0.001-0.004-0.001h-25.696V254.139L232.214,254.139z M238.16,234.801
		c1.889-1.889,4.4-2.929,7.072-2.929s5.183,1.04,7.072,2.929c3.898,3.899,3.898,10.245,0,14.145
		c-1.89,1.889-4.401,2.929-7.072,2.929c-2.672,0-5.183-1.04-7.072-2.929C234.261,245.046,234.261,238.7,238.16,234.801z"/>
	<path fill="#F5E636" d="M235.566,207.399c-0.001,0-0.001,0-0.002,0c-3.342,0-6.589,1.031-9.306,2.928h18.612
		C242.154,208.431,238.908,207.399,235.566,207.399z"/>
	<path fill="#F5E636" d="M259.369,287.423c0,0.323-0.263,0.585-0.586,0.585c-0.322,0-0.585-0.262-0.585-0.585v-5.179h-45.4v5.179
		c0,0.323-0.262,0.585-0.585,0.585c-0.323,0-0.585-0.262-0.585-0.585v-5.179H196.54v10.356h89.632v-10.356h-26.803V287.423z"/>
	<rect x="259.369" y="274.939" fill="#F5E636" width="10.031" height="6.135"/>
	<path fill="#F5E636" d="M291.369,282.305v10.235c1.631-0.301,2.871-1.729,2.871-3.445v-3.345
		C294.24,284.033,293,282.604,291.369,282.305z"/>
	<rect x="287.343" y="282.244" fill="#F5E636" width="2.855" height="10.355"/>
	<path fill="#F5E636" d="M167.088,262.718h13.947c0.203,0,0.391,0.104,0.498,0.277c4.178,6.746,11.4,10.774,19.321,10.774h89.78
		c9.139,0,17.456-5.576,20.963-13.96H163.637C163.922,261.459,165.359,262.718,167.088,262.718z"/>
	<path fill="#F5E636" d="M188.422,285.75v3.345c0,1.733,1.266,3.173,2.921,3.453v-10.25
		C189.688,282.577,188.422,284.017,188.422,285.75z"/>
	<rect x="212.798" y="274.939" fill="#F5E636" width="45.4" height="6.135"/>
	<rect x="192.513" y="282.244" fill="#F5E636" width="2.856" height="10.355"/>
	<path fill="#F5E636" d="M344.895,222.923c-0.116-0.073-0.522-0.04-1.17,0.354c-1.398,0.849-26.509,18.688-26.763,18.867
		c-0.1,0.07-0.218,0.108-0.339,0.108h-3.797c1.086,2.727,1.689,5.695,1.689,8.804c0,1.031-0.07,2.063-0.202,3.081h0.643
		c1.563,0,2.836,1.272,2.836,2.836s-1.272,2.836-2.836,2.836h-2.101c-0.205,0.521-0.428,1.032-0.667,1.533
		c4.499,0.652,26.588,3.85,27.123,3.928c0.227,0.032,0.606,0.088,0.771-0.038c0.099-0.075,0.17-0.257,0.201-0.51
		c0.062-0.508,0.897-7.786,4.521-39.58l0.184-1.614C345.027,223.179,344.967,222.97,344.895,222.923z"/>
	<rect x="204.542" y="274.939" fill="#F5E636" width="7.086" height="6.135"/>
	<path fill="#F5E636" d="M217.946,235.628c-1.668-1.667-3.886-2.586-6.244-2.586c-2.359,0-4.577,0.919-6.245,2.586
		c-3.443,3.444-3.443,9.046,0,12.489c1.667,1.668,3.885,2.587,6.244,2.587s4.576-0.919,6.245-2.587
		C221.389,244.674,221.389,239.072,217.946,235.628z M211.701,248.627c-3.724,0-6.754-3.03-6.754-6.754s3.03-6.754,6.754-6.754
		c3.724,0,6.754,3.03,6.754,6.754S215.425,248.627,211.701,248.627z"/>
	<path fill="#F5E636" d="M251.477,235.628c-1.667-1.667-3.885-2.586-6.244-2.586s-4.577,0.919-6.245,2.586
		c-3.443,3.444-3.443,9.046,0,12.489c1.668,1.668,3.885,2.587,6.244,2.587s4.576-0.919,6.245-2.587
		C254.92,244.674,254.92,239.072,251.477,235.628z M245.232,248.627c-3.724,0-6.754-3.03-6.754-6.754s3.03-6.754,6.754-6.754
		s6.754,3.03,6.754,6.754S248.957,248.627,245.232,248.627z"/>
</g>
</svg>
