<?xml version="1.0" encoding="utf-8"?>
<!-- Generator: Adobe Illustrator 16.0.0, SVG Export Plug-In . SVG Version: 6.00 Build 0)  -->
<!DOCTYPE svg PUBLIC "-//W3C//DTD SVG 1.1//EN" "http://www.w3.org/Graphics/SVG/1.1/DTD/svg11.dtd">
<svg version="1.1" id="Layer_1" xmlns="http://www.w3.org/2000/svg" xmlns:xlink="http://www.w3.org/1999/xlink" x="0px" y="0px"
	 width="400px" height="185px" viewBox="0 107.5 400 185" enable-background="new 0 107.5 400 185" xml:space="preserve">
<g>
	<path fill="#F5E636" d="M215.044,147.691c0-3.969-3.229-7.195-7.196-7.195h-7.234h-60.486h-7.232c-3.967,0-7.196,3.227-7.196,7.195
		v5.459h89.344V147.691L215.044,147.691z"/>
	<path fill="#F5E636" d="M141.329,125.381v12.71h58.083v-12.71h-16.006v8.455c0,0.663-0.537,1.202-1.2,1.202
		c-0.666,0-1.201-0.539-1.201-1.202v-8.455h-22.343v8.455c0,0.663-0.537,1.202-1.202,1.202c-0.661,0-1.199-0.539-1.199-1.202v-8.455
		H141.329z"/>
	<path fill="#F5E636" d="M336.748,214.317c0-1.885-1.533-3.416-3.418-3.416H8.417c-1.884,0-3.417,1.531-3.417,3.416
		c0,1.886,1.533,3.42,3.417,3.42h12.745c0.082-0.021,0.167-0.028,0.25-0.028c0.086,0,0.17,0.01,0.253,0.028H333.33
		C335.215,217.737,336.748,216.203,336.748,214.317z"/>
	<path fill="#F5E636" d="M161.086,155.554h-36.582c0,0-0.004,0-0.006,0c-0.005,0-0.005,0-0.009,0H99.12
		c-23.686,0-43.325,17.431-46.236,40.76h15.98c0.665,0,1.203,0.537,1.203,1.2c0,0.664-0.538,1.201-1.203,1.201H51.53H29.812
		c-3.969,0-7.196,3.228-7.196,7.2v2.584h138.471V155.554L161.086,155.554z M135.902,197.836c-3.879,3.876-9.034,6.012-14.517,6.012
		c-5.484,0-10.641-2.136-14.517-6.012c-8.002-8.004-8.002-21.029,0-29.035c3.876-3.877,9.032-6.012,14.517-6.012
		c5.482,0,10.638,2.135,14.517,6.012C143.907,176.808,143.907,189.833,135.902,197.836z"/>
	<path fill="#F5E636" d="M139.965,122.977h0.164h60.486h0.163c0.553,0,1.003-0.449,1.003-1.003c0-0.551-0.45-1.002-1.003-1.002
		h-60.811c-0.554,0-1.003,0.451-1.003,1.002C138.964,122.527,139.415,122.977,139.965,122.977z"/>
	<path fill="#F5E636" d="M163.491,208.498H329.59c0.284-2.088,0.436-4.211,0.436-6.322c0-25.708-20.912-46.622-46.62-46.622h-67.152
		c-0.002,0-0.004,0-0.008,0c-0.002,0-0.004,0-0.009,0h-52.746V208.498L163.491,208.498z M175.696,168.804
		c3.876-3.877,9.032-6.012,14.517-6.012c5.485,0,10.638,2.135,14.517,6.012c8,8.004,8,21.029,0,29.033
		c-3.881,3.878-9.037,6.014-14.517,6.014c-5.484,0-10.641-2.136-14.517-6.014C167.694,189.833,167.694,176.808,175.696,168.804z"/>
	<path fill="#F5E636" d="M170.373,112.557c-0.004,0-0.004,0-0.004,0c-6.859,0-13.526,2.117-19.104,6.012h38.204
		C183.895,114.677,177.231,112.557,170.373,112.557z"/>
	<path fill="#F5E636" d="M219.23,276.815c0,0.664-0.542,1.201-1.203,1.201c-0.66,0-1.199-0.537-1.199-1.201v-10.629h-93.191v10.629
		c0,0.664-0.537,1.201-1.201,1.201c-0.661,0-1.2-0.537-1.2-1.201v-10.629h-30.97v21.256h183.981v-21.256H219.23V276.815z"/>
	<rect x="219.23" y="251.192" fill="#F5E636" width="20.59" height="12.593"/>
	<path fill="#F5E636" d="M284.915,266.312v21.008c3.348-0.618,5.894-3.549,5.894-7.071v-6.865
		C290.809,269.858,288.263,266.926,284.915,266.312z"/>
	<rect x="276.649" y="266.188" fill="#F5E636" width="5.861" height="21.256"/>
	<path fill="#F5E636" d="M29.812,226.106h28.628c0.417,0,0.802,0.216,1.022,0.567c8.575,13.849,23.4,22.117,39.657,22.117h184.286
		c18.762,0,35.832-11.446,43.029-28.658H22.728C23.312,223.522,26.264,226.106,29.812,226.106z"/>
	<path fill="#F5E636" d="M73.602,273.383v6.869c0,3.555,2.599,6.51,5.996,7.086v-21.041
		C76.201,266.871,73.602,269.828,73.602,273.383z"/>
	<rect x="123.637" y="251.192" fill="#F5E636" width="93.191" height="12.593"/>
	<rect x="82" y="266.188" fill="#F5E636" width="5.861" height="21.256"/>
	<path fill="#F5E636" d="M394.783,144.422c-0.237-0.15-1.071-0.083-2.402,0.728c-2.867,1.741-54.412,38.358-54.934,38.727
		c-0.204,0.143-0.447,0.221-0.695,0.221h-7.794c2.229,5.597,3.466,11.69,3.466,18.073c0,2.113-0.142,4.232-0.415,6.322h1.321
		c3.207,0,5.82,2.611,5.82,5.82c0,3.211-2.611,5.82-5.82,5.82h-4.312c-0.42,1.07-0.879,2.119-1.371,3.148
		c9.234,1.338,54.578,7.899,55.674,8.061c0.468,0.066,1.244,0.181,1.584-0.075c0.203-0.153,0.349-0.528,0.412-1.047
		c0.127-1.046,1.841-15.984,9.279-81.244l0.379-3.315C395.057,144.95,394.932,144.521,394.783,144.422z"/>
	<rect x="106.69" y="251.192" fill="#F5E636" width="14.545" height="12.593"/>
	<path fill="#F5E636" d="M134.203,170.5c-3.424-3.422-7.974-5.308-12.814-5.308c-4.843,0-9.396,1.886-12.819,5.308
		c-7.067,7.07-7.067,18.568,0,25.636c3.422,3.424,7.975,5.311,12.817,5.311c4.842,0,9.393-1.887,12.816-5.311
		C141.271,189.069,141.271,177.572,134.203,170.5z M121.386,197.184c-7.646,0-13.863-6.219-13.863-13.863
		c0-7.646,6.218-13.863,13.863-13.863c7.643,0,13.863,6.218,13.863,13.863C135.25,190.964,129.028,197.184,121.386,197.184z"/>
	<path fill="#F5E636" d="M203.029,170.5c-3.419-3.422-7.974-5.308-12.817-5.308c-4.841,0-9.394,1.886-12.817,5.308
		c-7.067,7.07-7.067,18.568,0,25.636c3.424,3.424,7.975,5.311,12.817,5.311c4.841,0,9.393-1.887,12.817-5.311
		C210.099,189.069,210.099,177.572,203.029,170.5z M190.212,197.184c-7.646,0-13.863-6.219-13.863-13.863
		c0-7.646,6.218-13.863,13.863-13.863c7.643,0,13.865,6.218,13.865,13.863C204.077,190.964,197.858,197.184,190.212,197.184z"/>
</g>
</svg>
